<?xml version="1.0" encoding="UTF-8" standalone="no"?>
<!-- Created with Inkscape (http://www.inkscape.org/) -->

<svg
   width="24.18033mm"
   height="24.278517mm"
   viewBox="0 0 24.18033 24.278517"
   version="1.1"
   id="svg1"
   xml:space="preserve"
   sodipodi:docname="Icon.svg"
   inkscape:version="1.3 (0e150ed6c4, 2023-07-21)"
   xmlns:inkscape="http://www.inkscape.org/namespaces/inkscape"
   xmlns:sodipodi="http://sodipodi.sourceforge.net/DTD/sodipodi-0.dtd"
   xmlns="http://www.w3.org/2000/svg"
   xmlns:svg="http://www.w3.org/2000/svg"><sodipodi:namedview
     id="namedview1"
     pagecolor="#505050"
     bordercolor="#eeeeee"
     borderopacity="1"
     inkscape:showpageshadow="0"
     inkscape:pageopacity="0"
     inkscape:pagecheckerboard="0"
     inkscape:deskcolor="#505050"
     inkscape:document-units="mm"
     inkscape:zoom="0.61743803"
     inkscape:cx="493.1669"
     inkscape:cy="395.99116"
     inkscape:window-width="1600"
     inkscape:window-height="837"
     inkscape:window-x="-8"
     inkscape:window-y="-8"
     inkscape:window-maximized="1"
     inkscape:current-layer="layer1" /><defs
     id="defs1" /><g
     inkscape:label="Capa 1"
     inkscape:groupmode="layer"
     id="layer1"
     transform="translate(-94.159212,-126.54355)"><g
       id="g8"
       inkscape:export-filename="Icon.png"
       inkscape:export-xdpi="96"
       inkscape:export-ydpi="96"><g
         id="g1"
         transform="translate(122.98468,78.418803)"><path
           style="fill:#ae8d27"
           d="m 12.240547,179.03702 v -73.42188 h 85.989586 85.989587 v 73.42188 73.42187 H 98.230133 12.240547 Z m 134.276043,49.58935 c 7.85813,-4.51827 14.45901,-8.38337 14.66863,-8.58912 0.20962,-0.20575 0.30045,-0.45476 0.20185,-0.55336 -0.0986,-0.0986 -1.99651,0.87348 -4.21758,2.16018 -2.22107,1.2867 -6.59816,3.82116 -9.72686,5.63212 -7.55536,4.37321 -15.11002,8.24937 -16.0781,8.24937 -0.91938,0 -6.43082,-2.76316 -13.55523,-6.79592 -6.91538,-3.91443 -10.35536,-5.72315 -12.51296,-6.57925 -4.35725,-1.72887 -2.41729,-0.59905 19.65671,11.44789 3.27422,1.78691 6.25078,3.24762 6.61458,3.24602 0.38069,-0.002 6.72607,-3.48993 14.94896,-8.21793 z m -69.453124,5.61323 c 3.697425,-1.87519 19.017245,-10.49413 22.154242,-12.46399 0.693761,-0.43564 1.109912,-0.79434 0.924782,-0.79711 -0.582851,-0.009 -4.428551,2.02832 -12.627982,6.6889 -8.465783,4.81198 -13.803335,7.52795 -15.249622,7.75967 -0.740177,0.11859 -1.649942,-0.23467 -5.405469,-2.09897 -3.558025,-1.76626 -19.031694,-10.42074 -23.596473,-13.1976 -0.472943,-0.28771 -0.859896,-0.40657 -0.859896,-0.26414 0,0.73128 18.367874,11.52676 26.061459,15.31728 2.251231,1.10915 3.090195,1.40017 3.704167,1.28489 0.436562,-0.082 2.639219,-1.08499 4.894792,-2.22893 z m -0.89126,-2.38492 c 2.018161,-1.00034 6.645947,-3.51525 10.283968,-5.58869 10.153772,-5.787 12.827255,-7.1446 14.069666,-7.1446 2.24241,0 6.75186,2.07038 17.28346,7.93517 8.68317,4.83545 12.25744,6.61692 13.27593,6.61692 0.8218,0 5.26754,-2.15027 10.51731,-5.0869 6.05717,-3.38828 18.40003,-10.5778 18.87082,-10.99196 0.43183,-0.37988 0.46302,-1.53803 0.46302,-17.18941 0,-13.30761 0.0685,-16.75944 0.33073,-16.67271 0.22453,0.0743 0.37321,0.99467 0.46302,2.86632 0.15946,3.323 0.52018,2.62853 0.52556,-1.01181 l 0.004,-2.44583 -2.3151,-1.49471 c -3.87727,-2.50328 -7.36437,-4.62253 -12.76615,-7.75846 -11.44752,-6.64571 -13.36835,-7.78487 -13.52722,-8.0224 -0.24379,-0.36449 -0.52456,-9.12664 -0.7222,-22.53795 -0.14841,-10.07023 -0.23278,-11.85849 -0.56918,-12.06393 -2.25794,-1.37895 -23.73709,-13.74625 -26.45276,-15.23102 -1.96253,-1.073 -3.87204,-1.9509 -4.24335,-1.9509 -0.69379,0 -6.208846,2.93011 -16.662374,8.8526 -6.790074,3.84695 -10.67805,6.34815 -12.309798,7.91909 -1.954155,1.88134 -2.002283,2.22476 -2.265957,16.16893 -0.250194,13.23128 -0.425699,15.34529 -1.440177,17.34726 -1.365338,2.69437 -3.014431,3.88663 -14.808027,10.70592 -10.000486,5.78247 -12.119205,7.10603 -12.943653,8.08583 l -0.682389,0.81097 v 16.76829 c 0,12.16153 0.08436,16.95344 0.307053,17.4422 0.353803,0.77652 0.625313,0.85464 0.858479,0.24702 0.09785,-0.25499 0.358541,-0.37597 0.647382,-0.30044 0.265962,0.0695 4.699593,2.54115 9.852514,5.49245 11.55128,6.61591 18.182646,10.05155 19.401198,10.05155 0.562206,0 2.2242,-0.66369 4.554615,-1.8188 z m -5.723324,-0.45894 c -1.962414,-0.52052 -3.892489,-1.44608 -8.741736,-4.19206 -5.399976,-3.05784 -8.94116,-5.42268 -10.718556,-7.15798 -0.797924,-0.77902 -1.65711,-1.45553 -1.909302,-1.50335 -0.739884,-0.14029 -0.710594,-1.41905 0.06273,-2.73863 1.259678,-2.14947 4.908702,-4.78657 14.692283,-10.6179 13.646218,-8.13359 30.958964,-17.44979 33.23708,-17.88528 0.554507,-0.106 0.901049,0.037 1.471226,0.6072 0.851613,0.85162 1.027896,1.75304 0.282841,1.44632 -1.050854,-0.43262 -1.366487,-0.38486 -3.512568,0.53153 -7.114518,3.03794 -36.419738,19.74416 -41.652865,23.74532 -1.43862,1.09995 -3.319465,2.90165 -3.319465,3.17979 0,0.12372 0.68461,-0.29811 1.521355,-0.9374 5.299497,-4.04897 23.440567,-14.78035 38.298438,-22.65552 6.305398,-3.34207 7.359333,-3.75982 7.962892,-3.15626 1.159436,1.15943 1.792488,10.44273 1.347883,19.76582 l -0.320145,6.71323 -1.055731,0.9165 c -2.911687,2.52767 -16.22666,10.11633 -22.859007,13.02813 -3.052927,1.34033 -3.11937,1.35297 -4.787351,0.91054 z m 55.694798,-1.26195 c -5.57019,-2.94672 -19.27788,-11.18395 -21.1532,-12.71139 -0.91787,-0.7476 -1.1554,-2.21597 -1.47885,-9.14201 -0.27553,-5.89976 -0.13943,-12.46442 0.31554,-15.22046 0.34349,-2.08069 0.80435,-2.77812 1.83579,-2.77812 2.21257,0 11.81567,4.96384 28.78144,14.87712 15.55769,9.09052 19.34823,11.69016 19.34823,13.26945 0,1.06027 -2.43548,2.91588 -8.66012,6.5982 -5.80428,3.43365 -13.15244,6.79767 -14.83348,6.79082 -0.68919,-0.003 -1.92331,-0.50283 -4.15535,-1.68361 z m 24.07708,-16.25439 c -9.27281,-6.1979 -35.09987,-21.0916 -42.13173,-24.29612 -3.19465,-1.45585 -4.23064,-1.00207 -4.99291,2.18697 -0.55273,2.31238 -0.98148,11.23318 -0.79269,16.49289 0.11203,3.12115 0.0788,4.53287 -0.10235,4.3517 -0.49958,-0.49958 -0.77958,-4.18572 -0.78778,-10.37106 -0.0126,-9.51883 0.59595,-13.20414 2.43614,-14.75256 0.64711,-0.5445 1.00231,-0.66082 1.63286,-0.53471 2.99366,0.59874 25.4445,13.13111 41.16658,22.97977 6.37501,3.99344 8.20209,5.36729 8.20209,6.16745 0,0.35003 -0.0893,0.62939 -0.19844,0.62081 -0.10914,-0.009 -2.10344,-1.28889 -4.43177,-2.84514 z M 46.131712,212.53385 c -1.058867,-0.2853 -1.360022,-1.72357 -1.681999,-8.033 -0.313388,-6.14113 0.01369,-15.72223 0.606006,-17.75157 0.424165,-1.45323 2.025996,-2.92187 5.779884,-5.29928 7.388673,-4.67939 20.009151,-11.54111 21.227087,-11.54111 1.16413,0 13.576867,6.81414 18.452444,10.12971 2.851312,1.939 4.12197,3.36888 3.965858,4.4628 -0.06588,0.46167 -1.029029,1.21611 -3.923776,3.07353 -8.802602,5.6482 -35.50275,21.38023 -40.625095,23.93676 -2.105311,1.05074 -2.900519,1.26462 -3.800409,1.02216 z m 106.205718,-1.56721 c -15.38011,-8.07899 -39.87567,-23.05979 -42.82889,-26.19295 l -0.76013,-0.80645 0.54257,-0.87761 c 0.29841,-0.48269 1.35485,-1.49441 2.34763,-2.24828 4.24827,-3.2259 18.04679,-10.66787 19.77982,-10.66787 1.81395,0 15.90248,7.86062 24.81457,13.84516 2.41849,1.62404 2.70269,3.13406 2.69763,14.33296 -0.003,6.90532 -0.0856,8.85026 -0.44716,10.54675 -0.54185,2.5424 -1.17645,3.71663 -2.05794,3.80791 -0.38944,0.0403 -2.02262,-0.65465 -4.0881,-1.73962 z M 43.481627,209.407 c -0.566425,-2.10355 -0.804902,-6.2261 -0.807878,-13.96582 -0.0032,-8.32249 0.197377,-10.67556 1.003502,-11.77253 0.907264,-1.2346 6.967476,-5.14877 15.659131,-10.11392 7.561492,-4.31954 11.194119,-6.13292 12.285682,-6.13292 2.093047,0 20.017681,9.91768 23.190603,12.83134 0.984856,0.90438 1.364978,1.82658 0.752899,1.82658 -0.155825,0 -1.019028,-0.51814 -1.91823,-1.15142 -5.528926,-3.89386 -20.007763,-11.81317 -21.597953,-11.81317 -1.217197,0 -7.404525,3.24181 -16.54946,8.67096 -6.881791,4.08558 -10.859172,6.80059 -11.204627,7.64841 -0.816661,2.00426 -1.105119,13.02613 -0.542647,20.73431 0.160198,2.19536 0.227554,4.05528 0.149682,4.13315 -0.07787,0.0779 -0.26719,-0.32487 -0.420704,-0.89497 z M 106.8126,183.03426 c -0.35361,-1.40891 1.50093,-3.39825 5.43838,-5.83365 4.79568,-2.96623 18.39207,-10.20213 19.16999,-10.20213 0.54442,0 26.22259,14.60419 26.97249,15.34032 0.61011,0.59891 0.39073,1.47206 -0.30358,1.20824 -0.25343,-0.0963 -6.28111,-3.51374 -13.39483,-7.59432 -11.95273,-6.85633 -12.98495,-7.39604 -13.60491,-7.11357 -1.15707,0.5272 -14.90308,7.98012 -16.98501,9.20907 -3.21709,1.89904 -5.26606,3.47229 -5.96576,4.58069 -0.75399,1.1944 -1.10204,1.30074 -1.32677,0.40535 z m -2.18173,-4.56768 c -0.55763,-0.45458 -0.61768,-0.80408 -0.87946,-5.1181 -0.40799,-6.72377 -0.40885,-42.08536 -0.001,-46.53745 0.33087,-3.61282 0.75838,-5.20854 1.46845,-5.48102 0.61599,-0.23638 2.07627,0.32656 6.24057,2.40575 7.39379,3.69164 16.54963,9.43793 16.79966,10.54363 0.0712,0.31472 0.26583,1.10799 0.43259,1.76284 0.44059,1.73014 0.61579,20.0505 0.2389,24.98095 -0.16593,2.17062 -0.42365,4.17448 -0.57273,4.45303 -0.6969,1.30217 -20.2377,13.00918 -22.26289,13.33782 -0.60779,0.0986 -1.04365,-0.005 -1.46396,-0.34745 z M 93.599925,177.1014 c -7.191836,-3.47602 -18.317172,-10.74428 -18.806659,-12.28652 -0.106445,-0.33537 -0.329052,-0.46695 -0.648636,-0.38337 -0.628534,0.16436 -0.726952,-0.12711 -1.085204,-3.21395 -0.626778,-5.40056 -0.305329,-28.91001 0.407038,-29.7691 0.417245,-0.50319 14.301088,-8.71546 17.777944,-10.51563 1.614883,-0.83612 3.351808,-1.59819 3.859833,-1.6935 1.286713,-0.24139 2.707469,0.40411 3.306757,1.50237 0.454194,0.83236 0.480048,2.14516 0.470665,23.89948 -0.01222,28.32379 -0.317772,33.49321 -1.990206,33.67056 -0.355134,0.0377 -1.836324,-0.507 -3.291532,-1.21034 z M 74.810237,134.46298 c 1.076057,-2.08086 18.51349,-12.19082 21.782784,-12.62932 0.944228,-0.12665 1.064847,-0.20894 0.790619,-0.53936 -0.572045,-0.68927 -2.692838,-0.26719 -5.214869,1.03788 -1.250157,0.64691 -5.815123,3.29523 -10.144368,5.88516 l -7.871354,4.70896 v 1.16109 c 0,0.6386 0.05647,1.16109 0.125497,1.16109 0.06902,0 0.308285,-0.35348 0.531691,-0.7855 z m 27.823453,41.85728 c -0.72505,-1.17315 -1.22439,-14.79129 -1.21978,-33.26658 0.004,-16.42635 0.19686,-20.81941 0.97292,-22.17222 0.63399,-1.10516 2.57151,-2.10678 3.64851,-1.88612 1.3697,0.28062 5.88713,2.40682 10.16817,4.78582 8.0352,4.46521 12.51766,7.44431 13.37579,8.88972 0.77341,1.3027 -0.16311,1.13672 -2.19009,-0.38814 -5.0475,-3.79716 -18.35928,-11.06229 -21.07748,-11.50339 -1.02482,-0.16631 -2.50356,0.45607 -3.00987,1.2668 -0.57646,0.92305 -0.82358,4.63766 -1.00155,15.05441 -0.15999,9.36477 0.22211,30.8103 0.64966,36.46241 0.17581,2.32415 0.0569,3.36106 -0.31628,2.75729 z m 29.60378,-10.89573 c -0.27079,-0.43814 -0.40286,-4.01336 -0.68847,-18.63719 -0.20269,-10.37786 -0.19904,-14.33744 0.0134,-14.54987 0.21276,-0.21276 0.34928,-0.19896 0.50371,0.0509 0.21158,0.34235 0.39808,6.47379 0.73184,24.06062 0.12746,6.71617 0.0955,9.32656 -0.11416,9.32656 -0.16014,0 -0.36098,-0.11296 -0.44631,-0.25103 z"
           id="path7" /><path
           style="fill:#8f7320"
           d="m 12.240547,179.03702 v -73.42188 h 85.989586 85.989587 v 73.42188 73.42187 H 98.230133 12.240547 Z m 121.360973,57.56576 c 0.90036,-0.42594 4.47224,-2.40802 7.9375,-4.40462 9.54926,-5.50203 18.85203,-10.9261 20.25726,-11.81119 l 1.25677,-0.79157 V 201.41285 183.2303 l -0.59531,-0.53858 c -1.47964,-1.33864 -6.63308,-4.49998 -16.7349,-10.26592 -6.1501,-3.51038 -7.73439,-4.55385 -10.13102,-6.67268 -1.80994,-1.60014 -1.94132,-2.82877 -2.13982,-20.01067 l -0.16457,-14.24457 -0.70159,-0.60317 c -1.47306,-1.26643 -23.55681,-13.85423 -28.50249,-16.24649 l -2.48116,-1.20016 -3.736548,1.89024 c -7.077274,3.58024 -19.690077,10.77908 -24.304996,13.87224 -1.271707,0.85237 -2.508729,1.84971 -2.748938,2.21631 -0.626007,0.95541 -0.841311,3.88316 -1.283085,17.44767 -0.499242,15.32905 -0.648611,16.01101 -4.074845,18.60433 -2.171636,1.64372 -4.42563,3.02427 -11.673646,7.15003 -7.397677,4.21095 -12.393312,7.5566 -13.082755,8.76171 -0.48227,0.84299 -0.536236,1.61622 -0.694669,9.95322 -0.239332,12.59412 0.04195,24.05339 0.617173,25.14299 0.82585,1.56436 2.884987,3.0367 11.440459,8.18025 9.57878,5.75875 18.035006,10.17676 19.875855,10.38425 1.022794,0.11528 1.516345,-0.083 5.310246,-2.13281 2.300458,-1.24295 6.623431,-3.64439 9.606608,-5.33654 2.983178,-1.69215 7.575654,-4.16306 10.205504,-5.4909 l 4.781547,-2.41427 4.87575,2.60477 c 2.68166,1.43262 7.7503,4.24336 11.26364,6.24609 8.3575,4.76406 12.35534,6.77389 13.58814,6.83115 0.21829,0.0101 1.13354,-0.33006 2.03389,-0.75601 z m -65.930763,-3.13945 c -2.037292,-1.00387 -4.83526,-2.45298 -6.217708,-3.22025 -5.293038,-2.93764 -18.674679,-10.68715 -19.122399,-11.07406 -0.290094,-0.2507 -0.375098,-0.49971 -0.222628,-0.65218 0.15247,-0.15247 3.816963,1.803 9.597398,5.12143 5.142915,2.95245 11.54233,6.49109 14.220924,7.86366 4.35224,2.23019 4.987056,2.48241 5.969253,2.37171 1.422874,-0.16038 6.318826,-2.6264 15.032265,-7.57154 10.14473,-5.75744 12.436862,-6.91612 13.681648,-6.91612 2.03844,0 7.26344,2.4367 17.80047,8.30134 7.48532,4.16613 11.71337,6.28308 12.59508,6.30626 0.75533,0.0199 5.8415,-2.45119 11.12403,-5.40449 5.55172,-3.10378 18.38277,-10.57108 18.82813,-10.95742 0.59799,-0.51876 0.77291,-0.45191 0.77291,0.29534 0,0.81161 0.21724,0.66915 -10.18645,6.6801 -12.88958,7.44722 -18.96244,10.65387 -20.17665,10.65387 -0.80267,0 -7.35682,-3.33059 -14.61606,-7.42737 -8.85901,-4.99961 -12.88068,-6.89931 -15.34584,-7.24884 -1.08356,-0.15364 -1.440426,-0.0393 -3.968747,1.27146 -1.527969,0.79216 -6.052344,3.30753 -10.054167,5.58971 -8.197457,4.67489 -13.72552,7.49739 -15.087844,7.7035 -0.759405,0.1149 -1.564213,-0.1786 -4.623615,-1.68611 z m 62.418373,-2.19417 c -3.28168,-0.94164 -24.85143,-13.58835 -25.46225,-14.92895 -0.21853,-0.47963 -0.31133,-3.27374 -0.31133,-9.37407 0,-8.99051 0.2795,-13.45796 0.94103,-15.04123 0.37316,-0.8931 0.41632,-0.91429 1.59216,-0.78175 2.23257,0.25164 13.47048,6.20968 26.80317,14.21031 13.07746,7.84749 18.81781,11.80105 18.81781,12.96043 0,1.59254 -8.253,7.04845 -17.06563,11.28179 -3.97735,1.9106 -4.22108,1.98735 -5.31496,1.67347 z m -60.963164,-0.86462 c -5.772693,-2.54196 -16.443497,-9.06903 -18.343658,-11.22038 -1.170104,-1.32478 -0.102394,-2.33054 7.495741,-7.06085 11.429136,-7.11534 37.210669,-21.31233 38.70289,-21.31233 0.250862,0 0.675155,0.45175 0.973435,1.03642 0.936374,1.83545 1.202605,4.47845 1.188204,11.79587 -0.01691,8.59243 -0.456554,11.67015 -1.9148,13.40459 -2.138098,2.54307 -22.858377,14.25484 -25.188613,14.23742 -0.510853,-0.004 -1.821793,-0.40015 -2.913199,-0.88074 z M 48.860973,217.69809 c -0.454706,-1.18494 1.738413,-3.69229 5.448325,-6.22897 10.274822,-7.02546 40.557569,-23.83314 42.940678,-23.83314 0.803138,0 1.509324,0.37984 1.509324,0.81183 0,0.0973 -0.474124,0.24042 -1.053608,0.31814 -1.949551,0.26149 -10.658352,4.73754 -23.28806,11.96932 -17.460007,9.99762 -22.822957,13.52789 -24.579673,16.18004 -0.629971,0.95109 -0.845986,1.12416 -0.976986,0.78278 z m 104.004777,-2.43176 c -3.50618,-2.50523 -13.9136,-8.84323 -24.7377,-15.06499 -13.87563,-7.9758 -21.17806,-11.76817 -22.6645,-11.77037 -1.48313,-0.002 -2.21829,1.26335 -3.22695,5.55501 -0.2575,1.0956 -0.26882,1.03683 -0.14188,-0.73648 0.24717,-3.45278 1.20138,-5.63128 2.62283,-5.98804 0.92673,-0.2326 3.61336,0.96759 10.58509,4.72865 14.41865,7.77848 35.91746,20.66773 38.55614,23.11569 0.71275,0.66123 0.92497,1.10518 0.52832,1.10518 -0.1096,0 -0.79421,-0.42509 -1.52135,-0.94465 z M 45.865242,211.25004 c -0.820305,-0.67203 -1.07743,-3.56905 -1.074351,-12.10469 0.0029,-7.96694 0.290708,-11.68874 1.012187,-13.08796 0.362907,-0.70381 1.294079,-1.45159 3.766551,-3.02471 3.762913,-2.39417 11.936519,-7.19965 18.058519,-10.61708 l 4.190724,-2.33935 2.69225,1.33894 c 3.573873,1.77741 10.783551,5.92315 14.213515,8.17313 3.097829,2.0321 5.272163,3.92868 5.272163,4.59868 0,0.9058 -17.59996,11.73356 -35.58646,21.89333 -10.040408,5.67137 -11.29944,6.19021 -12.545098,5.16971 z M 151.09208,209.5117 c -9.1521,-4.6735 -24.82303,-13.85373 -33.94424,-19.88496 -7.87687,-5.20843 -8.04538,-5.43975 -5.62239,-7.71801 2.62959,-2.47252 11.65948,-7.71123 17.74027,-10.29204 l 2.3283,-0.98818 4.0217,2.06601 c 2.21194,1.1363 5.09327,2.65477 6.40296,3.37437 2.71415,1.49128 14.02917,8.21658 14.79139,8.79155 0.63759,0.48095 0.82863,1.67999 1.22214,7.67033 0.37636,5.7293 0.0466,17.0395 -0.52847,18.12396 -0.81658,1.53998 -1.34042,1.44659 -6.41166,-1.14303 z M 43.222315,186.84223 c -0.04057,-2.14034 0.388537,-3.07327 1.941076,-4.2202 3.943457,-2.9132 17.013845,-10.6078 23.006673,-13.54413 3.91658,-1.91902 3.349985,-1.98542 9.290277,1.08867 9.867946,5.10665 18.480968,10.58601 17.765234,11.30174 -0.05863,0.0586 -1.460416,-0.77501 -3.115083,-1.85253 -6.995268,-4.55532 -18.59585,-10.76522 -20.110281,-10.76522 -0.836588,0 -4.319132,1.67382 -9.488829,4.56063 -7.597938,4.24277 -17.065144,10.13 -18.037331,11.21662 -0.243396,0.27204 -0.61953,1.14947 -0.835854,1.94983 l -0.393316,1.45521 z m 63.837455,-4.09401 c -0.2365,-0.6163 0.65737,-1.94907 2.04043,-3.04232 1.96836,-1.5559 5.26968,-3.5409 11.878,-7.14193 7.4668,-4.06883 9.92814,-5.30534 10.51742,-5.28366 0.6363,0.0234 26.87214,15.11032 27.00119,15.52702 0.0563,0.1819 -0.0881,0.33073 -0.32106,0.33073 -0.23291,0 -6.16046,-3.29165 -13.17233,-7.31478 -7.01187,-4.02313 -12.93318,-7.36062 -13.15847,-7.41665 -0.41642,-0.10357 -13.48402,6.80538 -18.51365,9.78832 -1.53507,0.91041 -3.50689,2.36166 -4.44653,3.27262 -1.13006,1.09558 -1.73353,1.51904 -1.825,1.28065 z m -1.3772,-5.36485 c -0.13151,-0.25466 -0.46312,-1.83224 -0.73692,-3.50573 -0.45803,-2.79958 -0.49738,-4.72346 -0.49247,-24.07708 0.005,-20.80286 0.1212,-24.16957 0.93142,-27.05365 0.15331,-0.5457 0.44398,-0.99218 0.64594,-0.99218 0.93302,0 13.94486,7.17554 19.77421,10.90474 1.77214,1.13369 2.06966,1.43511 2.24896,2.2785 0.11365,0.53458 0.2028,7.56378 0.19811,15.62044 l -0.009,14.64847 -0.72792,0.62612 c -1.7249,1.48371 -15.92715,9.67012 -19.40771,11.18694 -2.22529,0.96977 -2.12012,0.95401 -2.42509,0.36343 z m -12.064397,-0.98866 c -4.532625,-1.97871 -13.870351,-7.65995 -16.429035,-9.99572 -1.889883,-1.72523 -2.078259,-2.23292 -2.526381,-6.80885 -0.413996,-4.22745 -0.326872,-16.3023 0.151771,-21.03437 0.37676,-3.72481 0.49736,-4.29216 1.003966,-4.72305 1.033185,-0.87876 12.935412,-7.8914 16.326222,-9.6192 1.819011,-0.92688 3.750973,-1.75535 4.29325,-1.84104 0.883184,-0.13956 1.01309,-0.0844 1.246238,0.52878 0.800108,2.10445 1.211197,20.43866 0.831535,37.08576 -0.261176,11.4518 -0.546022,15.80449 -1.102285,16.84388 -0.384787,0.71898 -1.422248,0.59975 -3.795281,-0.43619 z M 73.213371,156.5678 c -0.09345,-0.49812 -0.128609,-5.13568 -0.07813,-10.30568 0.07227,-7.40306 0.166908,-9.47304 0.445454,-9.7438 0.295067,-0.28682 0.316992,0.57705 0.132292,5.21245 -0.121765,3.05594 -0.207382,7.8482 -0.190259,10.64948 0.01712,2.80127 -0.0072,5.09323 -0.05416,5.09323 -0.04691,0 -0.161747,-0.40756 -0.255195,-0.90568 z m 0.233685,-23.85351 c -0.09459,-0.24649 -0.05219,-0.64033 0.0942,-0.87521 0.332733,-0.53385 14.604088,-9.0503 18.279646,-10.90841 3.310547,-1.67359 4.66089,-1.83797 5.793745,-0.70532 0.808591,0.80845 0.702107,1.20679 -0.194349,0.72702 -0.861608,-0.46112 -2.607003,-0.17573 -4.584355,0.74958 -1.856175,0.86861 -16.918134,9.74518 -18.354595,10.81704 -0.773537,0.5772 -0.88003,0.59731 -1.034296,0.1953 z m 54.133464,-0.6591 c -1.89282,-1.41828 -7.70948,-4.96513 -12.07989,-7.366 -4.72385,-2.59503 -8.46743,-4.25475 -9.59758,-4.25511 -1.78162,-5.6e-4 -3.41365,1.5842 -3.45818,3.35803 -0.0102,0.40741 -0.12622,0.97887 -0.25776,1.26991 -0.15412,0.341 -0.18609,-0.17645 -0.0899,-1.45521 0.15814,-2.10221 0.51661,-2.86859 1.78461,-3.81529 1.27734,-0.95367 2.3881,-0.69627 7.22958,1.67531 8.27858,4.05524 18.33957,10.32447 18.33957,11.4278 0,0.43522 -0.42215,0.24576 -1.87045,-0.83944 z"
           id="path6" /><path
           style="fill:#6a6146"
           d="m 12.240547,179.03702 v -73.42188 h 85.989586 85.989587 v 73.42188 73.42187 H 98.230133 12.240547 Z m 64.822919,56.53012 c 2.255573,-1.14726 7.893677,-4.1929 12.529119,-6.76809 4.635443,-2.5752 9.307628,-5.11739 10.382634,-5.64932 l 1.954551,-0.96714 1.9205,1.03107 c 1.05627,0.56708 5.84955,3.27823 10.65174,6.02477 10.76035,6.15422 15.43673,8.52406 16.82041,8.52406 1.11149,0 3.29213,-1.03706 10.0348,-4.77229 7.91248,-4.38328 20.81293,-12.02001 21.44961,-12.69762 l 0.6431,-0.68443 0.0796,-17.90432 c 0.0526,-11.83083 -0.0136,-18.21844 -0.195,-18.83035 -0.32992,-1.11272 0.35202,-0.66169 -11.42648,-7.5573 -9.81318,-5.74503 -14.84009,-8.85885 -16.34164,-10.12253 l -0.89606,-0.75411 -0.37562,-14.13251 c -0.49379,-18.57843 -0.51509,-18.91722 -1.23142,-19.58792 -1.40118,-1.31193 -19.78296,-12.02491 -26.80851,-15.62412 l -4.54308,-2.32743 -1.13645,0.40096 c -3.11829,1.1002 -30.154673,16.58473 -30.491938,17.46363 -0.259424,0.67605 -0.66539,8.10102 -0.961249,17.58091 -0.349223,11.18976 -0.64515,14.22182 -1.634934,16.75151 -0.379536,0.97001 -1.670101,1.82385 -11.061144,7.31806 -10.789849,6.31258 -15.324486,9.35205 -15.998026,10.72314 -0.477091,0.97119 -0.540978,1.96246 -0.775876,12.03854 -0.288786,12.38767 0.04176,24.66991 0.680305,25.27814 0.485614,0.46257 15.189308,9.12583 20.988389,12.36614 6.945476,3.88087 9.882008,5.26096 10.847917,5.09821 0.436562,-0.0736 2.639219,-1.07241 4.894792,-2.21966 z m 49.822204,-2.41109 c -2.29987,-1.15771 -6.74142,-3.55454 -9.87012,-5.32629 -9.05927,-5.13018 -13.93968,-7.38086 -16.14046,-7.44344 -1.021766,-0.0291 -4.151382,1.57106 -13.175299,6.73625 -8.977571,5.13867 -14.422141,7.87382 -15.673549,7.87382 -1.655806,0 -7.769706,-3.18953 -23.074756,-12.03775 -6.146914,-3.55368 -7.366986,-4.36641 -6.554848,-4.36641 0.141996,0 4.595305,2.48559 9.896244,5.52353 12.064896,6.91434 18.028554,9.95591 19.447748,9.9187 1.317262,-0.0345 6.179219,-2.46844 15.429958,-7.72424 3.863966,-2.19531 8.357973,-4.67421 9.986683,-5.50867 l 2.961289,-1.51719 1.50318,0.31435 c 1.90609,0.39861 8.18076,3.46824 16.31985,7.98384 7.26511,4.0307 12.40883,6.62009 13.15055,6.62009 1.12307,0 9.1437,-4.30297 23.09693,-12.39121 4.38885,-2.54408 6.97055,-3.89556 7.13241,-3.73369 0.16186,0.16186 0.11413,0.39041 -0.13185,0.63142 -0.4761,0.46647 -14.94921,8.87278 -20.89075,12.13382 -4.44729,2.44092 -8.45439,4.418 -8.95428,4.418 -0.15254,0 -2.15906,-0.94722 -4.45893,-2.10493 z m -58.206979,-3.62444 c -11.394077,-5.96009 -17.544393,-9.9398 -17.544393,-11.35253 0,-0.73146 1.315396,-1.7107 6.779427,-5.04691 15.087324,-9.21197 37.492129,-21.79203 38.811123,-21.79203 0.679497,0 0.920451,0.91587 1.264408,4.806 0.351651,3.97716 0.1982,12.48392 -0.308838,17.12084 l -0.329042,3.00912 -1.670512,1.22421 c -5.450485,3.9943 -22.063805,13.52733 -23.574234,13.52733 -0.312357,0 -1.85493,-0.67321 -3.427939,-1.49603 z m 61.566029,1.30602 c -2.75068,-1.02737 -22.73607,-12.71257 -24.93698,-14.58032 -0.42496,-0.36063 -0.46302,-1.16781 -0.46302,-9.81772 0,-9.05737 0.24424,-13.27893 0.83176,-14.37673 0.21793,-0.4072 0.44963,-0.48009 1.11086,-0.34947 2.60206,0.51402 29.35085,15.3972 38.63756,21.49816 3.31565,2.17823 6.25107,4.62982 6.25107,5.22074 0,0.51371 -1.93107,2.4083 -3.6103,3.54211 -1.89242,1.27775 -9.87203,5.73298 -13.78603,7.69712 -2.61669,1.31311 -3.19436,1.48006 -4.03492,1.16611 z M 49.017632,217.03497 c 0,-0.81891 1.556153,-2.64304 3.571875,-4.18698 4.970174,-3.80689 24.710974,-15.33363 37.306251,-21.78328 6.182712,-3.16598 7.558373,-3.69838 8.193687,-3.17112 0.601343,0.49907 0.499326,0.66197 -0.45515,0.72678 -1.795843,0.12195 -14.653133,6.93295 -29.963538,15.87284 -10.500797,6.13152 -14.914962,9.06393 -17.001431,11.29438 -1.215596,1.29947 -1.651694,1.62882 -1.651694,1.24738 z m 101.599998,-3.38491 c -8.94952,-6.05681 -37.17141,-22.24307 -43.08013,-24.70799 -2.24124,-0.93496 -3.02592,-0.84033 -3.88341,0.46834 -0.29104,0.44417 -0.67247,1.03031 -0.84762,1.30252 -0.21689,0.33708 -0.20101,0.084 0.0498,-0.79353 0.20253,-0.70864 0.64349,-1.58286 0.97991,-1.94269 0.8868,-0.94852 2.05507,-0.69949 5.9795,1.27461 12.75468,6.41597 41.90411,23.69483 44.08412,26.13166 0.86312,0.96481 0.13936,0.58268 -3.28216,-1.73292 z M 46.673496,210.10444 c -0.774363,-0.83118 -0.840656,-1.41002 -1.011021,-8.82786 -0.129871,-5.65465 -0.07214,-7.65112 0.32751,-11.32688 l 0.485169,-4.46228 2.39306,-1.48028 c 4.264882,-2.63815 16.402778,-9.52065 19.746919,-11.19702 3.174423,-1.59129 3.283135,-1.62436 4.330891,-1.31738 1.31087,0.38407 5.496394,2.59453 9.938275,5.24861 6.275279,3.74955 9.789584,6.32811 9.789584,7.18292 0,0.80164 -2.979793,2.87573 -12.261612,8.53472 -14.783704,9.01341 -31.286723,18.19574 -32.702442,18.19574 -0.288017,0 -0.754367,-0.24763 -1.036333,-0.55029 z m 105.049964,-1.28753 c -9.16744,-4.52976 -26.32194,-14.36896 -35.76624,-20.51422 -3.93075,-2.55767 -5.29167,-3.70134 -5.29167,-4.44693 0,-0.90677 2.30327,-2.83239 6.03545,-5.04589 4.06311,-2.40976 14.1435,-7.57806 14.78046,-7.57806 0.87723,0 12.59186,6.54635 19.1292,10.68975 2.11389,1.3398 4.39515,2.75384 5.06947,3.14231 0.96139,0.55384 1.26042,0.89341 1.38533,1.57306 0.6694,3.64258 0.90241,13.94831 0.42613,18.84717 -0.25077,2.57929 -1.03772,4.89184 -1.73535,5.09952 -0.15694,0.0467 -1.9717,-0.74829 -4.03278,-1.76671 z M 43.582145,185.0075 c 0.08256,-0.49977 0.34485,-1.12387 0.582871,-1.38688 2.282219,-2.52182 25.442719,-15.83291 27.53623,-15.82596 1.740063,0.006 16.407259,8.04619 22.097116,12.11342 1.318801,0.94271 1.78701,1.78967 0.529167,0.95723 -6.918002,-4.57833 -20.884277,-12.27933 -22.269383,-12.27933 -2.278634,0 -27.040088,14.59379 -28.22232,16.63354 l -0.403785,0.69666 z m 101.479235,-9.28595 c -7.05776,-4.06413 -13.07511,-7.39177 -13.37189,-7.39474 -0.61066,-0.006 -15.01117,7.68067 -19.01681,10.15091 -1.4427,0.8897 -3.2584,2.2453 -4.0349,3.01245 -1.2254,1.21064 -1.41181,1.31638 -1.41181,0.80079 0,-0.90282 2.69999,-3.27992 5.85037,-5.15073 3.06748,-1.82158 12.95242,-7.23122 16.16516,-8.84655 l 2.08387,-1.04775 1.77478,0.94162 c 0.97613,0.51788 7.00668,3.94478 13.40123,7.61533 10.07079,5.78075 12.61246,7.38321 11.61278,7.32159 -0.12126,-0.007 -5.99501,-3.33879 -13.05278,-7.40292 z m -52.255205,-0.61598 c -3.782834,-1.83662 -7.318497,-3.89675 -11.903532,-6.93586 -5.530546,-3.66582 -5.05654,-3.0378 -5.576844,-7.38894 -0.55701,-4.65812 -0.660457,-17.77594 -0.171093,-21.69584 0.551903,-4.42084 0.506524,-4.29749 1.873346,-5.09206 0.674321,-0.392 2.71432,-1.67807 4.533331,-2.85793 7.353916,-4.76994 13.59783,-8.14296 14.81188,-8.00151 0.561788,0.0654 0.704575,0.28677 0.988206,1.53171 0.692779,3.04083 0.933087,12.03124 0.777936,29.10417 -0.18293,20.12982 -0.410195,22.76001 -1.965892,22.75174 -0.251307,-0.001 -1.766609,-0.6383 -3.367338,-1.41548 z m 13.228875,0.45826 c -0.2373,-0.5636 -0.56128,-1.56051 -0.71995,-2.21535 -0.41622,-1.71775 -0.59975,-38.4714 -0.22131,-44.31902 0.3271,-5.05424 0.51513,-6.0456 1.17065,-6.1719 0.62726,-0.12085 6.99154,3.14112 14.57627,7.47097 3.48629,1.99019 6.40332,3.68276 6.48229,3.76125 0.18703,0.1859 0.4669,4.72564 0.69941,11.34515 0.18977,5.40268 -0.26861,18.95161 -0.66686,19.71146 -0.241,0.45982 -14.03726,8.7996 -16.89468,10.21277 -1.05845,0.52347 -2.39019,1.01423 -2.95941,1.09058 -0.99667,0.13368 -1.05091,0.10091 -1.46641,-0.88591 z m 22.51148,-42.92623 c -0.27944,-0.45214 -5.56769,-3.82333 -9.84379,-6.27529 -5.12023,-2.93599 -8.85828,-4.83744 -11.12455,-5.65879 -1.94089,-0.70342 -2.98588,-0.49661 -4.30424,0.85185 -0.77947,0.79725 -0.81048,0.8058 -0.81048,0.22345 0,-0.70237 1.35646,-2.07269 2.28158,-2.30488 1.1756,-0.29506 2.53402,0.19339 7.47576,2.68808 4.84726,2.44699 10.11547,5.47977 13.72138,7.89908 1.90464,1.27787 3.56284,2.80613 3.04473,2.80613 -0.16416,0 -0.36234,-0.10334 -0.44039,-0.22963 z m -54.922648,-0.50761 c 0,-0.67683 17.539281,-11.09529 20.345546,-12.0854 1.613997,-0.56945 2.825091,-0.51923 3.489004,0.14468 0.682085,0.68209 0.537701,0.87083 -0.394921,0.51625 -0.939483,-0.35719 -2.634876,0.0298 -4.702318,1.07349 -0.880266,0.44436 -5.391348,3.06146 -10.024625,5.81578 -4.633278,2.75432 -8.489064,5.00785 -8.568414,5.00785 -0.07935,0 -0.144272,-0.21269 -0.144272,-0.47265 z"
           id="path5" /><path
           style="fill:#665111"
           d="m 12.240547,179.03702 v -73.42188 h 85.989586 85.989587 v 73.42188 73.42187 H 98.230133 12.240547 Z m 64.822919,56.53012 c 2.255573,-1.14726 7.893677,-4.1929 12.529119,-6.76809 4.635443,-2.5752 9.307628,-5.11739 10.382634,-5.64932 l 1.954551,-0.96714 1.9205,1.03107 c 1.05627,0.56708 5.84955,3.27823 10.65174,6.02477 10.76035,6.15422 15.43673,8.52406 16.82041,8.52406 1.11149,0 3.29213,-1.03706 10.0348,-4.77229 7.91248,-4.38328 20.81293,-12.02001 21.44961,-12.69762 l 0.6431,-0.68443 0.0796,-17.90432 c 0.0526,-11.83083 -0.0136,-18.21844 -0.195,-18.83035 -0.32992,-1.11272 0.35202,-0.66169 -11.42648,-7.5573 -9.81318,-5.74503 -14.84009,-8.85885 -16.34164,-10.12253 l -0.89606,-0.75411 -0.37562,-14.13251 c -0.49379,-18.57843 -0.51509,-18.91722 -1.23142,-19.58792 -1.40118,-1.31193 -19.78296,-12.02491 -26.80851,-15.62412 l -4.54308,-2.32743 -1.13645,0.40096 c -3.11829,1.1002 -30.154673,16.58473 -30.491938,17.46363 -0.259424,0.67605 -0.66539,8.10102 -0.961249,17.58091 -0.349223,11.18976 -0.64515,14.22182 -1.634934,16.75151 -0.379536,0.97001 -1.670101,1.82385 -11.061144,7.31806 -10.789849,6.31258 -15.324486,9.35205 -15.998026,10.72314 -0.477091,0.97119 -0.540978,1.96246 -0.775876,12.03854 -0.288786,12.38767 0.04176,24.66991 0.680305,25.27814 0.485614,0.46257 15.189308,9.12583 20.988389,12.36614 6.945476,3.88087 9.882008,5.26096 10.847917,5.09821 0.436562,-0.0736 2.639219,-1.07241 4.894792,-2.21966 z m -8.384775,-6.03553 c -11.394077,-5.96009 -17.544393,-9.9398 -17.544393,-11.35253 0,-0.73146 1.315396,-1.7107 6.779427,-5.04691 15.087324,-9.21197 37.492129,-21.79203 38.811123,-21.79203 0.679497,0 0.920451,0.91587 1.264408,4.806 0.351651,3.97716 0.1982,12.48392 -0.308838,17.12084 l -0.329042,3.00912 -1.670512,1.22421 c -5.450485,3.9943 -22.063805,13.52733 -23.574234,13.52733 -0.312357,0 -1.85493,-0.67321 -3.427939,-1.49603 z m 61.566029,1.30602 c -2.75068,-1.02737 -22.73607,-12.71257 -24.93698,-14.58032 -0.42496,-0.36063 -0.46302,-1.16781 -0.46302,-9.81772 0,-9.05737 0.24424,-13.27893 0.83176,-14.37673 0.21793,-0.4072 0.44963,-0.48009 1.11086,-0.34947 2.60206,0.51402 29.35085,15.3972 38.63756,21.49816 3.31565,2.17823 6.25107,4.62982 6.25107,5.22074 0,0.51371 -1.93107,2.4083 -3.6103,3.54211 -1.89242,1.27775 -9.87203,5.73298 -13.78603,7.69712 -2.61669,1.31311 -3.19436,1.48006 -4.03492,1.16611 z M 46.673496,210.10444 c -0.774363,-0.83118 -0.840656,-1.41002 -1.011021,-8.82786 -0.129871,-5.65465 -0.07214,-7.65112 0.32751,-11.32688 l 0.485169,-4.46228 2.39306,-1.48028 c 4.264882,-2.63815 16.402778,-9.52065 19.746919,-11.19702 3.174423,-1.59129 3.283135,-1.62436 4.330891,-1.31738 1.31087,0.38407 5.496394,2.59453 9.938275,5.24861 6.275279,3.74955 9.789584,6.32811 9.789584,7.18292 0,0.80164 -2.979793,2.87573 -12.261612,8.53472 -14.783704,9.01341 -31.286723,18.19574 -32.702442,18.19574 -0.288017,0 -0.754367,-0.24763 -1.036333,-0.55029 z m 105.049964,-1.28753 c -9.16744,-4.52976 -26.32194,-14.36896 -35.76624,-20.51422 -3.93075,-2.55767 -5.29167,-3.70134 -5.29167,-4.44693 0,-0.90677 2.30327,-2.83239 6.03545,-5.04589 4.06311,-2.40976 14.1435,-7.57806 14.78046,-7.57806 0.87723,0 12.59186,6.54635 19.1292,10.68975 2.11389,1.3398 4.39515,2.75384 5.06947,3.14231 0.96139,0.55384 1.26042,0.89341 1.38533,1.57306 0.6694,3.64258 0.90241,13.94831 0.42613,18.84717 -0.25077,2.57929 -1.03772,4.89184 -1.73535,5.09952 -0.15694,0.0467 -1.9717,-0.74829 -4.03278,-1.76671 z M 92.806175,175.10557 c -3.782834,-1.83662 -7.318497,-3.89675 -11.903532,-6.93586 -5.530546,-3.66582 -5.05654,-3.0378 -5.576844,-7.38894 -0.55701,-4.65812 -0.660457,-17.77594 -0.171093,-21.69584 0.551903,-4.42084 0.506524,-4.29749 1.873346,-5.09206 0.674321,-0.392 2.71432,-1.67807 4.533331,-2.85793 7.353916,-4.76994 13.59783,-8.14296 14.81188,-8.00151 0.561788,0.0654 0.704575,0.28677 0.988206,1.53171 0.692779,3.04083 0.933087,12.03124 0.777936,29.10417 -0.18293,20.12982 -0.410195,22.76001 -1.965892,22.75174 -0.251307,-0.001 -1.766609,-0.6383 -3.367338,-1.41548 z m 13.228875,0.45826 c -0.2373,-0.5636 -0.56128,-1.56051 -0.71995,-2.21535 -0.41622,-1.71775 -0.59975,-38.4714 -0.22131,-44.31902 0.3271,-5.05424 0.51513,-6.0456 1.17065,-6.1719 0.62726,-0.12085 6.99154,3.14112 14.57627,7.47097 3.48629,1.99019 6.40332,3.68276 6.48229,3.76125 0.18703,0.1859 0.4669,4.72564 0.69941,11.34515 0.18977,5.40268 -0.26861,18.95161 -0.66686,19.71146 -0.241,0.45982 -14.03726,8.7996 -16.89468,10.21277 -1.05845,0.52347 -2.39019,1.01423 -2.95941,1.09058 -0.99667,0.13368 -1.05091,0.10091 -1.46641,-0.88591 z"
           id="path4" /><path
           style="fill:#46380b"
           d="m 12.240547,179.03702 v -73.42188 h 85.989586 85.989587 v 73.42188 73.42187 H 98.230133 12.240547 Z m 63.874845,57.84438 c 2.19493,-1.14606 6.72922,-3.60395 10.076199,-5.46198 3.346979,-1.85802 8.257665,-4.50176 10.912636,-5.87497 l 4.827223,-2.49674 3.77174,2.04036 c 2.07445,1.12219 6.92689,3.82907 10.78319,6.01528 3.85631,2.1862 8.72384,4.86769 10.81674,5.95886 3.71435,1.93654 3.82816,1.97599 4.7625,1.65083 1.87523,-0.6526 11.03848,-5.75219 21.32967,-11.87052 8.01244,-4.76357 9.62686,-5.83556 10.06533,-6.68346 0.31774,-0.61445 0.43613,-3.41464 0.65025,-15.38038 0.25942,-14.49618 0.10447,-21.51596 -0.49984,-22.64512 -0.33326,-0.62271 -3.81341,-2.85729 -12.8611,-8.25802 -5.67151,-3.38544 -14.65023,-8.88921 -14.91896,-9.14503 -0.35858,-0.34135 -0.8373,-7.51083 -1.08525,-16.25287 -0.1589,-5.60255 -0.38049,-11.84159 -0.49243,-13.86453 l -0.20351,-3.67807 -1.04264,-0.87798 c -1.11415,-0.93821 -14.64885,-9.10592 -20.35721,-12.28486 -5.43508,-3.02674 -10.16413,-5.27789 -11.08741,-5.27789 -1.35083,0 -6.337084,2.59346 -20.001137,10.40304 -9.843377,5.62589 -11.817587,6.91515 -12.155124,7.9379 -0.546633,1.65631 -0.826579,6.23716 -1.057083,17.29739 -0.127972,6.14041 -0.291231,11.2601 -0.3628,11.37709 -0.07157,0.11699 -0.262987,1.30906 -0.425375,2.64906 -0.162388,1.33999 -0.365729,2.62001 -0.451869,2.84449 -0.167986,0.43776 -2.770161,2.04436 -10.94775,6.75922 -8.463565,4.87974 -15.257278,8.98708 -15.73123,9.51079 -0.882729,0.97541 -1.02642,3.94557 -1.048384,21.67066 l -0.02143,17.29235 0.843069,0.70454 c 2.088925,1.74568 30.576688,18.0243 31.54272,18.0243 0.208164,0 2.174333,-0.93768 4.369263,-2.08374 z m -9.502968,-9.11862 c -7.330044,-3.80335 -14.022917,-8.36107 -14.022917,-9.54934 0,-1.1298 14.352365,-10.05985 30.956251,-19.26101 3.929062,-2.17732 8.184609,-4.54268 9.45677,-5.25636 1.272161,-0.71368 2.53363,-1.29759 2.803264,-1.29759 0.943314,0 1.381322,0.89328 1.638984,3.34259 0.544623,5.17712 0.11094,17.658 -0.680826,19.59335 -0.228925,0.55957 -1.022636,1.31611 -2.359448,2.24895 -4.845034,3.38093 -13.686277,8.61612 -18.652144,11.04454 -3.797204,1.85692 -3.915396,1.84573 -9.139934,-0.86513 z m 59.670696,0.33941 c -5.51871,-2.92472 -18.85414,-10.89158 -20.07435,-11.99283 l -0.62032,-0.55984 0.11302,-10.45104 c 0.12192,-11.27485 0.25892,-12.48156 1.43607,-12.64931 0.9374,-0.13359 10.50315,5.03378 24.03322,12.98263 12.86237,7.55658 19.53429,11.86171 19.91325,12.84926 0.38312,0.9984 -5.62168,4.88589 -14.51824,9.39907 -5.65469,2.8686 -5.66541,2.86904 -10.28265,0.42206 z M 46.930589,209.76438 C 46.029242,208.67832 45.77816,195.3354 46.548403,189.45435 l 0.441188,-3.36862 3.593708,-2.25313 c 8.587692,-5.38419 19.970378,-11.38371 21.597939,-11.38371 2.10489,0 16.393901,7.9638 18.86346,10.51331 0.737854,0.76174 0.837753,1.00007 0.603035,1.43864 -0.368776,0.68906 -5.013279,3.68393 -14.403545,9.28768 -15.709055,9.37457 -28.372736,16.43704 -29.473164,16.43704 -0.297375,0 -0.675571,-0.16253 -0.840435,-0.36118 z M 153.07453,208.9577 c -7.26488,-3.53589 -27.88095,-15.43755 -35.7944,-20.66411 -4.22525,-2.79064 -5.55625,-3.86541 -5.55625,-4.48664 0,-0.65996 2.27731,-2.45189 5.95313,-4.68429 3.94265,-2.39445 12.83949,-7.09715 13.42659,-7.09704 0.51298,1e-4 10.9914,5.48191 15.2807,7.99414 5.47966,3.20942 9.59975,5.73835 10.01649,6.14818 0.84501,0.831 1.05772,15.89484 0.29346,20.78262 -0.28452,1.8196 -0.72622,3.175 -1.03469,3.175 -0.10205,0 -1.26531,-0.52554 -2.58503,-1.16786 z m -46.60679,-33.76897 c -0.55663,-1.59675 -0.89082,-15.84702 -0.78871,-33.63118 0.0779,-13.57321 0.17734,-17.74531 0.4288,-17.99677 0.26006,-0.26007 0.63971,-0.17533 1.84722,0.41228 4.61138,2.24404 15.82472,8.66399 18.44643,10.5611 0.41514,0.30041 0.56241,0.83348 0.71738,2.59668 0.59771,6.80103 0.75906,10.86509 0.60276,15.18326 -0.1721,4.75501 -0.73951,12.22688 -0.94185,12.40263 -0.0588,0.0511 -1.8631,1.18069 -4.00953,2.51023 -2.14643,1.32954 -5.6485,3.50319 -7.78238,4.83032 -4.21429,2.62102 -6.77715,3.93649 -7.66986,3.93682 -0.39678,1.5e-4 -0.65458,-0.24405 -0.85026,-0.80537 z m -14.455315,-1.27264 c -4.271292,-2.10531 -14.561491,-8.28484 -15.742709,-9.4539 -0.343016,-0.33949 -0.396875,-2.32914 -0.396875,-14.66128 0,-12.33095 0.05389,-14.32218 0.396875,-14.66394 0.477965,-0.47626 6.464732,-4.20343 10.31875,-6.42413 4.278021,-2.46501 8.721153,-4.61573 9.349682,-4.52577 0.887096,0.12698 1.198903,1.17232 1.490712,4.99766 0.353398,4.6327 0.351442,34.30668 -0.0027,40.25043 -0.315138,5.28983 -0.477127,6.13265 -1.19826,6.23449 -0.281246,0.0397 -2.178231,-0.74939 -4.215522,-1.75356 z"
           id="path3" /><path
           style="fill:#332808"
           d="m 12.240547,179.03702 v -73.42188 h 85.989586 85.989587 v 73.42188 73.42187 H 98.230133 12.240547 Z m 65.219794,57.68705 c 2.619375,-1.34942 7.977188,-4.23575 11.90625,-6.41408 3.929063,-2.17833 8.351786,-4.58967 9.828273,-5.35854 l 2.684526,-1.39795 2.60681,1.40946 c 1.43374,0.77521 6.1193,3.41778 10.41235,5.87239 7.54625,4.31467 15.82267,8.65896 16.49639,8.65896 1.42829,0 31.8671,-17.4282 32.49814,-18.6073 0.41045,-0.76693 0.71817,-11.8512 0.73403,-26.43976 l 0.0134,-12.37102 -0.59531,-0.51572 c -1.02221,-0.88554 -6.47992,-4.3049 -13.32842,-8.35053 -9.08964,-5.36952 -14.35216,-8.58742 -14.5395,-8.89054 -0.087,-0.14077 -0.26491,-4.44737 -0.39536,-9.57022 -0.43426,-17.05403 -0.74273,-22.93679 -1.24753,-23.79133 -1.20047,-2.03224 -30.69622,-19.52191 -32.92305,-19.52191 -1.07472,0 -12.153985,6.06808 -24.283331,13.2999 -7.418363,4.42301 -8.01052,4.88095 -8.574778,6.63114 -0.446974,1.38641 -0.737826,6.45027 -0.952383,16.58146 -0.130978,6.18463 -0.374058,12.19729 -0.540179,13.36145 -0.290496,2.03579 -0.354145,2.17033 -1.665786,3.52104 -1.724841,1.77622 -3.18223,2.72923 -11.792505,7.71133 -7.073062,4.09263 -11.989796,7.06147 -13.317055,8.04115 -0.406558,0.30008 -0.949833,1.13207 -1.232421,1.88735 -0.975328,2.6068 -1.184788,5.97282 -1.185798,19.0558 -0.0013,16.59717 0.264589,18.52221 2.818271,20.40586 2.790926,2.05864 20.007951,12.07372 26.865437,15.62751 2.750702,1.42552 3.943043,1.91423 4.365625,1.78936 0.31975,-0.0945 2.724489,-1.27584 5.343864,-2.62526 z m -7.425465,-8.02965 c -6.086625,-2.43561 -17.529033,-9.63978 -16.907693,-10.64513 0.504738,-0.81668 8.571061,-5.90265 19.173783,-12.08942 9.304738,-5.42939 22.938693,-13.03223 23.370323,-13.03223 0.182834,0 0.483938,0.56555 0.669121,1.25677 0.680475,2.53999 1.059839,13.09778 0.65672,18.27669 -0.155626,1.99935 -0.247304,2.2794 -0.990602,3.02604 -1.879834,1.88829 -15.610055,10.39218 -20.662854,12.79767 -2.614358,1.24462 -3.123854,1.28393 -5.308798,0.40961 z m 59.812964,0.2436 c -2.53326,-0.90103 -8.7796,-4.27034 -16.13958,-8.7058 l -7.40834,-4.4646 0.002,-10.56009 c 0.001,-8.07211 0.084,-10.79386 0.35124,-11.55228 0.1923,-0.54571 0.46286,-0.99219 0.60124,-0.99219 0.95646,0 15.13845,8.08575 30.09266,17.15708 8.73373,5.29794 12.32907,7.73486 12.42705,8.42302 0.0642,0.45088 -0.35742,0.90782 -1.9291,2.09076 -3.76483,2.83363 -13.85576,8.46176 -16.01242,8.93078 -0.3638,0.0791 -1.25677,-0.0679 -1.98438,-0.32668 z M 47.874691,208.49523 c -0.636254,-1.00423 -0.944362,-3.07216 -1.122361,-7.53293 -0.177879,-4.45776 0.209487,-13.02061 0.640285,-14.15369 0.186532,-0.49062 1.486521,-1.41261 4.711626,-3.34164 10.315846,-6.17021 18.600599,-10.48777 20.125833,-10.4885 1.996161,-9.6e-4 18.388181,9.35179 18.94822,10.81123 0.07395,0.1927 -0.124842,0.58863 -0.441752,0.87986 -2.501402,2.29864 -39.269842,23.6685 -41.763679,24.27309 -0.559621,0.13567 -0.78759,0.0428 -1.098172,-0.44742 z m 102.845419,-1.38989 c -14.73228,-7.70554 -36.47629,-20.90209 -37.45563,-22.73201 -0.67151,-1.25473 4.62515,-4.99297 14.6268,-10.32322 1.54327,-0.82246 2.96079,-1.49538 3.15006,-1.49538 0.8716,0 11.22357,5.59289 19.50347,10.53721 4.57044,2.72922 5.66622,3.49619 5.88698,4.1205 0.62399,1.76455 0.16396,20.04298 -0.53742,21.35351 -0.14755,0.2757 -0.53197,0.49928 -0.85427,0.49684 -0.32231,-0.002 -2.2663,-0.88329 -4.31999,-1.95745 z M 106.84747,174.7293 c -0.57036,-1.79706 -0.94198,-40.98824 -0.45338,-47.8152 l 0.17042,-2.38125 0.73833,0.0513 c 0.83672,0.0581 10.22746,5.05378 15.56308,8.27922 l 3.54234,2.14138 0.16972,1.51093 c 0.23212,2.06641 0.24194,25.59752 0.0112,26.89708 -0.1842,1.0376 -0.22731,1.06976 -6.56041,4.89479 -6.06154,3.661 -12.04128,6.90327 -12.71886,6.89626 -0.17209,-0.002 -0.3802,-0.2153 -0.46247,-0.47449 z m -15.132478,-1.4868 c -5.354553,-2.81073 -10.392714,-5.80733 -12.60514,-7.49731 -2.003698,-1.53054 -2.577634,-2.6911 -2.837313,-5.73734 -0.272394,-3.1954 0.07517,-24.41991 0.404867,-24.72409 0.632479,-0.58354 12.758142,-7.63808 15.654706,-9.1077 3.626802,-1.84011 3.726702,-1.83367 4.068239,0.26209 0.757579,4.6487 0.920616,34.23538 0.241082,43.74988 -0.262965,3.68191 -0.544319,4.75035 -1.249022,4.74314 -0.258263,-0.003 -1.913102,-0.76254 -3.677419,-1.68867 z"
           id="path2" /><path
           style="fill:#000000"
           d="m 12.240547,179.03702 v -73.42188 h 85.989586 85.989587 v 73.42188 73.42187 H 98.230133 12.240547 Z m 136.490483,52.11515 c 12.08463,-6.96961 16.49218,-9.63825 16.59495,-10.04771 0.077,-0.30665 0.16259,-8.64712 0.19028,-18.53437 0.0537,-19.19097 -0.0176,-20.47713 -1.20655,-21.76033 -0.87554,-0.94492 -6.47058,-4.57812 -12.50145,-8.11794 -12.9042,-7.57413 -13.42324,-7.89882 -13.91195,-8.70243 -1.07963,-1.77531 -1.43132,-5.37586 -1.9674,-20.14196 -0.47797,-13.16536 -0.58407,-14.5435 -1.15745,-15.03429 -1.03857,-0.88896 -23.09804,-13.57198 -28.05916,-16.13252 -4.27969,-2.20884 -4.53013,-2.2156 -8.940278,-0.24133 -5.984392,2.67899 -26.366286,14.54793 -28.878593,16.8168 -0.725214,0.65495 -1.258813,1.80123 -1.659152,3.56421 -0.167314,0.73681 -0.349976,7.15866 -0.451438,15.87119 l -0.170415,14.63365 -0.661459,0.51529 c -1.286115,1.00192 -9.476565,6.0325 -15.949858,9.79642 -7.44199,4.32716 -9.684378,5.9143 -10.949261,7.74977 -1.892239,2.74582 -2.182,4.84843 -2.374409,17.22956 -0.167258,10.7627 0.07344,16.31633 0.814168,18.78542 1.127823,3.75941 3.49427,5.93759 11.852843,10.90989 12.053116,7.1701 21.039512,11.97657 22.391918,11.97657 1.409449,0 8.196457,-3.55516 22.033759,-11.5417 3.877153,-2.2378 7.259215,-4.06872 7.515695,-4.06872 0.25648,0 5.00192,2.49157 10.54542,5.53682 5.54351,3.04526 12.1627,6.67951 14.70931,8.07611 2.78282,1.52615 4.8507,2.50188 5.18284,2.44553 0.30394,-0.0516 7.95738,-4.36433 17.00764,-9.58393 z m -78.679023,-3.13916 c -0.582083,-0.33701 -3.158091,-1.81117 -5.724461,-3.27591 -6.728729,-3.84039 -9.224498,-5.49715 -9.224498,-6.12346 0,-0.92027 4.530675,-4.08164 13.833617,-9.65272 10.72807,-6.42451 24.923925,-14.08168 26.413491,-14.2473 0.922483,-0.10257 1.034258,0.88729 1.202544,10.64944 l 0.152795,8.86354 -0.626744,0.55432 c -0.344709,0.30487 -2.472212,1.72353 -4.727785,3.15256 -8.034247,5.09016 -18.374151,10.72441 -19.641244,10.70259 -0.32966,-0.006 -1.075631,-0.28606 -1.657715,-0.62306 z m 56.885423,-1.32273 c -2.0373,-1.07135 -7.27605,-4.0163 -11.64167,-6.54433 l -7.9375,-4.59643 -0.0692,-10.83168 c -0.038,-5.95742 0.0215,-10.91967 0.13229,-11.02722 0.17362,-0.16852 19.12855,10.63583 30.97812,17.65758 6.52796,3.86831 10.40025,6.47412 10.31081,6.93854 -0.11874,0.61659 -2.21369,2.11102 -6.82167,4.86621 -5.00703,2.9938 -9.86259,5.49486 -10.65698,5.48934 -0.32454,-0.002 -2.25695,-0.88067 -4.29424,-1.95201 z M 47.969565,207.23433 c -0.58074,-1.08513 -0.87619,-5.95962 -0.698763,-11.52856 0.20201,-6.34052 0.380898,-7.57597 1.227444,-8.47708 1.611703,-1.71558 13.812053,-8.98843 20.43683,-12.18277 2.513416,-1.21192 2.618958,-1.23801 3.69903,-0.91441 2.557356,0.7662 12.901572,6.33121 15.30131,8.23183 2.348772,1.86027 2.014459,2.2129 -7.432367,7.8396 -14.224266,8.47225 -30.700751,17.54137 -31.868576,17.54137 -0.215585,0 -0.514794,-0.22949 -0.664908,-0.50998 z m 102.251195,-1.5037 c -13.38189,-7.21804 -33.7713,-19.22403 -35.76579,-21.06013 -0.31691,-0.29174 -0.51129,-0.69959 -0.43195,-0.90633 0.18352,-0.47824 5.3709,-3.94488 9.381,-6.26917 6.18287,-3.58363 8.30177,-3.69874 14.12932,-0.76755 2.93939,1.47848 17.66341,10.08473 17.90603,10.46615 0.28848,0.45352 0.24414,11.61385 -0.0631,15.87457 -0.26224,3.63709 -0.51548,4.6833 -1.12995,4.66829 -0.17678,-0.004 -1.9883,-0.90694 -4.02559,-2.00583 z m -59.135061,-34.0665 c -2.255197,-1.21768 -6.124421,-3.39839 -8.598275,-4.84602 l -4.497917,-2.63205 -0.06838,-14.41812 -0.06838,-14.41812 6.021507,-3.4762 c 7.246251,-4.18324 10.899005,-6.13823 11.481568,-6.14507 0.599415,-0.007 0.732001,1.10794 1.025217,8.62138 0.328587,8.41978 0.323025,22.44372 -0.01227,30.94042 -0.26798,6.79087 -0.437666,8.3394 -0.931867,8.50413 -0.137963,0.046 -2.096003,-0.91267 -4.3512,-2.13035 z m 16.772821,1.90217 c -0.45058,-0.72907 -0.66647,-11.78635 -0.52859,-27.07303 0.13607,-15.08609 0.32244,-19.96147 0.78058,-20.41961 0.26053,-0.26053 1.34923,0.29146 9.45582,4.79432 l 7.7836,4.32344 0.0684,14.3523 c 0.0501,10.49945 -0.0131,14.45051 -0.2352,14.71816 -0.16701,0.20123 -2.99577,1.89161 -6.28615,3.7564 -10.35899,5.87086 -10.72521,6.05492 -11.0385,5.54802 z"
           id="path1" /></g><path
         style="fill:#dbaf2a;stroke-width:0.572614"
         d="m 374.75938,699.55953 c -9.28302,-3.71521 -29.42361,-14.52264 -73.27834,-39.32111 -29.57807,-16.72547 -32.01026,-18.05231 -33.09117,-18.05231 -0.4861,0 -1.38553,0.68874 -1.99874,1.53053 l -1.11491,1.53054 -1.08015,-1.64819 c -0.98146,-1.49762 -1.10962,-3.29841 -1.40284,-19.71102 -0.17749,-9.93455 -0.37371,-38.76133 -0.43604,-64.05951 l -0.11333,-45.99668 1.9114,-2.23305 c 3.88447,-4.53813 8.70814,-7.62627 44.4649,-28.46673 14.31945,-8.34594 29.00698,-16.98428 32.63897,-19.19631 18.00949,-10.9685 24.69541,-16.62273 28.28975,-23.92444 3.92873,-7.98098 4.62163,-14.82761 5.50099,-54.35602 0.76892,-34.56376 1.57962,-55.39777 2.33812,-60.08687 0.95608,-5.91061 2.51681,-8.80456 6.97376,-12.93101 7.40145,-6.85261 23.044,-16.69965 55.69177,-35.05813 26.20714,-14.73679 33.18781,-18.53512 43.52686,-23.68384 l 9.17005,-4.56658 2.28995,0.80794 c 5.93603,2.09435 30.70001,15.94709 88.73915,49.63983 11.02281,6.39894 21.14048,12.25883 22.48371,13.02198 1.34324,0.76315 2.72176,1.90982 3.06338,2.54815 0.78147,1.46019 1.43484,20.89266 2.21955,66.01393 0.70975,40.81127 1.51001,61.25281 2.4754,63.23075 0.82632,1.69303 0.855,1.7107 38.18528,23.52424 32.94843,19.25305 45.73356,26.95237 60.26757,36.29362 l 9.59128,6.16448 -0.0502,7.25646 c -0.0426,6.16262 -0.78136,14.91247 -1.01855,12.06367 -0.0421,-0.5054 -0.34395,-4.21249 -0.67083,-8.23795 -0.32688,-4.02547 -0.87335,-7.8404 -1.21437,-8.47762 -1.75851,-3.28579 -1.89984,0.76013 -2.1962,62.87096 -0.22433,47.01517 -0.46188,62.13436 -0.99079,63.06055 -0.75407,1.32047 -3.83609,3.3039 -18.76778,12.07796 -46.39661,27.26331 -77.83884,44.45789 -88.93046,48.63277 -3.67945,1.38494 -3.74596,1.38887 -6.92341,0.409 -4.48773,-1.38394 -20.3614,-9.54763 -43.86384,-22.55878 -39.34684,-21.78276 -60.22229,-31.47634 -67.78538,-31.47634 -5.56742,0 -11.08007,2.66621 -45.5921,22.05069 -35.96118,20.19843 -49.56685,27.40345 -58.24402,30.84373 -5.65612,2.24251 -6.53754,2.28003 -11.05842,0.47071 z m 234.90208,-7.23745 c 16.25348,-5.65746 44.75623,-20.64344 65.44993,-34.4118 9.59337,-6.38287 14.65025,-10.95685 15.21048,-13.75797 1.11389,-5.56946 -13.1003,-15.70086 -63.59633,-45.32933 -64.81429,-38.02969 -102.69772,-58.08986 -116.00736,-61.42866 -3.67967,-0.92307 -6.50868,0.2699 -7.76735,3.27543 -3.12492,7.46182 -4.43754,34.90553 -3.06159,64.01017 1.07028,22.63886 2.06248,30.45426 4.29986,33.86892 2.96607,4.52681 75.7288,47.85097 91.329,54.37885 4.41332,1.84674 7.47454,1.71566 14.14336,-0.60561 z m -218.2108,-1.96622 c 23.82952,-10.30924 71.81178,-37.31169 86.57221,-48.7193 2.84699,-2.2003 5.33905,-4.26381 5.53792,-4.58558 0.95671,-1.548 2.09785,-36.14553 1.81373,-54.9893 -0.46057,-30.54483 -2.56471,-45.36516 -6.62371,-46.65344 -2.62881,-0.83435 -13.03663,3.98614 -39.70976,18.392 -51.78004,27.96583 -108.74522,61.69814 -130.51989,77.28823 -3.68643,2.63939 -6.89858,4.79889 -7.13811,4.79889 -0.96339,0 6.14213,-6.62967 10.97765,-10.24248 21.79346,-16.2828 126.07561,-75.86525 155.90458,-89.07735 7.601,-3.36671 9.8596,-3.8704 13.04983,-2.91029 1.36553,0.41096 2.62525,0.60475 2.79938,0.43062 1.30487,-1.30487 -2.14204,-6.64727 -5.08116,-7.87532 -1.4559,-0.60831 -2.40304,-0.64984 -4.11595,-0.18046 -9.79004,2.68267 -64.5443,31.97221 -114.17084,61.07309 -50.7326,29.74947 -65.08745,40.46442 -68.16086,50.87762 -1.03404,3.5035 -0.40361,5.02835 3.03381,7.33786 1.64916,1.10804 5.18873,3.95724 7.8657,6.33156 13.24517,11.74771 56.42557,36.91738 70.14516,40.88731 6.22981,1.80268 9.545,1.39644 17.82031,-2.18366 z m 302.89163,-54.17098 c 0.84708,-3.37499 -3.76527,-7.4499 -20.85412,-18.42415 -51.53873,-33.09755 -145.88462,-86.53859 -163.03167,-92.34725 -5.07908,-1.72056 -6.58053,-1.38926 -10.067,2.22134 -6.52437,6.75666 -8.16493,17.68882 -8.16767,54.42686 -0.002,23.46094 0.4584,32.26268 1.98325,37.93565 1.37753,5.12491 1.6783,1.58726 1.67953,-19.75516 0.002,-41.83058 2.00459,-61.12527 6.85795,-66.0894 2.03261,-2.079 3.67568,-2.50461 7.15776,-1.85408 12.21767,2.2825 115.45882,60.97054 170.07828,96.68199 7.24357,4.73601 13.35847,8.61398 13.58867,8.61772 0.2302,0.004 0.57896,-0.63235 0.77502,-1.41352 z m -403.866,-15.22619 c 1.95843,-0.65227 6.52405,-2.74714 10.14583,-4.65526 27.26151,-14.36265 133.78793,-77.50608 156.4534,-92.73759 7.71539,-5.18485 9.03192,-6.5043 9.03192,-9.05197 0,-5.57698 -8.1266,-12.51034 -30.06221,-25.64813 -15.74008,-9.42713 -28.28313,-16.36848 -41.80079,-23.13263 -10.1165,-5.06223 -11.71475,-5.6966 -13.70262,-5.43874 -4.58626,0.59491 -39.43262,19.11657 -66.11633,35.14239 -23.57118,14.15648 -31.42728,20.12521 -34.59713,26.28545 -2.20783,4.29068 -3.39596,20.83743 -3.40752,47.45567 -0.0114,26.20562 1.20588,43.55556 3.44919,49.16214 0.5931,1.48229 1.47378,2.47168 2.65966,2.98795 2.44897,1.06614 3.82937,1.002 7.9466,-0.36928 z m 412.0008,0.28919 c 3.68675,-2.5823 6.27743,-12.63535 6.9995,-27.16131 1.11012,-22.33243 0.36014,-59.11963 -1.37492,-67.44102 -0.93591,-4.48864 -2.40504,-7.65858 -4.64347,-10.01917 -3.21744,-3.39303 -28.45083,-19.34911 -51.56643,-32.6075 -24.74583,-14.19344 -42.05321,-22.76269 -45.99563,-22.77341 -8.24281,-0.0224 -66.30601,31.85895 -79.24517,43.51194 -3.18311,2.8667 -6.71786,7.33817 -6.71786,8.49811 0,2.99023 20.37556,17.52588 53.25306,37.99004 44.74975,27.85388 106.47223,63.04097 121.96669,69.53143 3.73849,1.56601 5.59071,1.68509 7.32423,0.47089 z m -427.04876,-9.26714 c 6.7e-4,-0.55114 -0.41271,-7.70165 -0.91861,-15.89002 -0.70421,-11.398 -0.84829,-20.45847 -0.61465,-38.65142 0.39125,-30.46653 1.16174,-37.28481 4.57758,-40.50843 10.56989,-9.97511 83.08347,-52.69418 98.9456,-58.29066 1.30269,-0.45962 3.08632,-0.83567 3.96363,-0.83567 6.19254,0 55.54439,26.95651 82.10345,44.84577 6.09895,4.10805 7.77563,4.65312 7.77563,2.52777 0,-3.41144 -5.31646,-8.07431 -19.00119,-16.66522 -22.97106,-14.42064 -58.62285,-33.52182 -68.97985,-36.95738 -3.27034,-1.08481 -3.72351,-1.10753 -6.37643,-0.3197 -6.26546,1.86064 -18.65135,8.24381 -43.06978,22.19635 -37.09597,21.19642 -58.22618,35.07264 -60.65397,39.8315 -0.6035,1.18296 -1.41167,3.81173 -1.79592,5.8417 -1.50538,7.95277 -1.81284,52.56133 -0.50595,73.4079 0.55841,8.90742 1.83195,17.45685 2.8968,19.44653 0.70038,1.30869 1.65209,1.32076 1.65366,0.021 z M 517.32761,509.37892 c 6.23334,-8.49151 14.40275,-13.73002 58.72163,-37.65434 31.64567,-17.08304 28.77507,-15.68075 30.86999,-15.07994 3.06256,0.87834 13.31751,6.51991 53.59051,29.48182 46.82474,26.69742 45.70923,26.07637 46.83774,26.07637 1.35834,0 2.08055,-1.66522 1.47124,-3.39229 -0.75078,-2.12805 -3.97858,-4.11302 -42.86915,-26.36285 -40.85023,-23.37098 -58.80202,-33.23235 -60.49671,-33.23235 -2.89796,0 -47.71723,23.64397 -69.48657,36.65696 -11.5975,6.9326 -20.2464,14.10814 -22.55772,18.71496 -0.9325,1.85861 -1.20528,5.05918 -0.57186,6.70982 0.64529,1.68161 2.39794,0.93302 4.4909,-1.91816 z m -3.12063,-16.81943 c 13.78192,-6.02783 69.44924,-39.53294 78.3456,-47.15474 1.74205,-1.49248 1.96808,-2.0752 2.69271,-6.94178 1.38018,-9.2694 1.99088,-24.71435 1.98299,-50.15134 -0.0102,-32.78874 -0.78904,-52.27033 -2.35697,-58.95382 l -1.18437,-5.0485 -4.20173,-3.33896 c -17.9262,-14.2453 -73.45566,-44.68431 -81.51695,-44.68431 -4.57066,0 -6.59707,8.26902 -7.50737,30.63483 -0.70046,17.21008 -0.69806,133.78541 0.003,155.17827 0.86266,26.31676 1.41646,29.67946 5.20889,31.62846 2.14154,1.10058 3.89596,0.86044 8.53401,-1.16811 z m -36.29547,-2.542 c 4.05931,-6.04549 4.93568,-31.41082 4.69378,-135.856 -0.19878,-85.83081 0.12923,-79.32222 -4.17638,-82.87126 -2.60141,-2.14431 -6.40718,-3.2888 -9.36398,-2.81599 -3.14448,0.50283 -12.62971,4.82895 -21.74517,9.91778 -20.51293,11.45162 -58.77634,34.33319 -60.38415,36.10979 -0.61231,0.6766 -1.15962,2.85996 -1.52669,6.09038 -2.00185,17.61764 -2.25747,94.17634 -0.36421,109.07942 1.09072,8.58573 1.67705,10.03168 4.16561,10.27297 1.18821,0.11521 1.94938,0.55577 2.17199,1.25712 2.13855,6.738 58.50553,42.29642 79.01973,49.84864 4.06741,1.4974 5.98787,1.23326 7.50947,-1.03285 z m 20.53591,-6.38757 c 0.20054,-0.91305 0.0877,-6.38866 -0.25069,-12.16804 -2.6904,-45.94576 -3.0411,-158.10556 -0.56898,-181.9701 0.96628,-9.32799 2.0927,-11.56626 6.8388,-13.58913 5.15464,-2.197 9.09916,-1.04797 26.94485,7.84897 21.35674,10.64737 41.64341,22.50064 57.29195,33.47504 7.59091,5.32354 9.97329,6.51989 10.97963,5.51355 1.01998,-1.01998 -1.00825,-4.29702 -4.72031,-7.62666 -8.11143,-7.27578 -36.59458,-24.49753 -60.42791,-36.5365 -18.07503,-9.13027 -22.97748,-11.0872 -26.94998,-10.75777 -4.80492,0.39846 -10.09449,3.7124 -12.12006,7.59326 -0.48895,0.9368 -1.22906,3.90007 -1.64471,6.58506 -2.61131,16.86863 -2.3735,139.42166 0.35504,182.96461 0.9058,14.45499 1.88831,20.32778 3.40078,20.32778 0.27884,0 0.67105,-0.74703 0.87159,-1.66007 z m 112.82824,-43.20748 c 0.54591,-5.82569 -1.45148,-104.77192 -2.36821,-117.31581 -0.38084,-5.21114 -1.26264,-7.0723 -2.67711,-5.65041 -0.87157,0.87615 -0.80342,38.5025 0.1448,79.93759 0.84113,36.75514 1.34794,45.53743 2.68428,46.51459 0.5461,0.39931 1.17935,0.72603 1.40722,0.72603 0.22788,0 0.59193,-1.8954 0.80902,-4.21199 z"
         id="path8"
         transform="matrix(0.26458333,0,0,0.26458333,94.159212,126.54355)" /></g></g></svg>
