<?xml version="1.0" encoding="UTF-8" standalone="no"?>
<!-- Created with Inkscape (http://www.inkscape.org/) -->

<svg
   width="120.3854mm"
   height="65.352081mm"
   viewBox="0 0 120.3854 65.352081"
   version="1.1"
   id="svg1"
   xml:space="preserve"
   xmlns:inkscape="http://www.inkscape.org/namespaces/inkscape"
   xmlns:sodipodi="http://sodipodi.sourceforge.net/DTD/sodipodi-0.dtd"
   xmlns="http://www.w3.org/2000/svg"
   xmlns:svg="http://www.w3.org/2000/svg"><sodipodi:namedview
     id="namedview1"
     pagecolor="#505050"
     bordercolor="#eeeeee"
     borderopacity="1"
     inkscape:showpageshadow="0"
     inkscape:pageopacity="0"
     inkscape:pagecheckerboard="0"
     inkscape:deskcolor="#505050"
     inkscape:document-units="mm" /><defs
     id="defs1" /><g
     inkscape:label="Capa 1"
     inkscape:groupmode="layer"
     id="layer1"
     transform="translate(-45.44848,-116.9823)"><g
       id="g1"
       transform="translate(7.8767551,84.327613)"><path
         style="fill:#dbaf2a"
         d="M 37.571728,65.330727 V 32.654686 h 60.192703 60.192699 v 32.676041 32.67604 H 97.764431 37.571728 Z m 57.432726,14.499275 c 1.494497,-0.882821 1.998723,-3.123591 1.085888,-4.825669 -0.666909,-1.243524 -1.941771,-1.868398 -3.811887,-1.868398 h -1.525482 v 3.527777 c 0,1.940278 0.0893,3.619684 0.198438,3.732014 0.321542,0.330938 3.219991,-0.07363 4.053043,-0.565724 z m -3.391585,0.185462 c -0.56357,-0.234676 -0.595312,-0.395325 -0.595312,-3.012905 0,-1.520757 0.07227,-2.953343 0.160599,-3.183526 0.115223,-0.300268 0.515321,-0.418515 1.41608,-0.418515 1.684399,0 2.924345,0.837041 3.442245,2.323729 0.749402,2.151239 -0.483724,4.018605 -2.902258,4.394994 -0.509323,0.07926 -1.193932,0.03256 -1.521354,-0.103777 z M 62.045684,77.080106 c 1.096503,-0.130023 1.161761,-0.163985 0.381299,-0.198438 -1.498522,-0.06615 -1.883812,-0.504799 -1.787202,-2.034706 l 0.08299,-1.314152 1.5875,-0.153959 1.5875,-0.153959 -1.785937,-0.04448 -1.785938,-0.04448 0.04448,3.63802 c 0.03133,2.562546 0.08999,3.168723 0.198437,2.050521 l 0.153959,-1.5875 z m 4.558717,0.625792 c -0.05728,-0.548948 -0.105098,-0.164651 -0.106272,0.853995 -0.0012,1.018646 0.04569,1.467786 0.104138,0.998089 0.05845,-0.469697 0.05941,-1.303135 0.0021,-1.852084 z m 7.672916,0 c -0.05728,-0.548948 -0.105098,-0.164651 -0.106272,0.853995 -0.0012,1.018646 0.04569,1.467786 0.104138,0.998089 0.05845,-0.469697 0.05941,-1.303135 0.0021,-1.852084 z m 8.446872,2.089932 c -0.515842,-0.569999 -0.579228,-2.16222 -0.107153,-2.691614 0.281361,-0.315523 0.261614,-0.318586 -0.132291,-0.02052 -0.783065,0.592541 -0.472666,3.195988 0.381045,3.195988 0.167033,0 0.105261,-0.211075 -0.141601,-0.483854 z m 3.530868,-1.412326 c 0,-1.042899 -0.07591,-1.82027 -0.16869,-1.72749 -0.246863,0.246862 -0.282818,3.62367 -0.03858,3.62367 0.114001,0 0.207274,-0.853281 0.207274,-1.89618 z m 12.893091,-0.677606 c -0.05728,-0.548948 -0.105098,-0.164651 -0.106272,0.853995 -0.0012,1.018646 0.04569,1.467786 0.104138,0.998089 0.05845,-0.469697 0.05941,-1.303135 0.0021,-1.852084 z m 3.306042,-0.175862 c 0.04,-0.275379 -0.0761,-0.553192 -0.25799,-0.617361 -0.24555,-0.08662 -0.32271,0.34898 -0.29961,1.691315 0.0307,1.786446 0.0338,1.793801 0.25799,0.617361 0.12477,-0.654844 0.2596,-1.415935 0.29961,-1.691315 z m 3.00575,-0.594163 c -0.0761,-0.198195 -0.28489,-0.360355 -0.46408,-0.360355 -0.2534,0 -0.25525,0.07055 -0.008,0.3175 0.17462,0.174625 0.34001,1.037828 0.36752,1.918229 l 0.05,1.600729 0.0966,-1.557874 c 0.0531,-0.856831 0.0343,-1.720034 -0.0417,-1.918229 z m 3.16741,2.755773 c -0.47877,-0.683541 -0.52857,-1.58644 -0.1327,-2.405918 0.26969,-0.558266 0.26519,-0.560453 -0.13229,-0.06433 -0.53839,0.672006 -0.52512,1.964991 0.0264,2.57443 0.60284,0.666136 0.73708,0.607519 0.23858,-0.104184 z m 3.82145,-1.131753 c 0,-1.403203 -0.0783,-1.719792 -0.42518,-1.719792 -0.30771,0 -0.36777,0.12792 -0.21736,0.463021 0.27114,0.604098 0.27991,1.6349 0.0203,2.38125 -0.15734,0.452245 -0.10745,0.595312 0.20759,0.595312 0.33402,0 0.4147,-0.334614 0.4147,-1.719791 z m 3.00162,-0.06615 c 0.10202,-1.020769 0.0656,-1.653646 -0.0953,-1.653646 -0.14492,0 -0.26052,0.782662 -0.26052,1.763889 0,2.146223 0.13443,2.104567 0.35578,-0.110243 z m 3.45593,-1.084433 c 0.0945,-0.152944 -0.0618,-0.403116 -0.34732,-0.555938 -0.74599,-0.399237 -0.87374,-0.346183 -0.56328,0.233914 0.15064,0.281475 0.28874,1.144679 0.3069,1.91823 l 0.033,1.406456 0.19942,-1.362292 c 0.10968,-0.74926 0.27675,-1.487427 0.37128,-1.64037 z m 5.6418,0.296584 c -0.0573,-0.548948 -0.1051,-0.164651 -0.10628,0.853995 -10e-4,1.018646 0.0457,1.467786 0.10414,0.998089 0.0585,-0.469697 0.0594,-1.303135 0.002,-1.852084 z m 8.42086,1.985748 c -0.47877,-0.683541 -0.52857,-1.58644 -0.13269,-2.405918 0.26968,-0.558266 0.26518,-0.560453 -0.1323,-0.06433 -0.53838,0.672006 -0.52512,1.964991 0.0264,2.57443 0.60284,0.666136 0.73707,0.607519 0.23857,-0.104184 z m 3.82146,-1.131753 c 0,-1.403203 -0.0783,-1.719792 -0.42518,-1.719792 -0.30772,0 -0.36777,0.12792 -0.21736,0.463021 0.27114,0.604098 0.2799,1.6349 0.0202,2.38125 -0.15734,0.452245 -0.10745,0.595312 0.20759,0.595312 0.33402,0 0.41471,-0.334614 0.41471,-1.719791 z m -59.42556,1.147575 c -0.104571,-0.169199 -0.278004,-0.675214 -0.385407,-1.12448 -0.156748,-0.655673 -0.200623,-0.695952 -0.222362,-0.204139 -0.0267,0.603968 0.389244,1.636252 0.659299,1.636252 0.07623,0 0.05304,-0.138435 -0.05153,-0.307633 z m 50.14784,-0.253857 c -0.16527,-0.30882 -0.22916,-0.933898 -0.14197,-1.389063 0.11369,-0.593498 0.085,-0.715318 -0.10163,-0.430697 -0.14309,0.218281 -0.26198,0.613062 -0.26421,0.87729 -0.004,0.500953 0.44662,1.50396 0.67602,1.50396 0.0728,0 -0.003,-0.252671 -0.16821,-0.56149 z m -55.915608,-0.39101 c -0.09416,-0.245385 -0.230738,-0.386624 -0.303498,-0.313863 -0.07276,0.07276 -0.05525,0.333061 0.03891,0.578447 0.09416,0.245385 0.230737,0.386624 0.303498,0.313863 0.07276,-0.07276 0.05525,-0.333061 -0.03891,-0.578447 z M 69.638127,77.43541 c -0.07666,-0.400183 -0.190444,-0.574849 -0.252851,-0.388147 -0.11254,0.336683 0.08879,1.115751 0.28833,1.115751 0.05715,0 0.04118,-0.327422 -0.03548,-0.727604 z M 121.61792,76.9838 c -0.0862,-0.224557 -0.28048,-0.408286 -0.4318,-0.408286 -0.17414,0 -0.15659,0.189825 0.0478,0.517134 0.36507,0.584563 0.62211,0.511699 0.38398,-0.108848 z M 95.183229,65.081593 c 1.345234,-0.78872 2.657742,-1.501279 2.916685,-1.583464 0.293774,-0.09324 1.50324,0.447055 3.216526,1.436897 1.51015,0.872479 2.89051,1.586326 3.06747,1.586326 0.17696,0 1.61747,-0.752441 3.20113,-1.67209 l 2.87939,-1.67209 V 59.626431 56.07569 l -2.91042,-1.736439 -2.91041,-1.73644 -0.0737,-3.475447 -0.0737,-3.475447 -2.98973,-1.736115 c -1.644351,-0.954864 -3.060269,-1.736116 -3.146482,-1.736116 -0.252761,0 -5.313872,2.941336 -5.821047,3.382983 -0.3936,0.342745 -0.463021,0.88677 -0.463021,3.628475 0,3.746768 0.246858,3.35043 -3.373437,5.416166 l -2.447396,1.396482 0.0084,3.605134 0.0084,3.605134 2.835842,1.640381 c 1.559713,0.90221 3.014435,1.645063 3.232716,1.650785 0.218281,0.0057 1.497521,-0.634913 2.842756,-1.423633 z m 8.798911,0.978609 c -0.21828,-0.07567 -1.483,-0.771717 -2.81048,-1.546772 -2.69501,-1.573497 -2.738545,-1.644628 -2.738545,-4.47437 0,-2.245158 0.189265,-3.042708 0.722059,-3.042708 0.590972,0 9.812496,5.357269 9.989066,5.803179 0.0826,0.208572 -0.0628,0.582459 -0.32315,0.830861 -0.79361,0.757253 -4.41629,2.57633 -4.83895,2.42981 z m -14.2875,-1.240994 c -2.9912,-1.727919 -2.966637,-1.773162 2.764336,-5.091719 2.611791,-1.512375 4.933509,-2.714417 5.159374,-2.671206 0.333615,0.06383 0.424868,0.591971 0.48637,2.814959 0.04925,1.780183 -0.03067,2.864568 -0.228709,3.103191 -0.545452,0.65723 -4.919967,3.01811 -5.566937,3.004418 -0.346533,-0.0073 -1.523028,-0.529173 -2.614434,-1.159643 z m -2.8575,-2.84869 c -0.350394,-0.350394 -0.448213,-5.164517 -0.115011,-5.660239 0.265558,-0.395084 5.219957,-3.282677 5.632266,-3.282677 0.407478,0 4.549674,2.358826 4.790244,2.727866 0.09568,0.14677 0.1147,0.421281 0.04227,0.610023 -0.10687,0.278497 -9.567416,5.922527 -9.927364,5.922527 -0.0577,0 -0.247783,-0.142875 -0.422408,-0.3175 z m 21.9075,0.0517 c -0.21828,-0.14125 -2.28989,-1.35962 -4.60358,-2.707489 -2.31369,-1.347869 -4.337749,-2.66403 -4.497916,-2.924802 -0.356617,-0.580617 0.05274,-0.929029 2.854296,-2.429327 l 1.94479,-1.041478 2.74652,1.575593 2.74651,1.575593 v 3.039085 c 0,2.496007 -0.0709,3.05075 -0.39687,3.104364 -0.21828,0.0359 -0.57547,-0.05029 -0.79375,-0.191539 z M 96.82445,55.045946 C 94.933341,54.049908 93.142963,52.960062 92.882775,52.646554 92.691997,52.416681 92.614546,51.140236 92.662826,49.02165 l 0.07452,-3.270089 2.116667,-1.261283 c 3.3039,-1.968733 3.161926,-2.169833 3.246203,4.598125 0.07785,6.251452 -0.0028,6.628013 -1.275768,5.957543 z m 1.875332,-0.148867 c -0.29252,-0.546578 -0.392959,-10.511749 -0.113294,-11.240545 0.08833,-0.230183 0.382557,-0.418515 0.653839,-0.418515 0.543155,0 4.493743,2.251576 4.803903,2.737912 0.23297,0.365291 0.27011,5.773845 0.0437,6.363851 -0.13679,0.35648 -4.517608,3.06907 -4.956527,3.06907 -0.08675,0 -0.280981,-0.230298 -0.431621,-0.511773 z"
         id="path7" /><path
         style="fill:#b18e22"
         d="M 37.571728,65.330727 V 32.654686 h 60.192703 60.192699 v 32.676041 32.67604 H 97.764431 37.571728 Z m 42.068746,15.213541 c 0.301164,-0.194627 0.189501,-0.257458 -0.463021,-0.260532 -1.052976,-0.005 -1.918229,-0.802971 -1.918229,-1.769155 0,-1.006483 0.708661,-1.67448 1.776414,-1.67448 0.533058,0 0.83391,-0.107987 0.737128,-0.264583 -0.08994,-0.145521 -0.448549,-0.264583 -0.796916,-0.264583 -1.970597,0 -3.1358,1.899755 -2.085191,3.39971 0.666909,0.952145 1.959881,1.344118 2.749815,0.833623 z m 4.7625,0 c 0.327947,-0.211936 0.303708,-0.257184 -0.139566,-0.260532 -0.957005,-0.0072 -1.712517,-0.752046 -1.712517,-1.688276 0,-1.087774 0.446102,-1.701515 1.455515,-2.002474 l 0.793443,-0.236568 -0.972984,-0.02274 c -2.687656,-0.06282 -2.771735,4.325209 -0.08535,4.454353 0.14552,0.007 0.443177,-0.102697 0.661458,-0.243761 z m 26.193746,0 c 0.30927,-0.199862 0.23626,-0.257375 -0.33073,-0.260532 -0.94332,-0.0053 -1.78593,-0.861642 -1.78593,-1.815128 0,-0.808777 0.5428,-1.443398 1.59294,-1.862389 0.6526,-0.260379 0.65184,-0.26183 -0.14501,-0.278513 -1.63913,-0.03432 -2.6414,1.554482 -1.98313,3.143675 0.45508,1.098671 1.78155,1.635328 2.65186,1.072887 z m 19.31458,0 c 0.30117,-0.194627 0.1895,-0.257458 -0.46302,-0.260532 -1.60398,-0.0076 -2.419,-1.552601 -1.50635,-2.855597 0.29231,-0.417327 0.68089,-0.588038 1.33853,-0.588038 0.5504,0 0.86026,-0.107431 0.76313,-0.264583 -0.35052,-0.567158 -1.75308,-0.271991 -2.56484,0.539767 -0.66793,0.667931 -0.7764,0.944116 -0.63954,1.628429 0.19324,0.966164 0.59663,1.5108 1.34312,1.81338 0.73172,0.296596 1.2562,0.292706 1.72897,-0.01283 z m 5.02709,0 c 0.30926,-0.199862 0.23625,-0.257375 -0.33073,-0.260532 -0.94332,-0.0053 -1.78594,-0.861642 -1.78594,-1.815128 0,-0.808777 0.5428,-1.443398 1.59294,-1.862389 0.6526,-0.260379 0.65185,-0.26183 -0.14501,-0.278513 -1.63913,-0.03432 -2.64139,1.554482 -1.98313,3.143675 0.45509,1.098671 1.78155,1.635328 2.65187,1.072887 z M 60.590476,79.24025 c 0,-1.655106 0.450696,-2.135565 2.003273,-2.135565 0.64445,0 1.171727,-0.119063 1.171727,-0.264584 0,-0.145521 -0.591124,-0.264583 -1.313608,-0.264583 -1.539752,0 -2.016292,-0.546563 -1.743652,-1.999861 0.16522,-0.880699 0.175658,-0.88626 1.810156,-0.964327 2.28704,-0.109234 1.953575,-0.607687 -0.406542,-0.607687 h -1.918229 l -0.07341,3.770312 c -0.04774,2.451955 0.02165,3.770313 0.198438,3.770313 0.149516,0 0.271848,-0.586808 0.271847,-1.304018 z m 6.349999,-0.680357 c 0,-1.146528 -0.111713,-1.984375 -0.264583,-1.984375 -0.15287,0 -0.264583,0.837847 -0.264583,1.984375 0,1.146528 0.111713,1.984375 0.264583,1.984375 0.15287,0 0.264583,-0.837847 0.264583,-1.984375 z m 4.709583,1.666875 c 0.589053,-0.589053 0.328793,-1.256233 -0.757561,-1.942018 -1.203101,-0.759485 -1.298754,-1.438045 -0.246466,-1.748441 0.564956,-0.166646 0.530476,-0.18738 -0.23929,-0.143892 -1.681059,0.09497 -1.792787,1.466829 -0.183751,2.25619 0.944296,0.463252 1.165154,1.084576 0.546363,1.537047 -0.473045,0.345899 -0.471755,0.358614 0.03639,0.358614 0.28975,0 0.669694,-0.142875 0.844319,-0.3175 z m 2.963333,-1.814782 c 0,-1.456027 -0.08222,-1.836468 -0.396875,-1.836468 -0.314058,0 -0.396875,0.377276 -0.396875,1.807986 0,0.994392 0.07614,1.884124 0.169196,1.977182 0.413099,0.413099 0.624554,-0.246672 0.624554,-1.9487 z m 11.906249,0.147907 v -1.984375 h -0.834757 c -0.773508,0 -0.804924,0.03397 -0.42817,0.463021 0.652885,0.743504 0.755441,1.466449 0.325503,2.294563 -0.321521,0.619291 -0.334009,0.815994 -0.06273,0.988136 0.834463,0.529522 1.000157,0.237723 1.000157,-1.761345 z m 8.450351,1.500911 c 1.041054,-0.558323 1.870975,-1.9326 1.862588,-3.084283 -0.0032,-0.438833 -0.2378,-1.309031 -0.521342,-1.933774 -0.663595,-1.462132 -2.239624,-2.237958 -4.304524,-2.118972 l -1.386031,0.07987 -0.07444,3.425591 c -0.04094,1.884075 -0.01491,3.580715 0.05784,3.770312 0.209374,0.54562 3.271272,0.448318 4.365908,-0.138742 z m -3.366527,-0.269619 c -0.25115,-0.159354 -0.320369,-0.971615 -0.264583,-3.104803 l 0.07555,-2.888989 1.07376,-0.07888 c 1.468148,-0.107853 2.399469,0.301172 3.02617,1.329057 1.01558,1.665704 0.453482,3.773271 -1.217875,4.566382 -0.9211,0.437091 -2.155443,0.518325 -2.693023,0.177234 z m 7.880759,-1.231292 c 0,-1.146528 -0.111713,-1.984375 -0.264584,-1.984375 -0.15287,0 -0.264583,0.837847 -0.264583,1.984375 0,1.146528 0.111713,1.984375 0.264583,1.984375 0.152871,0 0.264584,-0.837847 0.264584,-1.984375 z m 2.912047,0.859896 c 9e-4,-0.618464 0.16809,-1.443538 0.37154,-1.833497 0.32099,-0.615243 0.31791,-0.728974 -0.0233,-0.859896 -0.78908,-0.302797 -0.87907,-0.115098 -0.87907,1.833497 0,1.146528 0.11172,1.984375 0.26459,1.984375 0.14552,0 0.26531,-0.506016 0.26621,-1.124479 z m 3.43795,-0.674688 c 0,-1.983567 -0.25179,-2.434166 -1.36022,-2.434166 -0.97586,0 -1.21913,0.471412 -0.29791,0.577305 0.69024,0.07934 0.73629,0.167341 0.80548,1.539361 0.0851,1.68837 0.20246,2.116667 0.57976,2.116667 0.16071,0 0.27289,-0.739612 0.27289,-1.799167 z m 6.61458,-0.185208 v -1.984375 h -0.81295 -0.81295 l 0.54837,0.69714 c 0.64817,0.824015 0.69839,1.616766 0.15185,2.397059 -0.30548,0.436139 -0.32067,0.596719 -0.0662,0.699441 0.89215,0.360058 0.99183,0.178221 0.99183,-1.809265 z m 3.17972,0.508225 c 0.0754,-0.716086 0.23943,-1.464115 0.36462,-1.662286 0.14454,-0.228795 0.0945,-0.444608 -0.137,-0.591261 -0.86443,-0.547517 -1.02609,-0.269066 -1.02609,1.76737 0,1.486956 0.0856,1.978169 0.33073,1.897288 0.1819,-0.06002 0.39239,-0.695024 0.46774,-1.411111 z m 3.17028,0.212105 c 0,-1.49693 0.56469,-2.440122 1.46091,-2.440122 0.83189,0 1.18493,0.704284 1.18493,2.363856 0,0.737171 0.11906,1.340311 0.26458,1.340311 0.15074,0 0.26458,-0.782951 0.26458,-1.819687 0,-2.081861 -0.33781,-2.591006 -1.51983,-2.29063 -0.92083,0.234001 -1.59495,0.234306 -2.51065,0.0011 -0.39775,-0.101284 -0.93354,-0.09242 -1.19062,0.01971 -0.38253,0.166825 -0.32325,0.232618 0.32631,0.362192 0.75446,0.150497 0.79739,0.230296 0.86714,1.612081 0.0852,1.686962 0.20255,2.115205 0.57977,2.115205 0.15008,0 0.27288,-0.568821 0.27288,-1.264045 z m 6.08542,-0.72033 c 0,-1.146528 -0.11171,-1.984375 -0.26458,-1.984375 -0.15287,0 -0.26459,0.837847 -0.26459,1.984375 0,1.146528 0.11172,1.984375 0.26459,1.984375 0.15287,0 0.26458,-0.837847 0.26458,-1.984375 z m 11.90625,0 v -1.984375 h -0.81295 -0.81296 l 0.54837,0.69714 c 0.64817,0.824015 0.69839,1.616766 0.15185,2.397059 -0.30548,0.436139 -0.32066,0.596719 -0.0661,0.699441 0.89215,0.360058 0.99183,0.178221 0.99183,-1.809265 z m -41.329901,-13.406128 2.827634,-1.63217 1.854777,1.023275 c 1.02013,0.562801 2.39989,1.319091 3.06614,1.680645 l 1.21135,0.65737 3.02198,-1.735665 3.02198,-1.735666 0.0734,-3.72824 0.0734,-3.728241 -0.9994,-0.639801 c -0.54967,-0.351891 -1.85917,-1.132881 -2.91,-1.735534 l -1.9106,-1.095733 -0.0738,-3.493966 -0.0738,-3.493966 -3.12405,-1.809796 -3.124047,-1.809795 -2.696786,1.512817 c -3.897138,2.186179 -3.622827,1.766913 -3.622827,5.537261 0,3.753018 0.271845,3.324542 -3.505729,5.525646 l -2.579687,1.503123 v 3.657768 3.657768 l 2.976562,1.740392 c 1.637109,0.957216 3.131663,1.748107 3.32123,1.757535 0.189568,0.0094 1.617104,-0.717334 3.172303,-1.615027 z m -5.4352,-0.405357 c -1.389753,-0.787024 -2.182812,-1.399129 -2.182812,-1.684754 0,-0.303292 1.507479,-1.315822 4.653568,-3.125668 2.559462,-1.472378 4.82165,-2.677051 5.027083,-2.677051 0.297887,0 0.373515,0.56183 0.373515,2.774806 v 2.774806 l -1.079009,0.681148 c -1.251231,0.789868 -4.337149,2.502282 -4.499213,2.49667 -0.06068,-0.0021 -1.092585,-0.560082 -2.293132,-1.239957 z m 11.579401,-0.233275 c -1.38031,-0.809232 -2.598878,-1.611616 -2.707926,-1.783077 -0.109047,-0.17146 -0.200092,-1.416811 -0.20232,-2.767446 -0.0032,-1.925295 0.08042,-2.488114 0.387035,-2.605773 0.221317,-0.08493 2.244581,0.916023 4.660871,2.305829 4.76641,2.741547 5.42921,3.204828 5.17457,3.616847 -0.19574,0.316721 -4.25815,2.71234 -4.5918,2.707811 -0.11593,-0.0016 -1.34012,-0.664959 -2.72043,-1.474191 z M 86.968841,61.855274 c -0.10154,-0.101539 -0.184617,-1.336945 -0.184617,-2.745346 0,-2.112645 0.08102,-2.629515 0.46302,-2.953835 0.728249,-0.618285 4.706431,-2.863908 5.073492,-2.863908 0.391606,0 3.485442,1.701238 4.247701,2.335725 0.297648,0.247755 0.444853,0.573076 0.334576,0.739408 -0.181213,0.273323 -8.584022,5.225317 -9.394034,5.536147 -0.195537,0.07503 -0.438599,0.05335 -0.540138,-0.04819 z m 17.543169,-2.574233 c -2.54623,-1.491561 -4.665261,-2.89755 -4.708952,-3.12442 -0.05322,-0.276369 0.634642,-0.81706 2.084442,-1.638463 1.19013,-0.674285 2.3157,-1.225973 2.50126,-1.225973 0.46265,0 4.93847,2.618426 5.34807,3.1287 0.20439,0.254637 0.33072,1.243507 0.33072,2.588772 0,2.331965 -0.14365,3.02272 -0.62361,2.998546 -0.16634,-0.0084 -2.38571,-1.235601 -4.93193,-2.727162 z m -9.26112,-5.342553 c -1.091407,-0.647668 -2.133203,-1.378454 -2.315104,-1.623969 -0.213379,-0.288 -0.33073,-1.39625 -0.33073,-3.123375 0,-1.733555 0.116557,-2.830055 0.33073,-3.111319 0.452035,-0.59364 3.914636,-2.577223 4.498877,-2.577223 0.44111,0 0.46766,0.379485 0.401074,5.73281 -0.04396,3.534385 -0.172769,5.761158 -0.335889,5.806733 -0.145521,0.04066 -1.157552,-0.455989 -2.248958,-1.103657 z m 3.615971,1.029392 c -0.09701,-0.09701 -0.176388,-2.703651 -0.176388,-5.792526 0,-4.504085 0.07159,-5.643608 0.361538,-5.754872 0.343356,-0.131758 3.480589,1.561632 4.467109,2.411216 0.3897,0.335612 0.46238,0.863576 0.45897,3.334307 -0.002,1.614555 -0.0915,3.066476 -0.19844,3.226491 -0.1972,0.295146 -4.282864,2.751773 -4.576527,2.751773 -0.08793,0 -0.239248,-0.07937 -0.336262,-0.176389 z"
         id="path6" /><path
         style="fill:#8f721b"
         d="M 37.571728,65.330727 V 32.654686 h 60.192703 60.192699 v 32.676041 32.67604 H 97.764431 37.571728 Z m 23.283331,13.737735 0.132292,-1.566902 1.455208,-0.132292 c 1.058333,-0.09621 1.455208,-0.24053 1.455208,-0.529167 0,-0.288636 -0.396875,-0.432954 -1.455208,-0.529166 l -1.455208,-0.132292 -0.08093,-1.115727 c -0.09041,-1.246457 0.03315,-1.324593 2.309325,-1.460331 0.667583,-0.03981 1.218295,-0.21639 1.282378,-0.411179 0.08728,-0.265291 -0.409522,-0.324277 -2.228395,-0.264583 l -2.34071,0.07682 -0.07419,3.558526 c -0.04081,1.95719 -0.01098,3.723263 0.06629,3.924607 0.315936,0.823314 0.80775,0.07644 0.93395,-1.418314 z m 6.217708,-0.530618 c 0,-1.685494 -0.07752,-2.094618 -0.396875,-2.094618 -0.306791,0 -0.414839,0.414435 -0.476019,1.825833 -0.08766,2.02236 0.04743,2.638558 0.542304,2.4736 0.227279,-0.07576 0.33059,-0.764776 0.33059,-2.204815 z m 4.775205,1.627291 c 0.533428,-0.814115 0.2006,-1.530184 -0.928636,-1.997929 -1.100743,-0.455943 -1.107381,-1.327105 -0.01011,-1.327105 0.952482,0 1.053486,-0.453895 0.151387,-0.680308 -0.854985,-0.214587 -1.677154,0.07058 -2.01306,0.698227 -0.364873,0.681771 0.05508,1.442695 1.09222,1.979021 1.090204,0.563766 0.945411,1.336337 -0.232997,1.243199 -0.801548,-0.06335 -1.069244,0.156223 -0.673244,0.552222 0.09701,0.09701 0.63005,0.176389 1.184525,0.176389 0.775973,0 1.105268,-0.148241 1.429916,-0.643716 z m 2.765419,-1.753149 c 0,-1.691212 -0.07742,-2.101051 -0.396875,-2.101051 -0.319001,0 -0.396875,0.406674 -0.396875,2.072569 0,1.139913 0.07614,2.148707 0.169196,2.241765 0.42629,0.42629 0.624554,-0.276315 0.624554,-2.213283 z m 5.423958,1.99999 c 0,-0.145521 -0.444692,-0.301429 -0.988205,-0.346463 -0.649062,-0.05378 -1.125776,-0.27829 -1.389062,-0.654184 -0.556423,-0.794405 -0.50479,-1.168432 0.267977,-1.941198 0.532905,-0.532906 0.82865,-0.633733 1.455208,-0.496118 0.914686,0.200899 1.069258,-0.228482 0.241689,-0.671384 -1.361179,-0.72848 -3.212398,0.593133 -3.212398,2.293381 0,1.407248 1.012266,2.271294 2.531009,2.160408 0.60158,-0.04392 1.093782,-0.198921 1.093782,-0.344442 z m 6.614583,-1.88312 v -2.08563 l -0.79375,-0.06026 c -0.436562,-0.03314 -1.221054,-0.133228 -1.743315,-0.222408 -0.772899,-0.13198 -1.092865,-0.03888 -1.719792,0.500374 -0.646263,0.555892 -0.770226,0.861593 -0.770226,1.899431 0,1.822347 0.660438,2.275048 3.136287,2.149786 l 1.890796,-0.09566 z m -3.689163,0.898207 c -0.554349,-0.791443 -0.518403,-1.422104 0.117288,-2.057795 1.041871,-1.041871 2.645833,-0.309259 2.645833,1.208489 0,1.32901 -1.997153,1.942879 -2.763121,0.849306 z m 12.197169,0.695811 c 1.288667,-0.96213 1.739509,-1.801862 1.739509,-3.239989 0,-2.663628 -1.567511,-4.011534 -4.665106,-4.011534 H 90.48839 v 3.792361 c 0,2.085799 0.0893,3.882878 0.198437,3.99351 0.412211,0.417843 3.728337,0.0217 4.473111,-0.534348 z m -3.717199,-0.790871 c -0.266362,-0.694128 -0.180383,-4.60639 0.113293,-5.155129 0.325027,-0.607319 1.240251,-0.660075 2.478152,-0.142847 1.211838,0.506339 1.74702,1.367187 1.739989,2.7988 -0.0092,1.873826 -1.12667,2.917691 -3.123415,2.917691 -0.711034,0 -1.098997,-0.134409 -1.208019,-0.418515 z m 8.173775,-0.794159 c 0,-1.685494 -0.07752,-2.094618 -0.396875,-2.094618 -0.306791,0 -0.414839,0.414435 -0.476019,1.825833 -0.08766,2.02236 0.04743,2.638558 0.542304,2.4736 0.227279,-0.07576 0.33059,-0.764776 0.33059,-2.204815 z m 3.047906,0.571406 c 0.0982,-1.08956 0.2828,-1.631911 0.64588,-1.8974 1.12767,-0.824576 1.73017,-0.136302 1.73017,1.976492 0,1.426504 0.27501,1.848679 0.79562,1.221382 0.21279,-0.256392 0.28553,-0.958522 0.20896,-2.017016 -0.13728,-1.89787 -0.64604,-2.481646 -1.93062,-2.215257 -0.43656,0.09053 -1.15094,0.187367 -1.5875,0.215189 -0.79199,0.05047 -0.79392,0.05463 -0.87289,1.876419 -0.0876,2.02205 0.0473,2.637988 0.5423,2.474819 0.19024,-0.06271 0.38896,-0.756689 0.46808,-1.634628 z m 9.91668,-0.573556 c 0,-2.053345 -0.0124,-2.092624 -0.66146,-2.100837 -0.3638,-0.0046 -0.93203,-0.102773 -1.26272,-0.218155 -0.89518,-0.312336 -2.13975,0.0562 -2.60916,0.772621 -0.61796,0.943126 -0.52869,2.416787 0.19294,3.184928 0.55369,0.589376 0.77213,0.637956 2.47386,0.550184 l 1.86654,-0.09627 z m -3.51896,1.161907 c -0.45287,-0.452867 -0.39258,-1.950876 0.0983,-2.441726 1.312,-1.312001 3.13717,0.535113 2.22075,2.247454 -0.31396,0.586639 -1.802,0.711297 -2.31902,0.194272 z m 6.56556,-0.161136 c 0.005,-1.127173 0.44943,-2.121169 1.13608,-2.538102 0.7186,-0.43633 1.24127,0.446745 1.24127,2.097169 0,1.507702 0.1725,1.854539 0.70326,1.414043 0.20782,-0.172467 0.35508,-0.827381 0.35508,-1.579105 0,-1.078769 0.10612,-1.353952 0.66278,-1.718692 0.99525,-0.65211 1.4132,-0.143923 1.50799,1.833537 0.0594,1.238855 0.17365,1.631244 0.47506,1.631244 0.30276,0 0.41572,-0.398342 0.47633,-1.679783 0.12172,-2.57369 -0.68708,-3.445815 -2.45052,-2.642342 -0.53025,0.241599 -0.82045,0.230863 -1.34478,-0.04975 -0.53714,-0.287474 -0.84213,-0.295085 -1.55112,-0.03871 -0.48538,0.175515 -1.08847,0.240084 -1.3402,0.143484 -0.27011,-0.10365 -0.55353,-0.02428 -0.69153,0.193649 -0.34296,0.541632 -0.29303,3.519639 0.065,3.87768 0.47411,0.474115 0.75101,0.127918 0.75529,-0.944324 z m 9.38881,-0.998621 c 0,-1.685494 -0.0775,-2.094618 -0.39687,-2.094618 -0.30679,0 -0.41484,0.414435 -0.47602,1.825833 -0.0877,2.02236 0.0474,2.638558 0.5423,2.4736 0.22728,-0.07576 0.33059,-0.764776 0.33059,-2.204815 z m 5.3593,1.807986 c 0.0745,-0.226476 -0.21512,-0.330729 -0.91871,-0.330729 -1.25464,0 -1.66246,-0.368463 -1.66246,-1.502025 0,-1.073824 0.91383,-1.785731 1.95636,-1.524073 0.51338,0.128852 0.68947,0.07169 0.68947,-0.223827 0,-0.475702 -1.14091,-0.808916 -1.94073,-0.566811 -1.79147,0.542275 -2.38506,2.689995 -1.09894,3.976119 0.53553,0.535532 0.87815,0.648735 1.76537,0.583286 0.60549,-0.04467 1.14982,-0.230039 1.20964,-0.41194 z m 6.54695,-1.810136 c 0,-2.053345 -0.0124,-2.092624 -0.66146,-2.100837 -0.3638,-0.0046 -0.93202,-0.102773 -1.26271,-0.218155 -0.89518,-0.312336 -2.13975,0.0562 -2.60917,0.772621 -0.61796,0.943126 -0.52868,2.416787 0.19295,3.184928 0.55369,0.589376 0.77212,0.637956 2.47385,0.550184 l 1.86654,-0.09627 z m -3.51896,1.161907 c -0.45286,-0.452867 -0.39257,-1.950876 0.0983,-2.441726 1.312,-1.312001 3.13716,0.535113 2.22075,2.247454 -0.31396,0.586639 -1.802,0.711297 -2.31903,0.194272 z M 67.061468,74.477134 c 0.19567,-0.316601 -0.302055,-0.630298 -0.654475,-0.41249 -0.295899,0.182875 -0.101644,0.658791 0.268899,0.658791 0.128344,0 0.301854,-0.110836 0.385576,-0.246301 z m 7.551923,-0.150574 c 0,-0.218282 -0.178593,-0.396875 -0.396875,-0.396875 -0.218281,0 -0.396875,0.178593 -0.396875,0.396875 0,0.218281 0.178594,0.396875 0.396875,0.396875 0.218282,0 0.396875,-0.178594 0.396875,-0.396875 z m 24.991824,0.150574 c 0.19567,-0.316601 -0.302055,-0.630298 -0.654475,-0.41249 -0.295899,0.182875 -0.101644,0.658791 0.268899,0.658791 0.128345,0 0.301854,-0.110836 0.385576,-0.246301 z m 25.399995,0 c 0.19567,-0.316601 -0.30205,-0.630298 -0.65447,-0.41249 -0.2959,0.182875 -0.10165,0.658791 0.2689,0.658791 0.12834,0 0.30185,-0.110836 0.38557,-0.246301 z M 95.40307,65.339438 c 1.394554,-0.805156 2.726989,-1.46392 2.960968,-1.46392 0.233978,0 1.673542,0.728087 3.199042,1.617971 2.6522,1.54714 2.8035,1.600833 3.45623,1.226486 0.37544,-0.215317 1.84348,-1.069412 3.26231,-1.897989 l 2.57968,-1.506503 v -3.670716 -3.670715 l -0.7276,-0.506953 c -0.40018,-0.278824 -1.55452,-0.965024 -2.5652,-1.524889 -2.86514,-1.587137 -2.79261,-1.450569 -2.79261,-5.258144 v -3.285203 l -3.03365,-1.74188 c -1.6685,-0.958035 -3.198308,-1.741881 -3.399565,-1.741881 -0.368278,0 -5.356628,2.794012 -6.121124,3.428488 -0.329657,0.273591 -0.410244,0.975731 -0.410244,3.57436 0,3.764159 0.226479,3.397568 -3.346345,5.416575 -1.60781,0.908575 -2.472596,1.562727 -2.576075,1.948626 -0.08567,0.3195 -0.157397,1.907172 -0.159384,3.52816 -0.003,2.430619 0.07755,3.040841 0.459408,3.481158 0.649767,0.749244 5.948865,3.78169 6.348939,3.633225 0.181318,-0.06728 1.470667,-0.781101 2.86522,-1.586256 z M 89.877116,64.513937 C 88.74055,63.851678 87.857441,63.16922 87.91465,62.997362 c 0.173076,-0.519921 9.129118,-5.551177 9.576171,-5.379627 0.63181,0.242448 0.583397,4.698029 -0.05712,5.256732 -0.781496,0.681676 -4.660652,2.853427 -5.087697,2.848355 -0.221324,-0.0026 -1.332324,-0.546627 -2.468889,-1.208885 z m 11.525334,-0.260357 -2.447394,-1.4558 v -2.636131 c 0,-2.188216 0.06869,-2.63613 0.404251,-2.63613 0.773613,0 9.388613,5.137809 9.316633,5.556249 -0.0753,0.437976 -3.79118,2.651227 -4.42682,2.636723 -0.2196,-0.005 -1.5006,-0.66422 -2.84667,-1.464911 z M 86.960612,61.582463 c -0.239888,-0.239888 -0.217015,-4.641979 0.0261,-5.023261 0.106912,-0.167672 1.359676,-0.977546 2.78392,-1.799721 l 2.589535,-1.494863 1.511506,0.8516 c 1.985821,1.118834 2.966715,1.806604 2.966715,2.08016 0,0.236156 -9.06296,5.562474 -9.464791,5.562474 -0.130128,0 -0.315972,-0.07937 -0.412986,-0.176389 z m 17.551708,-2.442475 c -2.40053,-1.412178 -4.40127,-2.757967 -4.44608,-2.990642 -0.09054,-0.470144 3.47577,-2.595132 4.34535,-2.589175 0.27312,0.0019 1.56815,0.630079 2.87784,1.396018 l 2.38125,1.392617 0.0754,2.705023 c 0.0685,2.456014 0.0319,2.702663 -0.39687,2.679389 -0.25976,-0.0141 -2.43635,-1.181052 -4.83689,-2.59323 z m -9.173649,-5.290331 c -2.653055,-1.602768 -2.494906,-1.290286 -2.410944,-4.763744 l 0.0742,-3.069769 2.116667,-1.255677 c 1.164166,-0.690623 2.235729,-1.216482 2.38125,-1.168577 0.165172,0.05438 0.264583,2.165083 0.264583,5.617679 0,4.71847 -0.05828,5.537585 -0.396875,5.578299 -0.218281,0.02625 -1.131279,-0.395948 -2.028885,-0.938211 z m 3.616385,-4.658513 c 0,-3.380494 0.101075,-5.688542 0.249115,-5.688542 0.137013,0 1.208579,0.560736 2.381249,1.24608 l 2.13214,1.246079 v 3.22868 3.228681 l -2.10434,1.213782 c -1.15739,0.66758 -2.228952,1.213781 -2.381253,1.213781 -0.18424,0 -0.276911,-1.903737 -0.276911,-5.688541 z"
         id="path5" /><path
         style="fill:#645012"
         d="M 37.571728,65.330727 V 32.654686 h 60.192703 60.192699 v 32.676041 32.67604 H 97.764431 37.571728 Z m 34.340031,15.021384 c 0.594164,-0.812567 0.285138,-1.74477 -0.737951,-2.226093 -1.151959,-0.541952 -1.222102,-1.153625 -0.132291,-1.153625 1.295562,0 1.030492,-0.776456 -0.298207,-0.87352 -2.124987,-0.155234 -2.696384,1.727843 -0.827051,2.725603 1.207419,0.644463 1.137821,1.078572 -0.160339,1.000099 -0.683273,-0.0413 -0.963362,0.05103 -0.963362,0.317582 0,0.985918 2.432099,1.149622 3.119201,0.209954 z m 7.839367,0.560724 c 0.759289,-0.291366 0.475234,-0.897734 -0.420547,-0.897734 -1.008255,0 -1.806771,-0.652911 -1.806771,-1.477316 0,-0.851793 0.687376,-1.4331 1.694593,-1.4331 0.474675,0 0.941387,-0.07834 1.037139,-0.174094 0.374532,-0.374532 -0.467968,-0.88424 -1.461565,-0.88424 -1.918601,0 -3.207095,2.062499 -2.321849,3.716596 0.518818,0.969419 2.206753,1.561348 3.279,1.149888 z m 6.183503,-0.101072 0.870197,-0.0029 -0.07645,-2.315104 c -0.07544,-2.284604 -0.08502,-2.314145 -0.726919,-2.242304 -0.35776,0.04004 -0.993004,-0.04661 -1.411653,-0.192549 -0.559247,-0.194955 -0.995209,-0.167567 -1.643335,0.103238 -1.071986,0.447904 -1.453915,1.101776 -1.453915,2.489139 0,0.858558 0.155563,1.183104 0.845259,1.763445 0.690953,0.581399 1.016983,0.682826 1.785937,0.555599 0.517374,-0.0856 1.332268,-0.15695 1.810876,-0.158552 z m -2.681273,-1.280516 c -0.658765,-0.727927 -0.554543,-1.808758 0.223576,-2.318601 0.612741,-0.401483 0.710176,-0.401483 1.322917,0 0.846229,0.55447 0.938112,2.10661 0.149686,2.528563 -0.739783,0.39592 -1.199346,0.339033 -1.696179,-0.209962 z m 29.522124,0.908802 c 0.3373,-0.507817 0.23345,-3.814166 -0.12679,-4.036807 -0.29611,-0.18301 -1.54741,-0.338377 -2.97333,-0.369186 -2.42834,-0.05247 -3.11115,3.850329 -0.83627,4.7799 0.72106,0.294639 3.67895,0.01368 3.93639,-0.373907 z m -3.50167,-0.954114 c -1.09392,-1.093911 -0.33613,-2.570834 1.23787,-2.412599 0.50224,0.05049 1.14337,0.820475 1.14337,1.373164 0,0.605843 -0.89316,1.568601 -1.4552,1.568601 -0.21828,0 -0.635,-0.238125 -0.92604,-0.529166 z m 20.93655,1.304464 c 0.67196,-0.359621 0.20448,-1.05283 -0.5729,-0.849539 -0.71496,0.186967 -1.84282,-0.608723 -1.84282,-1.300087 0,-0.920586 0.75855,-1.536088 1.89309,-1.536088 0.55953,0 1.01732,-0.09525 1.01732,-0.211667 0,-0.935739 -2.19188,-1.14761 -3.25129,-0.314276 -2.29319,1.803821 0.18395,5.588499 2.7566,4.211657 z m 6.90679,-0.35035 c 0.3373,-0.507817 0.23345,-3.814166 -0.12679,-4.036807 -0.29612,-0.18301 -1.54741,-0.338377 -2.97334,-0.369186 -2.42833,-0.05247 -3.11114,3.850329 -0.83626,4.7799 0.72105,0.294639 3.67895,0.01368 3.93639,-0.373907 z m -3.50168,-0.954114 c -1.09391,-1.093911 -0.33612,-2.570834 1.23787,-2.412599 0.50225,0.05049 1.14338,0.820475 1.14338,1.373164 0,0.605843 -0.89316,1.568601 -1.45521,1.568601 -0.21828,0 -0.635,-0.238125 -0.92604,-0.529166 z m -72.656427,0.904402 c 0.08833,-0.230183 0.160599,-0.94229 0.160599,-1.58246 0,-1.265587 0.111899,-1.344857 2.116667,-1.499478 0.615016,-0.04743 0.926042,-0.204719 0.926042,-0.468298 0,-0.288636 -0.396875,-0.432954 -1.455209,-0.529166 l -1.455208,-0.132292 -0.08136,-1.124479 -0.08136,-1.124479 h 1.570317 c 1.005334,0 1.678339,-0.130161 1.870558,-0.361771 0.563523,-0.679003 -0.302358,-0.989832 -2.525471,-0.906581 l -2.075602,0.07773 -0.07304,4.034895 c -0.06928,3.827151 -0.04689,4.034896 0.434714,4.034896 0.279262,0 0.58002,-0.188331 0.668349,-0.418514 z m 6.246016,-1.814829 c 0,-2.274129 -0.234628,-2.838396 -0.937632,-2.254955 -0.262667,0.217994 -0.385285,0.849892 -0.385285,1.985514 0,2.007208 0.162775,2.502784 0.822057,2.502784 0.451866,0 0.50086,-0.218463 0.50086,-2.233343 z m 7.618676,0.0045 c 0.07896,-2.115168 -0.129074,-2.649754 -0.913954,-2.348567 -0.254223,0.09755 -0.354723,0.715302 -0.354723,2.180381 0,2.142328 0.107977,2.465516 0.780848,2.337172 0.320624,-0.06116 0.426758,-0.533051 0.487829,-2.168986 z m 20.454173,1.628268 c 2.429743,-1.623174 2.380813,-5.049908 -0.09854,-6.901012 -0.748142,-0.558569 -3.115933,-0.887537 -4.281883,-0.594902 l -0.673678,0.169082 v 3.78732 c 0,2.083026 0.07938,3.866695 0.176389,3.963709 0.09701,0.09701 1.031906,0.176389 2.077539,0.176389 1.536082,0 2.073784,-0.115327 2.800173,-0.600586 z m -3.410571,-0.682103 c -0.249526,-0.158314 -0.320413,-0.919258 -0.264583,-2.840219 l 0.07626,-2.623967 1.088206,-0.07959 c 2.166324,-0.158435 3.610832,2.073807 2.648234,4.092397 -0.599737,1.257661 -2.577999,2.066878 -3.548118,1.451375 z m 7.881469,-0.950654 c 0,-2.274129 -0.234628,-2.838396 -0.937632,-2.254955 -0.262666,0.217994 -0.385285,0.849892 -0.385285,1.985514 0,2.007208 0.162776,2.502784 0.822058,2.502784 0.451865,0 0.500859,-0.218463 0.500859,-2.233343 z m 2.914314,1.108864 c 0.005,-1.52786 0.50382,-2.447396 1.32683,-2.447396 0.61453,0 0.66156,0.102918 0.78594,1.719792 0.11533,1.499305 0.20013,1.719791 0.66146,1.719791 0.47253,0 0.53742,-0.2021 0.6063,-1.888342 0.10216,-2.501126 -0.17565,-2.799248 -2.46531,-2.645517 -0.92011,0.06178 -1.80098,0.191461 -1.95748,0.288186 -0.30092,0.185974 -0.39679,3.248459 -0.12396,3.959451 0.0883,0.230183 0.38599,0.418514 0.66146,0.418514 0.41225,0 0.50155,-0.198947 0.50476,-1.124479 z m 13.22941,-0.543988 c 0.13721,-1.539634 0.51613,-2.104754 1.31877,-1.966847 0.28824,0.04952 0.43309,0.538302 0.52917,1.785605 0.11531,1.496931 0.20023,1.717417 0.66146,1.717417 0.44243,0 0.5515,-0.221806 0.66542,-1.35317 0.31091,-3.087747 2.1127,-2.963957 2.1127,0.145151 0,1.163922 0.0696,1.340311 0.52917,1.340311 0.48438,0 0.52917,-0.176389 0.52917,-2.08427 0,-2.448083 -0.25903,-2.822413 -1.7823,-2.575662 -0.5477,0.08872 -1.17442,0.148351 -1.3927,0.13251 -1.26902,-0.0921 -3.88534,-0.101687 -4.16719,-0.01528 -0.2273,0.06969 -0.33073,0.740717 -0.33073,2.145659 0,2.142263 0.10793,2.465358 0.78085,2.337431 0.29379,-0.05585 0.44839,-0.511222 0.54621,-1.608858 z m 9.25627,-0.564876 c 0,-2.274129 -0.23462,-2.838396 -0.93763,-2.254955 -0.26266,0.217994 -0.38528,0.849892 -0.38528,1.985514 0,2.007208 0.16277,2.502784 0.82205,2.502784 0.45187,0 0.50086,-0.218463 0.50086,-2.233343 z m -58.032597,-4.00215 c 0.220519,-0.574664 -0.339311,-1.11509 -0.740026,-0.714375 -0.338676,0.338676 -0.128866,1.129035 0.299715,1.129035 0.154655,0 0.352795,-0.186597 0.440311,-0.41466 z m 7.672916,0 c 0.240773,-0.627444 -0.323536,-1.069965 -0.829235,-0.650272 -0.313378,0.260081 -0.339841,0.427555 -0.111108,0.703162 0.396208,0.477401 0.744365,0.457819 0.940343,-0.05289 z m 24.870831,0 c 0.22052,-0.574664 -0.339311,-1.11509 -0.740026,-0.714375 -0.338676,0.338676 -0.128866,1.129035 0.299715,1.129035 0.154655,0 0.352795,-0.186597 0.440311,-0.41466 z m 25.4,0 c 0.22052,-0.574664 -0.33931,-1.11509 -0.74003,-0.714375 -0.33867,0.338676 -0.12886,1.129035 0.29972,1.129035 0.15465,0 0.35279,-0.186597 0.44031,-0.41466 z m -29.531315,-9.141296 2.8901,-1.618457 2.774455,1.618457 c 1.52595,0.890151 2.94674,1.618456 3.15731,1.618456 0.21058,0 1.76165,-0.801418 3.44683,-1.78093 l 3.06397,-1.780929 v -3.895941 -3.895941 l -1.91822,-1.100189 c -1.05503,-0.605103 -2.36472,-1.385951 -2.91042,-1.735216 l -0.99219,-0.635028 -0.004,-3.237392 c -0.002,-1.780565 -0.0915,-3.368954 -0.19844,-3.529753 -0.23367,-0.351448 -6.234134,-3.815108 -6.572059,-3.793604 -0.130299,0.0083 -1.606125,0.820348 -3.279615,1.804569 l -3.042708,1.789495 -0.132291,3.497494 c -0.102529,2.710626 -0.221581,3.55568 -0.529167,3.756117 -0.218281,0.142242 -1.42505,0.85309 -2.681708,1.579663 -1.256658,0.726572 -2.420964,1.48507 -2.587347,1.685549 -0.203253,0.244905 -0.278298,1.566205 -0.228709,4.026825 l 0.07381,3.662316 3.042708,1.789986 c 1.67349,0.984493 3.199069,1.790644 3.390176,1.791448 0.191108,8.04e-4 1.648014,-0.726844 3.237569,-1.616995 z M 90.828353,64.86948 c -2.249905,-1.215169 -2.836475,-1.651733 -2.642022,-1.966366 0.183958,-0.297649 8.935773,-5.377584 9.264612,-5.377584 0.110197,0 0.166281,1.156659 0.124632,2.570353 l -0.07573,2.570353 -1.058334,0.703371 c -0.582083,0.386855 -1.72421,1.076458 -2.538059,1.532452 l -1.479726,0.829081 z m 12.215547,0.153203 c -0.7209,-0.381801 -1.9358,-1.092279 -2.69978,-1.57884 l -1.389064,-0.884657 v -2.368922 c 0,-1.302907 0.11507,-2.440039 0.255712,-2.52696 0.140642,-0.08692 2.352252,1.054645 4.914702,2.536815 5.32364,3.079308 5.20718,2.807679 1.96114,4.574192 l -1.73199,0.942556 z m -15.938528,-6.071661 0.07573,-2.543258 2.467387,-1.425492 c 1.357063,-0.784021 2.581296,-1.425492 2.720517,-1.425492 0.493147,0 4.199227,2.253666 4.201993,2.555231 0.0032,0.347913 -8.559014,5.382268 -9.15392,5.382268 -0.318568,0 -0.373971,-0.452048 -0.311704,-2.543257 z m 17.701318,0.181808 c -2.23864,-1.297094 -4.24989,-2.537994 -4.46945,-2.757555 -0.440724,-0.440726 -0.11621,-0.701421 2.74109,-2.202058 l 1.34515,-0.706464 2.42708,1.388913 c 1.3349,0.763902 2.55027,1.619077 2.70082,1.900388 0.15055,0.28131 0.23898,1.431436 0.19652,2.555835 -0.0593,1.56909 -0.16949,2.060045 -0.47409,2.111827 -0.21829,0.03711 -2.22849,-0.993791 -4.46712,-2.290886 z m -9.55483,-5.52881 c -0.945351,-0.550404 -1.86633,-1.292213 -2.04662,-1.648466 -0.395671,-0.781848 -0.444392,-4.844867 -0.06656,-5.55085 0.269701,-0.503941 3.674413,-2.637507 4.208894,-2.637507 0.193779,0 0.284566,1.73045 0.284566,5.423958 0,4.16554 -0.07673,5.422756 -0.330729,5.418779 -0.181901,-0.0028 -1.104198,-0.45551 -2.049551,-1.005914 z m 3.703196,-4.412865 c 0,-4.164182 0.07682,-5.423347 0.330729,-5.421327 0.181901,0.0014 1.223695,0.511147 2.315105,1.132665 l 1.98437,1.130032 v 3.15537 3.155369 l -1.85208,1.116508 c -2.948349,1.77738 -2.778124,2.038931 -2.778124,-4.268617 z"
         id="path4" /><path
         style="fill:#47390d"
         d="M 37.571728,65.330727 V 32.654686 h 60.192703 60.192699 v 32.676041 32.67604 H 97.764431 37.571728 Z m 35.98333,21.695832 c 1.877014,-0.503812 2.805177,-0.495684 4.9511,0.04335 1.652227,0.415027 1.891375,0.412935 4.177303,-0.03653 2.443733,-0.480489 2.757203,-0.472242 5.448204,0.143332 1.274343,0.29151 1.733401,0.276941 3.307291,-0.104962 2.262285,-0.548942 2.833108,-0.550676 5.185026,-0.01574 1.746802,0.397302 1.98985,0.395086 3.569628,-0.03254 1.24079,-0.335865 2.06443,-0.404445 3.0726,-0.255837 0.75756,0.111669 2.50848,0.187663 3.89093,0.168877 1.38245,-0.01879 3.52557,-0.02434 4.7625,-0.01234 1.23693,0.012 3.32052,0.0123 4.63021,6.6e-4 1.30968,-0.01164 3.33375,-0.01087 4.49791,0.0017 2.74629,0.02967 6.28655,-0.0091 8.53281,-0.09338 0.98227,-0.03687 2.38125,0.02123 3.10886,0.129093 1.11585,0.165425 1.01402,0.106599 -0.6506,-0.375834 -1.77185,-0.513513 -2.12331,-0.538181 -3.43958,-0.241416 -2.69667,0.607991 -3.89359,0.636551 -5.81305,0.138707 -1.6009,-0.41522 -2.03975,-0.434293 -3.37674,-0.146755 -2.80249,0.602715 -3.81322,0.629855 -5.82376,0.156379 -1.69255,-0.398588 -2.15977,-0.415401 -3.46485,-0.124683 -2.60781,0.58091 -3.71852,0.600691 -5.64678,0.100566 -1.75684,-0.455666 -1.967,-0.457873 -3.97918,-0.0418 -1.977467,0.408897 -2.268323,0.409014 -4.205818,0.0017 -1.85242,-0.389438 -2.264216,-0.396039 -3.742622,-0.05999 -2.064751,0.469326 -3.503008,0.467904 -5.958588,-0.0059 -1.747,-0.337077 -2.092257,-0.325861 -3.911043,0.127049 -1.903443,0.47399 -2.082436,0.476287 -3.90468,0.05011 -2.369294,-0.554121 -3.195921,-0.554716 -5.388804,-0.0039 -1.612038,0.404931 -1.880219,0.404931 -3.764588,0 -1.115897,-0.239794 -2.484108,-0.435989 -3.04047,-0.435989 -1.126731,0 -3.995205,0.757874 -3.759728,0.993351 0.08286,0.08285 1.133481,1.61e-4 2.334724,-0.183764 1.862588,-0.285186 2.398279,-0.275556 3.639285,0.06542 1.887286,0.518545 2.977223,0.530225 4.7625,0.05104 z m -12.435416,-7.675241 0.132292,-1.585175 1.455208,-0.132292 c 1.340556,-0.121868 1.455209,-0.184406 1.455209,-0.79375 0,-0.609343 -0.114653,-0.671881 -1.455209,-0.79375 L 61.251934,75.91406 v -0.926042 -0.926042 l 1.719792,-0.132291 c 1.499305,-0.115332 1.719791,-0.200134 1.719791,-0.661459 0,-0.492032 -0.176389,-0.529166 -2.513541,-0.529166 h -2.513542 l -0.07359,3.800374 c -0.07581,3.914938 0.08343,4.645888 0.975304,4.476877 0.310781,-0.05889 0.455889,-0.495395 0.553498,-1.664993 z m 6.064601,1.350323 c 0.19364,-0.233322 0.279612,-1.144836 0.230834,-2.447396 -0.07553,-2.016859 -0.09645,-2.075602 -0.739185,-2.075602 -0.643242,0 -0.663608,0.05765 -0.739503,2.09328 -0.04293,1.151304 -0.0169,2.252632 0.05784,2.447396 0.177309,0.46206 0.799535,0.452817 1.190012,-0.01768 z m 4.863363,-0.472958 c 0.50489,-0.678929 0.508597,-0.744857 0.07876,-1.400872 -0.248086,-0.378627 -0.742494,-0.799214 -1.098686,-0.934637 -0.895003,-0.34028 -0.811937,-0.788489 0.146129,-0.788489 0.614817,0 0.79375,-0.118153 0.79375,-0.524126 0,-1.104528 -2.318755,-1.014774 -3.061302,0.118497 -0.572938,0.874413 -0.271132,1.662031 0.839885,2.191838 1.086653,0.518189 1.033565,1.023457 -0.09583,0.912069 -0.996612,-0.09829 -1.389148,0.420883 -0.699737,0.925482 0.822111,0.601726 2.476426,0.334773 3.097031,-0.499762 z m 2.774151,-1.737959 0.07607,-2.444373 H 74.22644 c -0.668123,0 -0.671387,0.01136 -0.671387,2.337153 0,2.432008 0.09753,2.760502 0.780848,2.629908 0.32797,-0.06268 0.424964,-0.566303 0.485851,-2.522688 z m 5.320292,2.340779 c 0.636015,-0.402722 0.1212,-1.080626 -0.824,-1.085037 -1.040344,-0.0049 -1.402307,-0.212992 -1.62753,-0.935869 -0.273449,-0.877668 0.4333,-1.573621 1.598031,-1.573621 0.830552,0 1.013382,-0.09368 1.013382,-0.519264 0,-0.789403 -1.367979,-1.090042 -2.606075,-0.572733 -1.846376,0.771466 -2.194348,3.242379 -0.628026,4.459551 0.625981,0.486444 2.451573,0.621229 3.074218,0.226973 z m 6.669785,-0.188212 c 0.143074,-0.172394 0.225158,-1.247464 0.182408,-2.389046 L 86.916515,76.178643 85.213,75.968763 c -2.072054,-0.255285 -2.949969,0.04882 -3.594157,1.245008 -0.60969,1.132125 -0.357647,2.580934 0.576875,3.316029 0.558236,0.439109 1.019974,0.527487 2.519733,0.482282 1.025472,-0.03091 1.951108,-0.193745 2.096383,-0.368791 z m -3.722468,-1.404546 c -0.401514,-0.750235 -0.337758,-1.200498 0.244613,-1.727537 1.12523,-1.018319 2.609334,0.315128 1.875934,1.6855 -0.3908,0.730216 -1.737952,0.756922 -2.120547,0.04204 z m 11.90097,1.239377 c 2.858232,-1.448751 3.007861,-5.4323 0.273267,-7.275142 -0.731303,-0.492825 -1.244976,-0.596212 -2.962257,-0.596212 h -2.077539 v 4.056944 c 0,2.23132 0.07938,4.13632 0.176389,4.233334 0.09701,0.09701 0.905223,0.176388 1.79602,0.176388 1.155233,0 1.956395,-0.170694 2.79412,-0.595312 z M 91.707322,79.06742 c -0.08833,-0.230183 -0.160599,-1.278989 -0.160599,-2.33068 0,-2.438379 0.326242,-2.953652 1.706179,-2.694774 1.433912,0.269004 2.262571,1.266963 2.262571,2.724831 0,1.601076 -1.067912,2.719138 -2.597173,2.719138 -0.713732,0 -1.101851,-0.134134 -1.210978,-0.418515 z m 8.020668,1.634221 c 0.19364,-0.233322 0.27961,-1.144836 0.230834,-2.447396 -0.07553,-2.016859 -0.09645,-2.075602 -0.739185,-2.075602 -0.643242,0 -0.663607,0.05765 -0.739503,2.09328 -0.04292,1.151304 -0.0169,2.252632 0.05784,2.447396 0.177309,0.46206 0.799536,0.452817 1.190012,-0.01768 z m 2.87832,0.05429 c 0.17462,-0.174625 0.3175,-0.870546 0.3175,-1.546492 0,-0.889096 0.14497,-1.360195 0.5242,-1.703391 0.84753,-0.767002 1.32788,-0.131781 1.32788,1.756001 0,1.151469 0.10546,1.603875 0.40024,1.716995 0.79559,0.305295 1.18726,-0.420142 1.18726,-2.198994 0,-1.470445 -0.0912,-1.79066 -0.67716,-2.376579 -0.55038,-0.550384 -0.8352,-0.645222 -1.52135,-0.506572 -0.46431,0.09382 -1.26092,0.195595 -1.77024,0.226163 l -0.92604,0.05558 -0.078,2.09328 c -0.0429,1.151304 -0.0169,2.252632 0.0578,2.447396 0.16879,0.43984 0.73673,0.4578 1.15792,0.03661 z m 10.23937,-2.210165 V 76.17864 l -1.80387,-0.217116 c -2.12802,-0.25613 -2.89917,0.09045 -3.52293,1.583301 -0.30736,0.735617 -0.32601,1.115372 -0.0899,1.830684 0.46152,1.398417 1.11674,1.707795 3.42328,1.616385 l 1.99346,-0.079 z m -3.51896,0.887249 c -0.17462,-0.174625 -0.3175,-0.627063 -0.3175,-1.005417 0,-0.831982 0.44184,-1.322916 1.19063,-1.322916 0.74878,0 1.19062,0.490934 1.19062,1.322916 0,0.831982 -0.44184,1.322917 -1.19062,1.322917 -0.3056,0 -0.6985,-0.142875 -0.87313,-0.3175 z m 6.59789,-0.06424 c 0.11319,-1.051827 0.32323,-1.679105 0.63975,-1.910548 0.78166,-0.571566 1.17611,0.0334 1.17611,1.803824 0,1.151469 0.10546,1.603875 0.40025,1.716995 0.718,0.275525 1.18725,-0.424521 1.18725,-1.771194 0,-1.357147 0.51817,-2.19231 1.19828,-1.931327 0.28035,0.107579 0.38922,0.576425 0.38922,1.676152 0,1.716955 0.47191,2.452655 1.19063,1.856173 0.28238,-0.234354 0.39687,-0.854343 0.39687,-2.149063 0,-1.49551 -0.0989,-1.918623 -0.55535,-2.37504 -0.4306,-0.430597 -0.74264,-0.516257 -1.38907,-0.381315 -0.45854,0.09572 -1.10159,0.162977 -1.42902,0.149458 -0.68901,-0.02845 -2.49793,-0.0439 -3.61765,-0.0309 -0.42536,0.0049 -0.87002,0.161268 -0.98813,0.347399 -0.34508,0.543785 -0.26391,4.027993 0.10236,4.394267 0.68757,0.687574 1.12497,0.217713 1.2985,-1.394881 z m 9.20338,1.332865 c 0.19364,-0.233322 0.27961,-1.144836 0.23083,-2.447396 -0.0755,-2.016859 -0.0964,-2.075602 -0.73918,-2.075602 -0.64324,0 -0.66361,0.05765 -0.73951,2.09328 -0.0429,1.151304 -0.0169,2.252632 0.0579,2.447396 0.1773,0.46206 0.79953,0.452817 1.19001,-0.01768 z m 5.28489,0.129862 c 0.64258,-0.406878 0.12048,-1.080985 -0.83723,-1.080985 -1.07313,0 -1.51643,-0.399478 -1.51643,-1.366524 0,-0.848562 0.62778,-1.282898 1.73741,-1.202053 1.06845,0.07784 1.21477,-0.766997 0.20007,-1.155192 -0.96695,-0.36993 -2.55741,0.07886 -3.11853,0.879976 -0.22355,0.319157 -0.40645,1.078991 -0.40645,1.68852 0,0.912701 0.14363,1.229088 0.81405,1.793211 0.83867,0.705698 2.36973,0.922616 3.12711,0.443047 z m 6.77446,-2.285734 v -2.367126 l -1.80387,-0.217116 c -2.12801,-0.25613 -2.89917,0.09045 -3.52292,1.583301 -0.30736,0.735617 -0.32602,1.115372 -0.0899,1.830684 0.46152,1.398417 1.11674,1.707795 3.42329,1.616385 l 1.99345,-0.079 z m -3.51895,0.887249 c -0.17463,-0.174625 -0.3175,-0.627063 -0.3175,-1.005417 0,-0.831982 0.44184,-1.322916 1.19062,-1.322916 0.74879,0 1.19063,0.490934 1.19063,1.322916 0,0.831982 -0.44184,1.322917 -1.19063,1.322917 -0.30559,0 -0.6985,-0.142875 -0.87312,-0.3175 z M 67.33735,74.330183 c 0,-0.583713 -0.822562,-0.874394 -1.253861,-0.443096 -0.444699,0.4447 -0.0061,1.14755 0.657366,1.053342 0.390307,-0.05542 0.596495,-0.266366 0.596495,-0.610246 z m 7.611893,0.327106 c 0.187663,-0.537995 -0.09301,-0.992188 -0.613128,-0.992188 -0.583317,0 -0.882412,0.412576 -0.680515,0.938712 0.180471,0.4703 1.134489,0.509737 1.293643,0.05348 z m 24.931854,-0.327106 c 0,-0.583713 -0.822562,-0.874394 -1.25386,-0.443096 -0.4447,0.4447 -0.0061,1.14755 0.657365,1.053342 0.390307,-0.05542 0.596495,-0.266366 0.596495,-0.610246 z m 25.400003,0 c 0,-0.583713 -0.82257,-0.874394 -1.25387,-0.443096 -0.4447,0.4447 -0.006,1.14755 0.65737,1.053342 0.39031,-0.05542 0.5965,-0.266366 0.5965,-0.610246 z M 95.25089,65.727602 c 1.553413,-0.873125 2.969079,-1.5875 3.145924,-1.5875 0.176845,0 1.559148,0.714375 3.071786,1.5875 1.51263,0.873125 2.82528,1.5875 2.917,1.5875 0.24728,0 5.73877,-3.199344 6.27727,-3.657136 0.39937,-0.339518 0.46246,-0.888093 0.45897,-3.990642 -0.002,-1.978358 -0.0915,-3.727153 -0.19844,-3.886212 -0.10691,-0.159058 -1.33802,-0.959535 -2.73578,-1.778837 -1.39777,-0.819302 -2.67385,-1.649232 -2.83574,-1.844289 -0.17113,-0.206206 -0.32559,-1.729652 -0.36901,-3.639695 l -0.0747,-3.285045 -3.04271,-1.789902 c -1.67349,-0.984446 -3.244638,-1.79056 -3.491444,-1.791364 -0.370497,-0.0012 -6.090659,3.144988 -6.554299,3.604985 -0.07739,0.07678 -0.200243,1.700432 -0.273004,3.608108 l -0.132291,3.468501 -2.778125,1.608354 -2.778125,1.608355 -0.07289,4.002808 -0.07289,4.002808 3.247889,1.878581 c 1.786339,1.03322 3.297011,1.879041 3.357049,1.879602 0.06004,5.61e-4 1.380134,-0.713355 2.933548,-1.58648 z m -5.027083,-1.309448 c -0.945886,-0.563666 -1.719792,-1.177043 -1.719792,-1.363059 0,-0.433417 8.494746,-5.360629 8.85651,-5.137047 0.39367,0.243301 0.34388,4.180238 -0.05911,4.674283 -0.438892,0.538052 -4.50786,2.873439 -4.984191,2.860679 -0.205491,-0.0055 -1.147527,-0.471189 -2.093412,-1.034856 z m 11.377083,-0.359743 -2.248959,-1.373518 -0.07607,-2.447395 c -0.04506,-1.449642 0.02808,-2.447396 0.179413,-2.447396 0.41355,0 9.024786,5.054834 9.024786,5.297589 0,0.285882 -3.78611,2.380255 -4.26591,2.359783 -0.20037,-0.0085 -1.37633,-0.633628 -2.61326,-1.389063 z M 87.225196,61.31788 c -0.09701,-0.09701 -0.176389,-1.109046 -0.176389,-2.248959 0,-1.661201 0.09682,-2.169388 0.487797,-2.560366 0.640515,-0.640515 4.356832,-2.687203 4.879345,-2.687203 0.223964,0 1.260758,0.492109 2.303987,1.093575 1.555114,0.89659 1.833341,1.154012 1.544596,1.429094 -0.306253,0.291762 -8.599189,5.150247 -8.790943,5.150247 -0.0396,0 -0.151379,-0.07937 -0.248393,-0.176388 z m 17.480224,-2.391055 c -2.43985,-1.411306 -4.39474,-2.690049 -4.34421,-2.841649 0.12957,-0.388698 3.39194,-2.252388 3.95374,-2.258645 0.25581,-0.0028 1.53573,0.603547 2.84427,1.347544 l 2.37917,1.352724 v 2.483735 c 0,1.366054 -0.0893,2.483413 -0.19844,2.483019 -0.10914,-3.93e-4 -2.19468,-1.155421 -4.63453,-2.566728 z m -9.544362,-5.519439 -2.026835,-1.186463 v -3.013372 -3.013372 l 1.875325,-1.081205 c 1.031429,-0.594663 2.04346,-1.081205 2.248958,-1.081205 0.308976,0 0.373633,0.890127 0.373633,5.14376 0,2.829068 -0.09995,5.205536 -0.222123,5.28104 -0.122168,0.0755 -1.134199,-0.396629 -2.248958,-1.049183 z m 4.058581,-4.239014 v -5.44673 l 1.785941,0.977113 c 2.6039,1.424632 2.71198,1.60025 2.71198,4.406803 0,1.303133 -0.11456,2.583384 -0.25458,2.845003 -0.22139,0.413672 -3.677394,2.664541 -4.09116,2.664541 -0.0837,0 -0.152181,-2.451028 -0.152181,-5.44673 z"
         id="path3" /><path
         style="fill:#322809"
         d="M 37.571728,65.330727 V 32.654686 h 60.192703 60.192699 v 32.676041 32.67604 H 97.764431 37.571728 Z m 29.368747,21.756778 c 1.701811,0.04793 4.701829,0.06991 8.929687,0.06543 1.200547,-0.0013 3.313906,-0.002 4.696354,-0.0015 1.382448,4.25e-4 3.40651,7.74e-4 4.497916,7.74e-4 1.091406,0 3.115469,0 4.497916,0 1.382448,0 3.40651,-0.0038 4.497917,-0.0084 4.198674,-0.01781 6.691785,-0.01462 8.731245,0.01118 1.16417,0.01473 3.1287,0.02276 4.36563,0.01785 1.23693,-0.0049 3.38005,-0.0042 4.7625,0.0017 1.38245,0.0058 3.46604,0.0059 4.63021,1.85e-4 2.13588,-0.01051 5.21725,-5.38e-4 8.86354,0.02867 1.0914,0.0087 2.7354,-0.07202 3.65332,-0.179476 1.07819,-0.126219 2.23034,-0.07624 3.25497,0.141204 1.10616,0.234744 1.66996,0.252653 1.86342,0.05919 0.19346,-0.193463 0.12924,-0.316807 -0.21227,-0.407673 -2.73185,-0.726878 -3.12943,-0.773923 -4.92474,-0.582734 -1.0532,0.112159 -2.74835,0.193127 -3.76699,0.179928 -2.16472,-0.02805 -5.97171,-0.046 -9.06198,-0.04272 -1.20055,0.0013 -3.31391,0.002 -4.69636,0.0015 -1.38244,-4.25e-4 -3.40651,0.0015 -4.49791,0.0042 -1.09141,0.0027 -3.175,0.0031 -4.63021,7.68e-4 -1.45521,-0.0023 -3.270912,0.01685 -4.034897,0.04257 -0.763984,0.02572 -2.012774,-0.09185 -2.775089,-0.261268 -0.990439,-0.22012 -1.74559,-0.230497 -2.645833,-0.03636 -2.481829,0.535215 -3.943596,0.57109 -5.825851,0.14298 -1.460606,-0.332207 -2.139323,-0.364016 -3.146086,-0.147445 -2.516992,0.541447 -3.943623,0.574035 -5.931871,0.135498 -1.570016,-0.346289 -2.233092,-0.376314 -3.28933,-0.148942 -2.677788,0.576437 -3.841354,0.603016 -5.835901,0.133307 -1.887385,-0.444472 -2.048645,-0.443269 -4.128006,0.03079 -1.258534,0.286922 -2.215195,0.647904 -2.286511,0.86278 -0.100928,0.304097 0.129289,0.328606 1.3014,0.138548 0.78321,-0.126997 2.197925,-0.20911 3.14381,-0.182472 z m 5.093229,-6.573346 c 0.848482,-1.021947 0.439087,-2.21537 -0.926042,-2.699496 -0.640741,-0.22723 -0.589498,-0.80477 0.05642,-0.63586 0.285691,0.07471 0.657457,-0.03047 0.826147,-0.233724 0.879938,-1.060261 -1.90488,-1.662349 -2.933085,-0.634144 -1.008849,1.008849 -0.681306,1.836855 1.228108,3.104567 0.426769,0.283343 0.351957,0.318275 -0.56665,0.264583 -0.904519,-0.05287 -1.070107,0.02074 -1.139342,0.506451 -0.167791,1.177111 2.536228,1.433563 3.454446,0.327623 z m 8.27611,0.288151 c 0.613458,-0.509125 0.144301,-1.051792 -0.909314,-1.051792 -1.103232,0 -1.612109,-0.375832 -1.612109,-1.190625 0,-0.821655 0.510932,-1.190625 1.64872,-1.190625 0.676333,0 1.066679,-0.138008 1.172841,-0.41466 0.236316,-0.615831 -0.250976,-0.951917 -1.600781,-1.10406 -1.109762,-0.125086 -1.281303,-0.06117 -2.139676,0.797199 -1.439298,1.439299 -1.2508,3.109096 0.472761,4.187913 0.888262,0.555983 2.276251,0.540384 2.967558,-0.03335 z m 6.408264,0.125043 c 0.415942,-0.128147 0.466302,-4.5014 0.05476,-4.755744 -0.151781,-0.09381 -1.104441,-0.228893 -2.117023,-0.300195 -1.769717,-0.124616 -1.871802,-0.09889 -2.634452,0.663755 -0.626113,0.626113 -0.793394,1.024494 -0.793394,1.889474 0,1.413672 0.369873,2.075994 1.409895,2.524664 0.752992,0.324844 2.9937,0.312787 4.080209,-0.02195 z m -3.320521,-1.494335 c -0.950744,-0.950744 0.11468,-2.682058 1.27,-2.06375 0.968673,0.518418 0.554711,2.38125 -0.529167,2.38125 -0.232833,0 -0.566208,-0.142875 -0.740833,-0.3175 z m 29.514273,1.161249 c 0.36944,-0.464388 0.44981,-3.685966 0.10549,-4.228721 -0.28559,-0.450187 -3.82214,-0.701919 -4.53105,-0.322521 -0.68758,0.367982 -1.32913,1.623125 -1.32913,2.600339 0,0.87259 0.85429,2.100532 1.69019,2.42944 0.85813,0.33766 3.67942,0.0055 4.0645,-0.478537 z M 109.425,79.334744 c -0.22868,-0.228676 -0.41578,-0.63689 -0.41578,-0.907143 0,-0.480908 0.64817,-1.322916 1.01836,-1.322916 0.46276,0 1.36289,0.87116 1.36289,1.31902 0,0.577443 -0.67245,1.326813 -1.19062,1.326813 -0.1975,0 -0.54618,-0.187098 -0.77485,-0.415774 z m 21.02826,1.516957 c 0.74539,-0.603583 0.48558,-1.101183 -0.57497,-1.101183 -1.11535,0 -1.81907,-0.443731 -1.81907,-1.147017 0,-0.864662 0.49368,-1.234233 1.64872,-1.234233 1.19009,0 1.64534,-0.652616 0.85724,-1.228886 -0.81424,-0.595386 -2.36344,-0.444373 -3.27041,0.318794 -1.55101,1.305084 -1.30061,3.515524 0.50017,4.41541 1.18416,0.591746 1.90696,0.585523 2.65832,-0.02288 z m 6.80023,-0.257434 c 0.36945,-0.464388 0.44982,-3.685966 0.1055,-4.228721 -0.2856,-0.450187 -3.82214,-0.701919 -4.53105,-0.322521 -0.68759,0.367982 -1.32914,1.623125 -1.32914,2.600339 0,0.87259 0.8543,2.100532 1.69019,2.42944 0.85814,0.33766 3.67943,0.0055 4.0645,-0.478537 z m -3.48683,-1.259523 c -0.22868,-0.228676 -0.41577,-0.63689 -0.41577,-0.907143 0,-0.480908 0.64816,-1.322916 1.01836,-1.322916 0.46275,0 1.36289,0.87116 1.36289,1.31902 0,0.577443 -0.67246,1.326813 -1.19063,1.326813 -0.19749,0 -0.54617,-0.187098 -0.77485,-0.415774 z m -72.733492,1.407961 c 0.115137,-0.181901 0.270991,-0.926041 0.346344,-1.653645 l 0.137005,-1.322917 1.322917,-0.08202 c 1.520293,-0.09426 1.841385,-0.308683 1.600192,-1.068616 -0.139598,-0.439835 -0.432351,-0.557483 -1.547637,-0.621946 -1.339354,-0.07741 -1.377649,-0.102081 -1.458381,-0.939397 -0.08192,-0.849581 -0.06922,-0.859939 1.058333,-0.863509 2.143767,-0.0068 3.02203,-0.591343 2.169435,-1.443939 -0.506381,-0.506381 -4.323345,-0.57542 -4.811733,-0.08703 -0.341691,0.341691 -0.471293,7.907179 -0.141112,8.237361 0.292678,0.292677 1.10133,0.198456 1.324637,-0.154341 z m 6.380415,-2.101959 c 0.0683,-2.061066 0.02204,-2.3294 -0.444647,-2.579163 -0.895228,-0.479112 -1.351377,0.28712 -1.351377,2.270019 0,2.033442 0.328555,2.807601 1.142381,2.691743 0.535965,-0.0763 0.582882,-0.247319 0.653643,-2.382599 z m 7.674517,0.05644 c 0.06441,-1.856977 0.0011,-2.300091 -0.367278,-2.569436 -0.310866,-0.22731 -0.593688,-0.24596 -0.93773,-0.06183 -0.419677,0.224604 -0.492617,0.58873 -0.492617,2.459193 0,1.207553 0.08484,2.280393 0.188536,2.384088 0.103694,0.103694 0.490647,0.153304 0.859895,0.110243 0.652732,-0.07612 0.67352,-0.140557 0.749194,-2.322254 z m 20.16548,1.78094 c 2.02203,-1.376182 2.622685,-3.478432 1.598405,-5.59431 -0.763972,-1.578157 -1.961987,-2.303233 -4.087433,-2.473844 -2.798381,-0.224627 -2.805329,-0.213742 -2.805329,4.395345 0,2.153439 0.07937,3.994719 0.176389,4.091733 0.09701,0.09701 1.091438,0.176388 2.209831,0.176388 1.673197,0 2.188403,-0.105465 2.908137,-0.595312 z M 91.987695,79.30955 c -0.09701,-0.09701 -0.176388,-1.287639 -0.176388,-2.645834 v -2.469444 h 1.078685 c 2.082853,0 3.231275,2.029802 2.236645,3.953204 -0.497042,0.961173 -2.571758,1.729257 -3.138942,1.162074 z m 7.969635,-0.6688 c 0.0683,-2.061066 0.02204,-2.3294 -0.444647,-2.579163 -0.895228,-0.479112 -1.351377,0.28712 -1.351377,2.270019 0,2.033442 0.328555,2.807601 1.142381,2.691743 0.535965,-0.0763 0.582882,-0.247319 0.653643,-2.382599 z m 2.96926,0.845189 c 0.15781,-1.700178 0.36858,-2.116667 1.07116,-2.116667 0.44834,0 0.51407,0.1932 0.51761,1.521354 0.005,1.805482 0.23504,2.259881 1.0842,2.139816 0.59534,-0.08418 0.63596,-0.206206 0.70862,-2.128883 0.067,-1.773894 0.005,-2.111336 -0.47369,-2.590356 -0.4846,-0.484597 -0.77722,-0.534978 -2.43559,-0.419343 -1.12428,0.07839 -1.97243,0.269532 -2.10194,0.47369 -0.31584,0.49786 -0.27376,3.593669 0.0572,4.212172 0.17832,0.333192 0.4954,0.497517 0.85989,0.445627 0.49352,-0.07026 0.59704,-0.293641 0.71249,-1.53741 z m 13.06578,1.168985 c 0.0883,-0.230183 0.1606,-0.920746 0.1606,-1.534583 0,-1.127505 0.34861,-1.751069 0.97896,-1.751069 0.24187,0 0.34516,0.45153 0.34801,1.521354 0.005,1.805482 0.23504,2.259881 1.0842,2.139816 0.56224,-0.0795 0.6463,-0.255025 0.76609,-1.599683 0.14331,-1.608688 0.5057,-2.227771 1.15761,-1.977608 0.28749,0.11032 0.42418,0.628044 0.48081,1.821069 0.075,1.580569 0.11338,1.666927 0.74057,1.666927 0.64295,0 0.66364,-0.05829 0.73932,-2.082891 0.0979,-2.618802 -0.28029,-3.202432 -1.9247,-2.97033 -0.58497,0.08257 -1.24217,0.139529 -1.46045,0.126586 -1.93478,-0.114727 -3.91864,-0.06577 -4.29948,0.106092 -0.38699,0.17464 -0.46302,0.569493 -0.46302,2.404505 0,1.207553 0.0794,2.274927 0.17639,2.371941 0.33682,0.336825 1.35539,0.174049 1.51509,-0.242126 z m 9.36496,-2.014174 c 0.0683,-2.061066 0.022,-2.3294 -0.44465,-2.579163 -0.89523,-0.479112 -1.35138,0.28712 -1.35138,2.270019 0,2.033442 0.32856,2.807601 1.14238,2.691743 0.53597,-0.0763 0.58289,-0.247319 0.65365,-2.382599 z M 67.051127,75.092002 c 0.230183,-0.08833 0.418515,-0.432778 0.418515,-0.765442 0,-0.651969 -0.551223,-1.002501 -1.190625,-0.757139 -0.479803,0.184118 -0.529668,1.320917 -0.06615,1.507952 0.181901,0.0734 0.350757,0.142852 0.375236,0.15434 0.02448,0.01149 0.232837,-0.05138 0.46302,-0.139711 z m 7.93078,-0.45021 c 0.233036,-0.380661 0.192997,-0.552792 -0.195796,-0.841723 -0.85718,-0.637014 -1.864871,0.291953 -1.193803,1.10054 0.393876,0.474592 1.010979,0.359655 1.389599,-0.258817 z m 24.612968,0.45021 c 0.230183,-0.08833 0.418515,-0.432778 0.418515,-0.765442 0,-0.651969 -0.551223,-1.002501 -1.190626,-0.757139 -0.479803,0.184118 -0.529668,1.320917 -0.06615,1.507952 0.181901,0.0734 0.350757,0.142852 0.375236,0.15434 0.02448,0.01149 0.232838,-0.05138 0.463021,-0.139711 z m 25.399995,0 c 0.23019,-0.08833 0.41852,-0.432778 0.41852,-0.765442 0,-0.651969 -0.55123,-1.002501 -1.19063,-0.757139 -0.4798,0.184118 -0.52967,1.320917 -0.0661,1.507952 0.1819,0.0734 0.35075,0.142852 0.37523,0.15434 0.0245,0.01149 0.23284,-0.05138 0.46302,-0.139711 z m -29.466235,-9.395357 2.8901,-1.618456 2.774455,1.618456 c 1.52595,0.890151 2.94942,1.618457 3.16327,1.618457 0.21384,0 1.79468,-0.821819 3.51297,-1.826265 l 3.12417,-1.826264 0.073,-3.986284 0.073,-3.986284 -0.99903,-0.639559 c -0.54947,-0.351757 -1.86224,-1.134644 -2.91727,-1.739747 l -1.91822,-1.100189 v -3.141689 c 0,-1.727929 -0.0715,-3.327922 -0.15881,-3.55554 -0.1388,-0.361693 -6.365903,-4.127345 -6.825226,-4.127345 -0.251247,0 -5.760846,3.194849 -6.31128,3.659719 -0.394264,0.332976 -0.463021,0.869988 -0.463021,3.616322 0,3.72979 0.201522,3.388213 -3.118915,5.28653 -1.20608,0.689525 -2.366939,1.427747 -2.579687,1.640495 -0.301918,0.301918 -0.386814,1.186637 -0.386814,4.031075 0,3.140375 0.06402,3.700141 0.463021,4.048406 0.727079,0.634627 5.979926,3.641097 6.366738,3.644006 0.191108,0.0014 1.648014,-0.725693 3.237569,-1.615844 z m -5.241992,-1.354187 c -1.056845,-0.609699 -1.890203,-1.202547 -1.851906,-1.317439 0.0383,-0.114892 2.034083,-1.339969 4.435079,-2.722394 l 4.365448,-2.5135 0.07756,2.161184 c 0.04266,1.188652 0.02331,2.302539 -0.04298,2.475304 -0.113305,0.295269 -3.801639,2.575273 -4.664785,2.883614 -0.218281,0.07798 -1.261567,-0.35707 -2.318413,-0.966769 z m 11.380387,-0.352606 -2.447391,-1.456655 v -2.399855 c 0,-1.813306 0.08083,-2.367863 0.330729,-2.268961 0.927332,0.367017 8.524102,4.926678 8.603102,5.163674 0.0807,0.242253 -2.57142,1.901549 -3.64216,2.278672 -0.21829,0.07688 -1.49821,-0.515714 -2.84428,-1.316875 z M 87.31339,58.923477 v -2.345008 l 2.409349,-1.378559 c 1.325141,-0.758207 2.524759,-1.378558 2.665816,-1.378558 0.374151,0 3.921144,2.106437 3.918017,2.326775 -0.0029,0.202429 -8.051331,4.894219 -8.63689,5.034813 -0.278302,0.06682 -0.356292,-0.427764 -0.356292,-2.259463 z m 17.4625,-0.07664 c -2.25557,-1.304864 -4.10104,-2.521177 -4.10104,-2.702918 0,-0.181741 0.82079,-0.803062 1.82399,-1.380713 l 1.82398,-1.050275 1.6156,0.890834 c 0.88858,0.489958 2.06208,1.170691 2.60778,1.512739 l 0.99219,0.621907 v 2.245639 c 0,1.622888 -0.0917,2.244201 -0.33073,2.240453 -0.1819,-0.0029 -2.1762,-1.072802 -4.43177,-2.377666 z M 95.488623,53.482616 C 93.002699,52.05371 93.107421,52.25401 93.191818,49.089576 l 0.0747,-2.80071 1.852083,-1.122032 c 1.018646,-0.617118 1.94138,-1.124963 2.050521,-1.128546 0.10914,-0.0036 0.198437,2.315204 0.198437,5.15286 0,2.837656 -0.0893,5.15577 -0.198437,5.151364 -0.109141,-0.0044 -0.865364,-0.391359 -1.680496,-0.859896 z m 3.731016,-4.291468 c 0,-2.837656 0.07464,-5.159375 0.165865,-5.159375 0.09123,0 1.043726,0.48459 2.116666,1.076866 l 1.9508,1.076866 v 3.001304 3.001303 l -1.87532,1.081205 c -1.03143,0.594663 -1.983932,1.081206 -2.116669,1.081206 -0.137149,0 -0.241342,-2.227425 -0.241342,-5.159375 z"
         id="path2" /><path
         style="fill:#000000"
         d="M 37.571728,65.330727 V 32.654686 h 60.192703 60.192699 v 32.676041 32.67604 H 97.764431 37.571728 Z m 29.434893,22.033044 c 1.929467,0.04678 3.926228,0.05675 8.929687,0.04456 3.003112,-0.0073 6.782949,-0.0064 9.326562,0.0023 1.200546,0.0041 3.254374,0.0022 4.564062,-0.0041 1.309687,-0.0064 3.303984,-0.01144 4.43177,-0.01124 1.127786,1.94e-4 3.003021,3.52e-4 4.167187,3.52e-4 1.164167,0 3.098931,0.0051 4.299481,0.01124 1.20054,0.0062 3.25437,0.006 4.56406,-3.52e-4 1.30969,-0.0064 3.30398,-0.0097 4.43177,-0.0074 1.94096,0.0039 4.47664,0.0049 9.12812,0.0035 1.12779,-3.31e-4 3.00303,0.0057 4.16719,0.0134 1.16417,0.0077 3.30729,0.0091 4.7625,0.0032 1.45521,-0.0059 3.11932,0.02235 3.69802,0.06287 0.80166,0.05614 1.07266,-0.02951 1.13818,-0.359729 0.13563,-0.683607 -3.51425,-1.410041 -5.75613,-1.145641 -0.94925,0.11195 -2.61887,0.18993 -3.71028,0.173289 -2.88512,-0.04399 -6.13782,-0.0669 -8.92968,-0.0629 -1.34607,0.0019 -3.3999,0.0012 -4.56407,-0.0016 -2.55403,-0.0062 -6.36232,-0.0066 -9.32656,-0.001 -1.20054,0.0023 -3.075778,-0.0015 -4.167184,-0.0084 -2.081727,-0.01317 -4.363392,-0.01129 -8.334374,0.0069 -1.309688,0.006 -3.423047,0.0094 -4.696354,0.0077 -1.273307,-0.0018 -3.327135,-0.0032 -4.564062,-0.0032 -1.236927,0 -3.231224,-0.0038 -4.431771,-0.0084 -1.200546,-0.0046 -3.254374,-0.0031 -4.564062,0.0032 -1.309687,0.0064 -3.393281,-0.0097 -4.630208,-0.03572 -3.479438,-0.0732 -5.411024,0.463272 -4.709876,1.308104 0.251313,0.302814 0.592373,0.341914 1.524617,0.174789 0.660486,-0.118407 2.123619,-0.192912 3.251405,-0.165568 z m 13.112257,-6.159763 c 0.472796,-0.136256 0.592285,-0.335167 0.529166,-0.88089 -0.07209,-0.623293 -0.219355,-0.720206 -1.272153,-0.837183 -1.004121,-0.111569 -1.204495,-0.230324 -1.279172,-0.75812 -0.121115,-0.856018 0.317374,-1.213436 1.399284,-1.140573 0.655531,0.04415 0.984568,-0.07478 1.171076,-0.423273 0.333559,-0.62326 0.08216,-1.010946 -0.896945,-1.383202 -1.114621,-0.423778 -2.293435,-0.122657 -3.192169,0.815419 -1.5113,1.577457 -0.798811,4.110085 1.328139,4.721026 0.806807,0.231746 1.060944,0.218744 2.212774,-0.113204 z m 5.702702,0.06226 c 1.207357,0.230801 1.492265,-0.281009 1.487759,-2.672622 -0.0022,-1.182729 -0.09152,-2.28664 -0.198438,-2.453137 -0.106912,-0.166497 -1.10125,-0.387357 -2.20964,-0.490801 -1.966586,-0.183538 -2.035904,-0.169631 -2.870283,0.575887 -2.282189,2.039135 -0.466753,5.895698 2.400019,5.098404 0.379215,-0.105465 1.004978,-0.131444 1.390583,-0.05773 z m -2.476939,-2.309496 c -0.369437,-0.690298 0.08763,-1.5875 0.808731,-1.5875 0.715993,0 1.2464,1.15633 0.785271,1.711956 -0.469578,0.565808 -1.257509,0.504288 -1.594002,-0.124456 z m 28.363119,2.281533 c 0.13308,0.08224 0.53711,0.07545 0.89787,-0.01509 0.64874,-0.162825 0.65508,-0.192723 0.58027,-2.736888 l -0.0756,-2.572264 -1.84039,-0.221473 c -1.4781,-0.177874 -2.01485,-0.13828 -2.72661,0.201132 -1.54225,0.735449 -2.06418,3.072365 -0.99985,4.476778 0.54442,0.718373 2.19294,1.214273 3.13676,0.943587 0.4321,-0.123925 0.89452,-0.158027 1.02759,-0.07578 z m -2.24542,-1.916608 c -0.10369,-0.103695 -0.18853,-0.517857 -0.18853,-0.920359 0,-0.505167 0.16782,-0.785088 0.54186,-0.903804 0.7372,-0.23398 1.35405,0.340954 1.25745,1.172007 -0.0592,0.509087 -0.25128,0.704136 -0.75088,0.762399 -0.36925,0.04306 -0.7562,-0.0065 -0.8599,-0.110243 z m 20.584,2.016325 c 0.19598,0 0.54319,-0.186862 0.77158,-0.415249 0.68432,-0.684314 0.0958,-1.391248 -1.23854,-1.487826 -0.95126,-0.06885 -1.13685,-0.177142 -1.21183,-0.707128 -0.11931,-0.843234 0.26742,-1.166485 1.43449,-1.199018 2.03972,-0.05686 1.77426,-1.657509 -0.31736,-1.913511 -2.0751,-0.253982 -3.90766,1.829075 -3.28061,3.729053 0.15816,0.479247 0.50842,1.071225 0.77835,1.315506 0.57263,0.518225 1.84837,0.944798 2.35521,0.787518 0.1938,-0.06014 0.51272,-0.109345 0.70871,-0.109345 z m 6.00309,-0.09972 c 0.13307,0.08224 0.53711,0.07545 0.89786,-0.01509 0.64875,-0.162825 0.65509,-0.192723 0.58028,-2.736888 l -0.0756,-2.572264 -1.8404,-0.221473 c -1.4781,-0.177874 -2.01485,-0.13828 -2.7266,0.201132 -1.54226,0.735449 -2.06419,3.072365 -0.99985,4.476778 0.54442,0.718373 2.19293,1.214273 3.13676,0.943587 0.4321,-0.123925 0.89451,-0.158027 1.02759,-0.07578 z m -2.24542,-1.916608 c -0.1037,-0.103695 -0.18854,-0.517857 -0.18854,-0.920359 0,-0.505167 0.16782,-0.785088 0.54186,-0.903804 0.73721,-0.23398 1.35406,0.340954 1.25745,1.172007 -0.0592,0.509087 -0.25128,0.704136 -0.75088,0.762399 -0.36925,0.04306 -0.7562,-0.0065 -0.85989,-0.110243 z m -72.766434,1.80806 c 0.173145,-0.110088 0.351738,-0.852406 0.396875,-1.649594 l 0.08207,-1.449433 1.387118,-0.0799 c 1.052053,-0.0606 1.453747,-0.204404 1.662954,-0.595313 0.507144,-0.947606 -0.09434,-1.535766 -1.662954,-1.626126 -1.281895,-0.07384 -1.387118,-0.130082 -1.387118,-0.741364 0,-0.624145 0.09701,-0.668921 1.719792,-0.79375 1.705092,-0.131161 1.719791,-0.139076 1.719791,-0.926042 v -0.79375 l -2.623966,-0.07626 c -1.920961,-0.05583 -2.681905,0.01506 -2.840219,0.264584 -0.35685,0.562445 -0.274066,7.990509 0.09314,8.357719 0.35921,0.35921 0.985309,0.406295 1.452517,0.109235 z m 6.379149,-0.109235 c 0.365704,-0.365704 0.435947,-4.377669 0.0863,-4.929208 -0.126715,-0.199883 -0.553602,-0.314187 -0.988136,-0.264583 l -0.765041,0.08733 -0.07666,2.49143 c -0.07849,2.55098 0.04916,2.918925 1.015928,2.928476 0.225557,0.0022 0.552979,-0.138823 0.727604,-0.313448 z m 4.695151,-0.331932 c 0.827392,-0.827391 0.823639,-1.581664 -0.01203,-2.417329 -0.759293,-0.759293 -0.805628,-0.901989 -0.292891,-0.901989 0.670032,0 0.764384,-0.887205 0.147477,-1.386746 -0.845378,-0.684545 -2.258502,-0.599016 -3.041612,0.184094 -0.781455,0.781455 -0.821777,1.441354 -0.140959,2.306874 0.501575,0.63765 0.501575,0.650727 0,0.963965 -0.634798,0.396438 -0.659032,1.257409 -0.04545,1.614787 0.254661,0.148326 0.974448,0.273305 1.599526,0.27773 0.860702,0.0061 1.294108,-0.149556 1.785937,-0.641386 z m 3.021373,0.137659 c 0.150641,-0.281475 0.273892,-1.301333 0.273892,-2.266352 0,-2.066287 -0.305073,-2.778125 -1.190625,-2.778125 -0.885551,0 -1.190625,0.711838 -1.190625,2.778125 0,2.066287 0.305074,2.778125 1.190625,2.778125 0.364768,0 0.761318,-0.221377 0.916733,-0.511773 z M 94.8005,80.980554 c 2.048714,-0.856007 3.222369,-3.338304 2.549268,-5.391738 -0.795031,-2.425407 -2.090556,-3.246631 -5.121737,-3.246631 -1.692321,0 -2.026062,0.07559 -2.259499,0.511772 -0.356373,0.66589 -0.356373,7.306399 0,7.972288 0.230727,0.431117 0.565656,0.511773 2.125165,0.511773 1.0182,0 2.236261,-0.160859 2.706803,-0.357464 z m -2.72461,-4.30219 v -2.542987 l 0.992187,0.173824 c 2.962062,0.518932 2.91366,4.91215 -0.05412,4.91215 H 92.07589 Z m 7.884582,4.342154 c 0.365708,-0.365704 0.435948,-4.377669 0.0863,-4.929208 -0.126705,-0.199883 -0.553592,-0.314187 -0.988125,-0.264583 l -0.765041,0.08733 -0.07666,2.49143 c -0.07849,2.55098 0.04916,2.918925 1.015928,2.928476 0.225558,0.0022 0.552979,-0.138823 0.727604,-0.313448 z m 2.910418,0 c 0.17462,-0.174625 0.31932,-0.859235 0.32155,-1.521354 0.005,-1.410698 0.30449,-2.006592 0.89529,-1.779879 0.32339,0.124096 0.42358,0.538798 0.42358,1.753305 0,1.478346 0.047,1.602556 0.66489,1.757641 1.13098,0.283857 1.45177,-0.257555 1.45177,-2.450178 0,-1.745024 -0.0742,-2.038161 -0.66509,-2.629099 -0.62915,-0.629147 -0.76858,-0.65525 -2.57969,-0.482954 -1.05303,0.100178 -2.00389,0.233315 -2.11303,0.295861 -0.35699,0.204585 -0.23367,5.051261 0.13229,5.198928 0.58692,0.236827 1.14324,0.182928 1.46844,-0.142271 z m 12.91092,0.115011 c 0.15966,-0.106913 0.36485,-0.840113 0.45599,-1.629334 0.29251,-2.533227 1.23809,-2.540625 1.23809,-0.0097 0,1.4528 0.0484,1.57899 0.66489,1.733722 1.01031,0.253571 1.41673,-0.27617 1.50537,-1.962146 0.061,-1.159813 0.18,-1.516072 0.52865,-1.582401 0.37797,-0.07191 0.46263,0.177258 0.52917,1.557418 0.0881,1.826803 0.58884,2.486239 1.46827,1.933463 0.36239,-0.227782 0.47982,-0.730858 0.54031,-2.314632 0.0717,-1.877521 0.0277,-2.073239 -0.61046,-2.711349 -0.57935,-0.579345 -0.84177,-0.661674 -1.66479,-0.522295 -0.53737,0.091 -1.21516,0.15263 -1.5062,0.13695 -2.00896,-0.108239 -4.5089,0.08362 -4.68425,0.359494 -0.33433,0.525991 -0.24659,4.542243 0.10695,4.895785 0.35634,0.356336 0.99125,0.407472 1.42801,0.115011 z m 9.57866,-0.115011 c 0.3657,-0.365704 0.43595,-4.377669 0.0863,-4.929208 -0.12671,-0.199883 -0.5536,-0.314187 -0.98813,-0.264583 l -0.76504,0.08733 -0.0767,2.49143 c -0.0785,2.55098 0.0491,2.918925 1.01593,2.928476 0.22555,0.0022 0.55298,-0.138823 0.7276,-0.313448 z M 67.601934,74.32656 c 0,-0.73016 -0.0739,-0.79375 -0.922419,-0.79375 -0.679485,0 -0.946686,0.126013 -1.014564,0.478476 -0.17395,0.903253 0.165639,1.279731 1.075268,1.192069 0.762617,-0.0735 0.861715,-0.174327 0.861715,-0.876795 z m 7.55903,0.506988 c 0.49979,-0.60221 -0.02094,-1.300738 -0.96966,-1.300738 -0.781908,0 -1.105109,0.541233 -0.799218,1.338372 0.195794,0.510231 1.334293,0.486009 1.768878,-0.03763 z M 100.14568,74.32656 c 0,-0.73016 -0.0739,-0.79375 -0.922417,-0.79375 -0.679486,0 -0.946686,0.126013 -1.014564,0.478476 -0.173951,0.903253 0.165639,1.279731 1.075267,1.192069 0.762614,-0.0735 0.861714,-0.174327 0.861714,-0.876795 z m 25.4,0 c 0,-0.73016 -0.0739,-0.79375 -0.92242,-0.79375 -0.67949,0 -0.94669,0.126013 -1.01456,0.478476 -0.17395,0.903253 0.16564,1.279731 1.07526,1.192069 0.76262,-0.0735 0.86172,-0.174327 0.86172,-0.876795 z m -30.085111,-8.379045 2.827634,-1.63217 1.854777,1.023275 c 1.02013,0.562801 2.40096,1.31966 3.06851,1.681909 l 1.21373,0.658635 3.41648,-1.969607 3.41648,-1.969608 0.0734,-3.931269 c 0.0496,-2.658369 -0.0244,-4.049132 -0.22871,-4.29528 -0.16615,-0.200205 -1.33027,-0.958478 -2.58693,-1.68505 -1.25666,-0.726573 -2.46343,-1.437421 -2.68171,-1.579663 -0.30761,-0.200455 -0.42663,-1.045715 -0.52916,-3.758184 l -0.1323,-3.499562 -2.91041,-1.700764 c -1.60073,-0.935421 -3.161987,-1.796926 -3.46946,-1.914456 -0.433409,-0.165668 -1.236107,0.172583 -3.571874,1.505161 -1.657059,0.945368 -3.221194,1.907168 -3.475855,2.137334 -0.393314,0.355482 -0.463021,0.909654 -0.463021,3.681014 v 3.262531 l -0.992188,0.635028 c -0.545703,0.349265 -1.839728,1.120966 -2.875612,1.714889 -2.188149,1.254576 -2.217616,1.325406 -2.217616,5.330507 0,4.129538 -0.155806,3.863539 3.529242,6.025295 1.769698,1.038156 3.372733,1.893102 3.5623,1.899881 0.189568,0.0068 1.617104,-0.722153 3.172303,-1.619846 z M 90.668958,64.29943 c -0.846573,-0.485641 -1.645482,-0.989242 -1.775354,-1.119114 -0.138451,-0.138451 1.502293,-1.237576 3.96636,-2.657042 2.31137,-1.331502 4.271138,-2.352265 4.355041,-2.268362 0.0839,0.0839 0.152551,1.027155 0.152551,2.096115 v 1.943564 l -1.389062,0.885965 c -1.272448,0.811586 -3.509862,2.029064 -3.693626,2.009868 -0.04218,-0.0044 -0.769337,-0.405353 -1.61591,-0.890994 z m 11.130372,-0.469409 -2.315107,-1.337208 v -2.245198 -2.245199 l 0.859897,0.504496 c 0.47294,0.277472 2.37794,1.377171 4.23333,2.443775 1.85539,1.066604 3.37344,2.016607 3.37344,2.111118 0,0.202495 -3.31909,2.143835 -3.6263,2.121027 -0.11559,-0.0086 -1.25196,-0.617346 -2.52526,-1.352811 z M 87.317442,59.046873 c 0.0022,-1.055026 0.09153,-2.043003 0.198437,-2.195504 0.272255,-0.388346 4.402372,-2.765434 4.804857,-2.765434 0.181847,0 1.103908,0.432442 2.049024,0.960981 1.392851,0.778926 1.651617,1.022215 1.365908,1.284207 -0.532078,0.487911 -7.814453,4.633979 -8.139366,4.633979 -0.175184,0 -0.281369,-0.730426 -0.27886,-1.918229 z m 17.528618,-0.399332 c -2.21697,-1.271956 -4.03268,-2.396241 -4.03489,-2.49841 -0.002,-0.10217 0.74011,-0.62252 1.64961,-1.156333 1.90182,-1.11623 1.87915,-1.119228 4.90618,0.648656 l 1.90685,1.113656 v 2.104996 c 0,1.157748 -0.0893,2.10389 -0.19844,2.102539 -0.10914,-0.0014 -2.01233,-1.043148 -4.22931,-2.315104 z m -9.59635,-5.56085 -1.718612,-0.999245 v -2.896302 -2.896302 l 1.718612,-0.999245 c 0.945237,-0.549585 1.80844,-0.999245 1.918229,-0.999245 0.10979,0 0.199617,2.202656 0.199617,4.894792 0,2.692135 -0.08983,4.894791 -0.199617,4.894791 -0.109789,0 -0.972992,-0.44966 -1.918229,-0.999244 z m 4.234513,-3.917596 c 0,-2.704262 0.09147,-4.877152 0.203263,-4.828646 0.111796,0.04851 0.945234,0.502631 1.852084,1.009163 l 1.64882,0.920968 v 2.925281 2.925281 l -1.70807,0.982397 c -0.93944,0.540318 -1.772879,0.982396 -1.852086,0.982396 -0.07921,0 -0.144011,-2.212578 -0.144011,-4.91684 z"
         id="path1" /></g><path
       style="fill:#dbaf2a;fill-opacity:1;stroke-width:0.10945"
       d="m 378.29773,569.8904 c -0.75902,-0.22132 -5.57952,-2.66311 -8.68492,-4.39929 -1.50494,-0.84138 -5.19888,-2.95609 -8.20875,-4.69934 l -5.47251,-3.16956 -0.0271,-13.61364 -0.0271,-13.61364 7.93294,-4.52253 c 4.36312,-2.48739 8.5864,-4.95608 9.38507,-5.48598 2.71906,-1.80404 3.81782,-3.2151 4.29,-5.50934 0.28779,-1.39832 0.38765,-4.16185 0.39043,-10.80489 0.003,-8.36155 0.16261,-10.51609 0.88717,-12.01262 0.20845,-0.43053 0.51256,-0.83668 0.81955,-1.0945 1.68161,-1.41234 15.88464,-9.79875 20.61596,-12.17303 0.86689,-0.43503 1.21068,-0.5553 1.45028,-0.50738 0.61506,0.12301 5.23787,2.70459 15.84842,8.85043 3.64195,2.10949 6.74702,3.9228 6.90017,4.02957 l 0.27844,0.19413 0.24701,12.67744 c 0.13585,6.97259 0.27067,12.87694 0.2996,13.12077 l 0.0526,0.44333 5.87951,3.50836 c 3.23373,1.9296 8.18207,4.88171 10.9963,6.56025 l 5.11679,3.05188 v 13.35635 13.35635 l -5.11679,2.9714 c -9.45101,5.48834 -11.70793,6.75158 -15.02202,8.40807 -2.6803,1.3397 -2.69279,1.34379 -3.35602,1.10006 -1.42117,-0.52226 -6.2507,-3.09009 -12.56896,-6.68284 -2.77603,-1.57854 -7.08907,-3.6868 -8.50375,-4.15674 -1.7972,-0.59702 -1.94608,-0.58519 -3.70669,0.29431 -1.71049,0.85446 -5.67228,3.04862 -9.18705,5.08807 -4.1639,2.41611 -7.18259,4.02481 -9.30532,4.95894 -1.35696,0.59714 -1.60379,0.65042 -2.20329,0.47561 z m 46.35231,-1.79595 c 2.43432,-0.81299 7.94771,-3.44048 11.34422,-5.40628 3.72227,-2.15432 5.42704,-3.49126 6.04033,-4.73703 0.43251,-0.87854 0.49013,-1.72509 0.1436,-2.10968 -1.70781,-1.8954 -23.74662,-14.98864 -33.71061,-20.02744 -3.15682,-1.59641 -3.81395,-1.84138 -4.43794,-1.65443 -0.93622,0.28049 -1.55833,1.54163 -1.90081,3.85332 -0.28817,1.94506 -0.42608,5.68348 -0.3549,9.6204 0.0882,4.87823 0.24696,6.01681 1.08343,7.77035 0.86553,1.81444 2.79719,3.39695 7.58032,6.21014 4.02695,2.36844 9.48238,5.43893 11.49225,6.46819 0.86233,0.44161 1.42738,0.4442 2.72011,0.0125 z m -43.54497,-0.68721 c 3.60339,-1.41654 11.31217,-5.52488 15.48718,-8.25378 2.05926,-1.34599 3.00872,-2.11609 3.29091,-2.66923 0.60429,-1.18449 0.8094,-4.04627 0.72068,-10.05487 -0.0879,-5.9497 -0.31472,-9.30421 -0.72626,-10.73898 -0.15797,-0.55074 -0.55591,-1.10939 -0.91236,-1.2808 -0.3829,-0.18414 -0.86354,-0.0339 -2.94919,0.92198 -5.5803,2.55744 -23.48552,12.68956 -29.57727,16.73703 -3.75707,2.49626 -5.13172,3.94661 -5.13258,5.41523 -7.8e-4,1.32252 1.07915,2.42298 4.36643,4.4494 5.13226,3.16376 10.68131,5.84862 12.80565,6.19592 0.39138,0.064 1.17662,-0.15182 2.62681,-0.7219 z m -19.4916,-14.17677 c 7.27653,-3.77358 33.48035,-19.53606 35.27976,-21.22196 0.36429,-0.34131 0.42179,-0.5867 0.36526,-1.55885 -0.0588,-1.01096 -0.25603,-1.22608 -2.49308,-2.71897 -3.94336,-2.63158 -12.92264,-7.61632 -15.20353,-8.44006 -0.88441,-0.3194 -1.05129,-0.26981 -3.806,1.13106 -6.06356,3.08352 -16.9009,9.62642 -18.10753,10.93218 -0.59348,0.64223 -0.79349,2.42593 -0.86529,7.71645 -0.0831,6.1202 0.23662,11.14053 0.84618,13.28898 0.16088,0.56701 1.51436,1.83822 1.9594,1.84029 0.0851,4e-4 0.99625,-0.43571 2.02483,-0.96912 z m 82.71765,0.33264 c 0.35216,-0.35318 0.89897,-2.15676 1.13746,-3.75182 0.48074,-3.21516 0.47433,-11.16424 -0.0118,-14.64697 -0.0876,-0.62751 -0.15925,-1.91663 -0.15925,-2.86473 v -1.72381 l -3.52977,-2.02073 c -1.94137,-1.11141 -6.55784,-3.75775 -10.25882,-5.88077 -3.70098,-2.12301 -6.81387,-3.88221 -6.91754,-3.90931 -0.18187,-0.0476 -3.76653,1.82902 -9.88516,5.17491 -6.7901,3.71307 -8.81443,5.2483 -8.80966,6.68114 0.002,0.64187 0.47794,1.40602 1.27343,2.04516 0.91535,0.73545 3.78834,2.68602 6.44173,4.37352 3.7128,2.36127 6.31879,3.91672 18.38761,10.97514 2.3477,1.37304 5.27823,3.09845 6.51228,3.83423 2.75988,1.64554 3.03613,1.7863 3.8733,1.97354 0.90406,0.20221 1.57503,0.11275 1.9462,-0.2595 z m -38.05254,-26.10634 c 4.29921,-2.09775 14.04867,-8.22739 16.50653,-10.37791 0.2848,-0.24918 0.44797,-0.50426 0.51365,-0.80299 0.64722,-2.94354 0.63635,-18.58347 -0.0159,-22.92978 -0.11808,-0.78684 -0.14699,-0.84378 -0.69709,-1.37323 -2.5712,-2.47464 -15.94237,-9.90013 -17.82728,-9.90013 -0.91023,0 -2.18722,0.91575 -2.45485,1.76041 -0.37486,1.18307 -0.56594,6.70981 -0.56542,16.35358 6.7e-4,12.38808 0.37784,23.28569 0.88426,25.54931 0.12222,0.54629 0.60236,1.36287 1.17876,2.00474 0.51605,0.57466 0.77952,0.54446 2.47738,-0.284 z m -7.39211,0.0947 c 0.96457,-0.49881 1.41455,-2.22391 1.64213,-6.29557 0.21685,-3.87979 0.0621,-25.99649 -0.21791,-31.13854 -0.27888,-5.12177 -0.84213,-7.12986 -2.15355,-7.6778 -1.31294,-0.54858 -2.78382,0.11727 -10.70397,4.84556 -2.82929,1.68907 -5.62437,3.35583 -6.21129,3.70391 l -1.06714,0.63288 -10e-4,1.92925 c -7.4e-4,1.06109 -0.0765,2.66804 -0.16845,3.57101 -0.45104,4.43131 -0.24592,16.219 0.33555,19.28301 0.18915,0.99671 0.36235,1.32626 0.94915,1.80592 1.80415,1.47472 7.38194,4.83607 13.32613,8.03071 2.65981,1.42949 3.52556,1.69498 4.27069,1.30966 z"
       id="path8"
       transform="scale(0.26458333)" /><path
       style="fill:#dbaf2a;fill-opacity:1;stroke-width:0.0386964"
       d="m 375.37477,622.98663 c -1.00264,-0.0434 -1.74288,-0.2375 -1.87415,-0.49134 -0.21598,-0.41766 -0.43127,-2.73295 -0.56359,-6.06107 -0.10635,-2.67502 -0.12395,-4.20802 -0.14293,-12.45058 l -0.0203,-8.81311 h 3.45846 c 1.90216,0 3.73678,0.0176 4.07695,0.0392 4.00065,0.25353 7.12022,1.31503 9.53801,3.2455 0.4833,0.38589 1.37189,1.27703 1.77185,1.77693 1.72285,2.15336 2.75599,4.86201 2.99135,7.84261 0.0511,0.64753 0.0279,2.13762 -0.0425,2.72913 -0.38448,3.22838 -1.66506,6.01788 -3.6786,8.01312 -1.08349,1.07364 -2.24434,1.81 -3.61537,2.29332 -3.25166,1.14627 -8.74726,2.01284 -11.89916,1.8763 z m 5.82382,-1.36726 c 0.29796,-0.0316 0.78553,-0.10193 1.0835,-0.15638 4.96738,-0.90777 8.68506,-3.53865 10.36164,-7.33258 1.24752,-2.82303 1.24441,-6.23563 -0.009,-9.55665 -1.19862,-3.17657 -3.26548,-5.53944 -6.07724,-6.9476 -1.495,-0.74871 -3.02337,-1.18455 -4.97222,-1.41791 -0.68716,-0.0823 -3.55986,-0.0692 -4.27596,0.0195 -1.30148,0.16116 -2.0225,0.40826 -2.51105,0.86058 -0.3142,0.29089 -0.45375,0.57831 -0.54655,1.12567 -0.17953,1.05886 -0.31381,3.08927 -0.4334,6.55326 -0.0645,1.86922 -0.0628,9.9188 0.002,11.28001 0.13441,2.80464 0.35479,3.74976 1.02951,4.41516 0.23018,0.227 0.3552,0.31192 0.7206,0.48949 0.80613,0.39173 1.51446,0.5605 2.93803,0.70002 0.41659,0.0408 2.20046,0.0192 2.68941,-0.0326 z"
       id="path9"
       transform="scale(0.26458333)" /><path
       style="fill:#dbaf2a;fill-opacity:1;stroke-width:0.0883883"
       d="m 354.85442,621.90768 c -0.52275,-1.14729 -0.60846,-7.8138 -0.14783,-11.49775 0.18258,-1.46023 0.45428,-2.24369 0.6054,-1.74567 0.4896,1.61354 0.54797,9.15037 0.0931,12.02603 -0.11523,0.72852 -0.32084,1.43109 -0.41882,1.43109 -0.019,0 -0.0783,-0.0962 -0.13188,-0.2137 z"
       id="path10"
       transform="scale(0.26458333)" /><path
       style="fill:#dbaf2a;fill-opacity:1;stroke-width:0.0883883"
       d="m 342.47156,622.0196 c -0.16637,-0.0479 -0.51118,-0.29857 -0.77911,-0.5665 -0.81669,-0.81669 -1.45121,-2.45674 -1.71373,-4.42948 -0.1549,-1.16395 -0.0609,-3.5152 0.17612,-4.40398 0.22459,-0.8423 0.59412,-1.65841 0.93164,-2.05753 0.28598,-0.33817 1.27664,-1.11887 1.33972,-1.05578 0.0237,0.0237 -0.11926,0.23076 -0.31774,0.46008 -0.96632,1.1165 -1.41286,2.94301 -1.29541,5.29867 0.11779,2.36257 0.63979,3.95347 1.72284,5.2508 0.64064,0.76737 0.88967,1.43319 0.58045,1.55185 -0.17422,0.0669 -0.26981,0.0597 -0.64478,-0.0481 z"
       id="path11"
       transform="scale(0.26458333)" /><path
       style="fill:#dbaf2a;fill-opacity:1;stroke-width:0.0883883"
       d="m 321.98275,620.9291 c -0.27779,-0.19457 -0.86657,-1.17058 -1.21736,-2.018 -0.63912,-1.54396 -0.95785,-3.37589 -0.80299,-4.61534 0.0559,-0.44751 0.0811,-0.50074 0.17582,-0.37123 0.0608,0.0832 0.27947,0.81442 0.48593,1.62505 0.46192,1.81362 1.04102,3.52333 1.50792,4.45196 0.19405,0.38594 0.35282,0.78214 0.35282,0.88044 0,0.21474 -0.23178,0.23649 -0.50214,0.0471 z"
       id="path12"
       transform="scale(0.26458333)" /><path
       style="fill:#dbaf2a;fill-opacity:1;stroke-width:0.0883883"
       d="m 310.23907,619.42554 c -0.0965,-0.81585 -0.0947,-6.65687 0.002,-7.33623 l 0.0757,-0.53033 0.0699,0.35355 c 0.0385,0.19445 0.11798,1.20139 0.1767,2.23763 0.10766,1.90001 0.0118,4.97366 -0.17553,5.62893 -0.0672,0.23514 -0.0841,0.1951 -0.14899,-0.35355 z"
       id="path13"
       transform="scale(0.26458333)" /><path
       style="fill:#dbaf2a;fill-opacity:1;stroke-width:0.0883883"
       d="m 300.15044,619.67928 c -0.18318,-0.0764 -0.62605,-0.85236 -0.8233,-1.44251 -0.2393,-0.71596 -0.27,-1.62851 -0.0618,-1.83672 0.13539,-0.13539 0.17041,-0.1198 0.49334,0.21967 0.90437,0.95069 1.21855,3.40437 0.39175,3.05956 z"
       id="path14"
       transform="scale(0.26458333)" /><path
       style="fill:#dbaf2a;fill-opacity:1;stroke-width:0.0883883"
       d="m 292.81215,613.87917 c -0.65165,-0.71267 -1.09993,-3.08814 -0.74281,-3.93619 0.11653,-0.27672 0.12988,-0.28321 0.28799,-0.14012 0.48216,0.43634 1.11012,4.27518 0.69934,4.27518 -0.0345,0 -0.14451,-0.0895 -0.24452,-0.19887 z"
       id="path15"
       transform="scale(0.26458333)" /><path
       style="fill:#dbaf2a;fill-opacity:1;stroke-width:0.0883883"
       d="m 281.2463,619.51393 c -0.1003,-0.69001 -0.099,-6.93801 0.002,-7.51301 l 0.0773,-0.44194 0.0673,0.35355 c 0.037,0.19445 0.11435,1.19749 0.17183,2.22896 0.10393,1.86503 0.0152,4.79765 -0.16927,5.59341 -0.0704,0.30354 -0.0732,0.29939 -0.1488,-0.22097 z"
       id="path16"
       transform="scale(0.26458333)" /><path
       style="fill:#dbaf2a;fill-opacity:1;stroke-width:0.0883883"
       d="m 258.28781,618.27649 c -0.1354,-0.81491 -0.2547,-5.40584 -0.36291,-13.96536 -0.0633,-5.0072 -0.11022,-9.11123 -0.10426,-9.12006 0.0246,-0.0365 12.06829,0.29107 12.10649,0.32927 0.0229,0.0229 -2.37169,0.27391 -5.32126,0.55786 -2.94956,0.28395 -5.36745,0.52232 -5.37307,0.52971 -0.006,0.007 -0.0846,1.1669 -0.17556,2.5767 -0.22375,3.46895 -0.21195,5.32028 0.0405,6.35379 0.62711,2.56736 2.2046,3.50596 6.33247,3.76781 1.56472,0.0992 2.12189,0.16034 2.05675,0.22547 -0.0685,0.0685 -1.70285,0.29048 -4.82946,0.65593 -1.68351,0.19677 -3.14341,0.37602 -3.24423,0.39831 -0.1732,0.0383 -0.19667,0.18089 -0.4254,2.58392 -0.30198,3.17262 -0.48765,4.85217 -0.57431,5.19504 l -0.067,0.26516 z"
       id="path17"
       transform="scale(0.26458333)" /><path
       style="fill:#dbaf2a;fill-opacity:1;stroke-width:0.0883883"
       d="m 404.29094,619.82435 c -0.0458,-0.0723 -0.0999,-1.43218 -0.12019,-3.02187 -0.0378,-2.96129 0.035,-5.18562 0.16544,-5.05293 0.16705,0.16992 0.28444,2.75873 0.22966,5.06453 -0.0587,2.4709 -0.12901,3.24071 -0.27491,3.01027 z"
       id="path18"
       transform="scale(0.26458333)" /><path
       style="fill:#dbaf2a;fill-opacity:1;stroke-width:0.0883883"
       d="m 415.08984,620.88395 c -0.11768,-0.63449 -0.17859,-8.49611 -0.0733,-9.45756 0.17116,-1.56272 0.47513,-2.15451 1.00345,-1.95364 0.53257,0.20248 0.95201,1.03618 0.95201,1.89225 0,0.58938 -1.4378,8.54088 -1.70525,9.43056 l -0.11957,0.39775 z"
       id="path19"
       transform="scale(0.26458333)" /><path
       style="fill:#dbaf2a;fill-opacity:1;stroke-width:0.0883883"
       d="m 428.11953,620.35362 c -0.0239,-1.98307 -0.19166,-5.36376 -0.32241,-6.49655 -0.15893,-1.37698 -0.48588,-2.99497 -0.74385,-3.68115 -0.17689,-0.47051 -0.31439,-0.68544 -0.91853,-1.43579 -0.28815,-0.35789 -0.25781,-0.46694 0.15129,-0.54368 0.42814,-0.0803 0.9418,0.0903 1.36663,0.45393 0.78126,0.66872 0.89127,1.22661 0.896,4.54378 0.003,2.1182 -0.18184,6.17822 -0.34409,7.5572 -0.0717,0.60918 -0.073,0.60305 -0.085,-0.39774 z"
       id="path20"
       transform="scale(0.26458333)" /><path
       style="fill:#dbaf2a;fill-opacity:1;stroke-width:0.0883883"
       d="m 443.02134,623.70554 c -2.14976,-0.61308 -4.02013,-2.17013 -5.03512,-4.19161 -0.33045,-0.65815 -0.74344,-2.02319 -0.86559,-2.86101 -0.14275,-0.97907 -0.064,-2.59477 0.17078,-3.50295 0.26254,-1.01568 0.97267,-2.37732 1.65984,-3.18268 0.96923,-1.13593 2.32997,-2.00111 3.83018,-2.43527 1.04808,-0.30332 5.00162,-0.36479 4.71006,-0.0732 -0.0463,0.0463 -0.6378,0.31536 -1.31439,0.59785 -2.63567,1.10047 -3.978,1.98288 -5.03553,3.31023 -0.94256,1.18304 -1.3618,2.38553 -1.36404,3.91237 -0.004,2.59459 1.53026,5.00805 3.93185,6.18577 1.0625,0.52104 1.61203,0.6491 3.16936,0.73855 1.5806,0.0908 1.75046,0.17382 1.25156,0.61186 -0.41168,0.36146 -1.23602,0.77555 -1.87549,0.94211 -0.74466,0.19396 -2.46824,0.16625 -3.23347,-0.052 z m -1.47821,-1.69464 c -0.002,-0.20905 -0.41919,-0.99599 -0.97316,-1.83406 -0.88786,-1.34319 -1.26702,-2.19376 -1.5411,-3.45713 -0.0674,-0.3105 -0.12564,-0.45961 -0.1295,-0.33136 -0.009,0.30963 0.38871,1.67657 0.66564,2.28589 0.12151,0.26737 0.53735,0.96949 0.92408,1.56025 0.69479,1.06136 1.02122,1.68487 0.9299,1.77619 -0.14475,0.14475 -1.87084,-1.53753 -2.40816,-2.34704 -0.40213,-0.60583 -0.7145,-1.38009 -0.91563,-2.26957 -0.0881,-0.38971 -0.16358,-0.60364 -0.16768,-0.47539 -0.0124,0.38694 0.42352,1.75302 0.76932,2.41109 0.61205,1.16473 2.85092,3.27369 2.84629,2.68113 z m -3.37305,-8.92309 c 0.2667,-0.99456 0.73245,-1.87879 1.49594,-2.84005 0.37112,-0.46725 0.69115,-0.83315 0.71118,-0.81312 0.02,0.02 -0.18084,0.5062 -0.44638,1.08038 -0.26554,0.57418 -0.56639,1.30249 -0.66856,1.61848 -0.20302,0.6279 -0.49667,2.11243 -0.43086,2.17824 0.0226,0.0226 0.087,-0.22954 0.14304,-0.56033 0.18238,-1.07614 0.44372,-1.8833 1.02561,-3.16771 0.31442,-0.69402 0.57167,-1.31157 0.57167,-1.37233 0,-0.35046 -1.50771,1.53793 -1.94873,2.44077 -0.57066,1.16823 -0.72176,1.88949 -0.74892,3.57495 l -0.0235,1.45841 0.0685,-1.45841 c 0.0474,-1.00936 0.12469,-1.66805 0.25105,-2.13928 z m 0.69914,1.76659 c -0.0179,-0.25685 -0.0328,-0.0693 -0.033,0.41689 -2.3e-4,0.48613 0.0144,0.69628 0.0326,0.467 0.0181,-0.22929 0.0183,-0.62703 4.2e-4,-0.88389 z"
       id="path21"
       transform="scale(0.26458333)" /><path
       style="fill:#dbaf2a;fill-opacity:1;stroke-width:0.0883883"
       d="m 452.72512,622.06255 c -0.0972,-0.026 -0.26627,-0.12971 -0.37565,-0.23056 -0.28477,-0.26256 -0.2581,-0.74475 0.10532,-1.90386 0.95425,-3.04352 0.955,-6.40294 0.002,-8.87447 -0.43741,-1.13437 -0.46085,-1.33681 -0.18655,-1.6111 0.19713,-0.19714 0.30096,-0.22588 0.81607,-0.22588 0.55528,0 0.60677,0.0176 0.87016,0.29685 0.30873,0.32734 0.42831,0.65626 0.59903,1.6477 0.1593,0.92503 0.16037,7.99273 0.001,8.92722 -0.24337,1.43028 -0.54947,1.91134 -1.26123,1.98213 -0.21656,0.0215 -0.47329,0.0179 -0.57051,-0.008 z"
       id="path22"
       transform="scale(0.26458333)" /><path
       style="fill:#dbaf2a;fill-opacity:1;stroke-width:0.0883883"
       d="m 465.02337,621.44256 c -0.12024,-0.54592 -0.24713,-4.77532 -0.19472,-6.49014 0.10832,-3.54421 0.47734,-5.73574 0.96579,-5.73574 0.35211,0 0.53663,1.28733 0.46876,3.27037 -0.10138,2.96249 -0.81325,8.83309 -1.10668,9.12652 -0.0454,0.0454 -0.10129,-0.0264 -0.13315,-0.17101 z"
       id="path23"
       transform="scale(0.26458333)" /><path
       style="fill:#dbaf2a;fill-opacity:1;stroke-width:0.0883883"
       d="m 477.04875,621.2375 c -0.0295,-0.26737 -0.075,-1.56005 -0.1012,-2.87262 -0.0497,-2.49274 -0.19204,-4.19375 -0.48806,-5.83363 -0.23074,-1.2782 -0.43744,-1.95819 -0.87716,-2.88565 -0.3845,-0.81098 -0.45989,-1.28093 -0.22023,-1.37289 0.21228,-0.0815 0.95786,0.18149 1.94207,0.68494 1.57805,0.80722 2.18365,1.65079 1.76554,2.45933 -0.38144,0.73762 -0.94379,3.46543 -1.5508,7.52242 -0.36223,2.42101 -0.42356,2.72082 -0.47016,2.2981 z"
       id="path24"
       transform="scale(0.26458333)" /><path
       style="fill:#dbaf2a;fill-opacity:1;stroke-width:0.0883883"
       d="m 489.21936,611.43418 c -0.64253,-0.39074 -1.70031,-1.99681 -1.77983,-2.70238 -0.0395,-0.35006 -0.0212,-0.40314 0.16825,-0.48947 0.77506,-0.35314 2.10786,1.43989 2.10786,2.83573 0,0.44875 -0.15778,0.56197 -0.49628,0.35612 z"
       id="path25"
       transform="scale(0.26458333)" /><path
       style="fill:#dbaf2a;fill-opacity:1;stroke-width:0.0883883"
       d="m 500.28743,619.77909 c -0.19381,-0.47263 -0.15985,-8.08753 0.0361,-8.08753 0.14378,0 0.21951,1.61871 0.21088,4.5078 -0.009,2.86991 -0.0848,3.97513 -0.24694,3.57973 z"
       id="path26"
       transform="scale(0.26458333)" /><path
       style="fill:#dbaf2a;fill-opacity:1;stroke-width:0.0883883"
       d="m 511.84724,620.74717 c -0.61508,-0.65218 -1.43597,-2.4227 -1.80356,-3.89 -0.34111,-1.3616 -0.15298,-2.8187 0.54713,-4.23753 0.25913,-0.52516 0.56607,-0.92808 0.70699,-0.92808 0.11975,0 0.0827,0.60015 -0.10379,1.67938 -0.30489,1.76478 -0.19396,3.97342 0.25637,5.10487 0.0918,0.23067 0.32655,0.77737 0.52164,1.21489 0.44654,1.00144 0.53322,1.37002 0.3222,1.37002 -0.0832,0 -0.28433,-0.1411 -0.44698,-0.31355 z"
       id="path27"
       transform="scale(0.26458333)" /><path
       style="fill:#dbaf2a;fill-opacity:1;stroke-width:0.0883883"
       d="m 532.78745,621.606 c -0.62079,-0.51688 -1.4946,-1.49153 -1.87177,-2.08776 -1.26415,-1.99835 -1.36369,-5.42861 -0.22632,-7.79882 0.26911,-0.56081 1.60825,-2.37664 1.6914,-2.29349 0.0175,0.0175 -0.15294,0.42506 -0.37877,0.90567 -0.94742,2.01621 -1.23026,3.26443 -1.15935,5.11646 0.0711,1.85793 0.45106,2.98092 1.59279,4.70796 0.50493,0.76377 1.03244,1.69871 1.03244,1.82984 0,0.12786 -0.21441,0.008 -0.68042,-0.37986 z"
       id="path28"
       transform="scale(0.26458333)" /><path
       style="fill:#dbaf2a;fill-opacity:1;stroke-width:0.0883883"
       d="m 544.6491,622.03154 c -0.58305,-0.18347 -0.62317,-0.64112 -0.18634,-2.12562 0.57639,-1.95884 0.62704,-2.32209 0.62763,-4.50205 6.2e-4,-2.24209 -0.092,-2.87472 -0.63216,-4.3177 -0.43595,-1.16461 -0.45727,-1.36207 -0.17732,-1.64202 0.19705,-0.19705 0.30323,-0.22747 0.79409,-0.22747 0.68623,0 0.92527,0.15477 1.18952,0.77016 0.29678,0.69113 0.38259,1.59509 0.43448,4.57734 0.0698,4.01141 -0.11345,6.33156 -0.55313,7.00355 -0.28624,0.43747 -0.93833,0.63953 -1.49677,0.46381 z"
       id="path29"
       transform="scale(0.26458333)" /><path
       style="fill:#dbaf2a;fill-opacity:1;stroke-width:0.00390625"
       d="m 372.80695,612.41764 c 1.9e-4,-0.005 0.001,-0.005 0.002,-0.002 0.001,0.003 9.9e-4,0.006 -3.1e-4,0.007 -0.001,10e-4 -0.002,-10e-4 -0.002,-0.005 z"
       id="path30"
       transform="scale(0.26458333)" /></g></svg>
